<svg width="24" height="24" viewBox="0 0 24 24" fill="none" xmlns="http://www.w3.org/2000/svg">
<path d="M8.51274 13.0645H6.71274C6.50043 13.0645 6.32812 13.2368 6.32812 13.4491V15.2491C6.32812 15.4614 6.50043 15.6337 6.71274 15.6337H8.51274C8.72505 15.6337 8.89736 15.4614 8.89736 15.2491V13.4491C8.89736 13.2368 8.72505 13.0645 8.51274 13.0645ZM8.12813 14.8645H7.09735V13.8337H8.12813V14.8645Z" fill="#121212"/>
<path d="M12.4932 13.0645H10.6932C10.4809 13.0645 10.3086 13.2368 10.3086 13.4491V15.2491C10.3086 15.4614 10.4809 15.6337 10.6932 15.6337H12.4932C12.7055 15.6337 12.8778 15.4614 12.8778 15.2491V13.4491C12.8778 13.2368 12.7055 13.0645 12.4932 13.0645ZM12.1086 14.8645H11.0778V13.8337H12.1086V14.8645Z" fill="#121212"/>
<path d="M8.51274 9.67188H6.71274C6.50043 9.67188 6.32812 9.84418 6.32812 10.0565V11.8565C6.32812 12.0688 6.50043 12.2411 6.71274 12.2411H8.51274C8.72505 12.2411 8.89736 12.0688 8.89736 11.8565V10.0565C8.89736 9.84418 8.72505 9.67188 8.51274 9.67188ZM8.12813 11.4719H7.09735V10.4411H8.12813V11.4719Z" fill="#121212"/>
<path d="M12.4932 9.67188H10.6932C10.4809 9.67188 10.3086 9.84418 10.3086 10.0565V11.8565C10.3086 12.0688 10.4809 12.2411 10.6932 12.2411H12.4932C12.7055 12.2411 12.8778 12.0688 12.8778 11.8565V10.0565C12.8778 9.84418 12.7055 9.67188 12.4932 9.67188ZM12.1086 11.4719H11.0778V10.4411H12.1086V11.4719Z" fill="#121212"/>
<path d="M16.0897 15.6337H17.8897C18.102 15.6337 18.2743 15.4614 18.2743 15.2491V13.4491C18.2743 13.2368 18.102 13.0645 17.8897 13.0645H16.0897C15.8774 13.0645 15.7051 13.2368 15.7051 13.4491V15.2491C15.7051 15.4614 15.8774 15.6337 16.0897 15.6337ZM16.4743 13.8337H17.5051V14.8645H16.4743V13.8337Z" fill="#121212"/>
<path d="M16.0897 19.0282H17.8897C18.102 19.0282 18.2743 18.8559 18.2743 18.6436V16.8436C18.2743 16.6313 18.102 16.459 17.8897 16.459H16.0897C15.8774 16.459 15.7051 16.6313 15.7051 16.8436V18.6436C15.7051 18.8559 15.8774 19.0282 16.0897 19.0282ZM16.4743 17.2282H17.5051V18.259H16.4743V17.2282Z" fill="#121212"/>
<path d="M16.0897 12.2411H17.8897C18.102 12.2411 18.2743 12.0688 18.2743 11.8565V10.0565C18.2743 9.84418 18.102 9.67188 17.8897 9.67188H16.0897C15.8774 9.67188 15.7051 9.84418 15.7051 10.0565V11.8565C15.7051 12.0688 15.8774 12.2411 16.0897 12.2411ZM16.4743 10.4411H17.5051V11.4719H16.4743V10.4411Z" fill="#121212"/>
<path d="M8.51274 6.27344H6.71274C6.50043 6.27344 6.32812 6.44575 6.32812 6.65805V8.45806C6.32812 8.67036 6.50043 8.84267 6.71274 8.84267H8.51274C8.72505 8.84267 8.89736 8.67036 8.89736 8.45806V6.65805C8.89736 6.44575 8.72505 6.27344 8.51274 6.27344ZM8.12813 8.07344H7.09735V7.04266H8.12813V8.07344Z" fill="#121212"/>
<path d="M10.3086 6.65805V8.45806C10.3086 8.67036 10.4809 8.84267 10.6932 8.84267H12.4932C12.7055 8.84267 12.8778 8.67036 12.8778 8.45806V6.65805C12.8778 6.44575 12.7055 6.27344 12.4932 6.27344H10.6932C10.4809 6.27344 10.3086 6.44575 10.3086 6.65805ZM11.0778 7.04266H12.1086V8.07344H11.0778V7.04266Z" fill="#121212"/>
<path d="M20.6122 20.231H19.7661V8.46162C19.7661 8.24931 19.5938 8.077 19.3815 8.077H14.9784V4.92306C14.9784 4.71076 14.8061 4.53845 14.5938 4.53845H12.723V3.76923H13.7754C13.9877 3.76923 14.16 3.59692 14.16 3.38461C14.16 3.17231 13.9877 3 13.7754 3H5.43385C5.22154 3 5.04923 3.17231 5.04923 3.38461C5.04923 3.59692 5.22154 3.76923 5.43385 3.76923H6.48617V4.53845H4.61539C4.40309 4.53845 4.23078 4.71076 4.23078 4.92306V20.2308H3.38461C3.17231 20.2308 3 20.4031 3 20.6154C3 20.8277 3.17231 21 3.38461 21H20.6155C20.8278 21 21.0001 20.8277 21.0001 20.6154C21.0001 20.4031 20.8278 20.2308 20.6155 20.2308L20.6122 20.231ZM7.25211 3.7693H11.9537V4.53853H7.25211V3.7693ZM12.1075 20.231H7.09811V17.4648H12.1075V20.231ZM14.209 20.231H12.8767V17.0802C12.8767 16.8679 12.7044 16.6956 12.4921 16.6956H6.71358C6.50127 16.6956 6.32897 16.8679 6.32897 17.0802V20.231H4.99665V5.30787H14.209L14.209 20.231ZM18.9967 20.231H14.9782V8.84641H18.9967V20.231Z" fill="#121212"/>
</svg>
