<svg width="17" height="20" viewBox="0 0 17 20" fill="none" xmlns="http://www.w3.org/2000/svg">
<path d="M3 6.5C3 3.46243 5.46243 1 8.5 1V1C11.5376 1 14 3.46243 14 6.5V8.5C14 10.1228 14.5263 11.7018 15.5 13L15.7143 13.2857C15.7873 13.383 15.8237 13.4316 15.8449 13.4651C16.2476 14.1012 15.8295 14.9374 15.079 14.9969C15.0396 15 14.9788 15 14.8571 15H2.14286C2.02124 15 1.96044 15 1.921 14.9969C1.17047 14.9374 0.752362 14.1012 1.1551 13.4651C1.17626 13.4316 1.21275 13.383 1.28571 13.2857L1.5 13C2.47367 11.7018 3 10.1228 3 8.5V6.5Z" stroke="#000054"/>
<path d="M6.08519 17.147C6.22762 17.6786 6.54149 18.1484 6.9781 18.4834C7.41471 18.8184 7.94966 19 8.5 19C9.05033 19 9.58529 18.8184 10.0219 18.4834C10.4585 18.1484 10.7724 17.6786 10.9148 17.147" stroke="#000054" stroke-linecap="round"/>
</svg>
