<svg width="38" height="38" viewBox="0 0 38 38" fill="none" xmlns="http://www.w3.org/2000/svg">
<circle cx="19" cy="19" r="18" fill="#FF8000" stroke="#FCFCFC" stroke-width="2"/>
<path fill-rule="evenodd" clip-rule="evenodd" d="M18.9989 18.1484C18.4789 18.1484 17.9909 18.3427 17.6149 18.7078C17.2469 19.0652 17.0469 19.5391 17.0549 20.0286V20.0363C17.0549 20.5413 17.2549 21.0153 17.6229 21.3726C17.9909 21.73 18.4789 21.9242 18.9989 21.9242C20.0709 21.9242 20.9349 21.0774 20.9429 20.0363C20.9429 19.5313 20.7429 19.0574 20.3749 18.7C20.0069 18.3427 19.5189 18.1484 18.9989 18.1484ZM23.4895 18.2031C23.0895 18.2031 22.7695 17.8923 22.7695 17.5039C22.7695 17.1154 23.0895 16.7969 23.4895 16.7969C23.8895 16.7969 24.2175 17.1154 24.2175 17.5039C24.2175 17.8923 23.8895 18.2031 23.4895 18.2031ZM21.2156 22.1975C20.6476 22.7491 19.8636 23.0909 18.9996 23.0909C18.1596 23.0909 17.3756 22.7724 16.7756 22.1975C16.1836 21.6148 15.8556 20.8534 15.8556 20.0376C15.8476 19.2297 16.1756 18.4683 16.7676 17.8856C17.3676 17.3029 18.1596 16.9844 18.9996 16.9844C19.8396 16.9844 20.6316 17.3029 21.2236 17.8778C21.8156 18.4605 22.1436 19.2297 22.1436 20.0376C22.1356 20.8845 21.7836 21.6459 21.2156 22.1975ZM23.512 14.6104C23.44 14.6104 23.384 14.5716 23.352 14.5172L23.272 14.3463C23.056 13.9034 22.808 13.3907 22.656 13.0954C22.288 12.3962 21.656 12.0078 20.88 12H17.112C16.336 12.0078 15.712 12.3962 15.344 13.0954C15.184 13.4062 14.912 13.9656 14.688 14.424L14.64 14.5172C14.616 14.5794 14.552 14.6104 14.488 14.6104C12.56 14.6104 11 16.1332 11 17.9978V22.6127C11 24.4772 12.56 26 14.488 26H23.512C25.432 26 27 24.4772 27 22.6127V17.9978C27 16.1332 25.432 14.6104 23.512 14.6104Z" fill="#FCFCFC"/>
</svg>
