<svg width="24" height="24" viewBox="0 0 24 24" fill="none" xmlns="http://www.w3.org/2000/svg">
<rect width="24" height="24" rx="12" fill="#BFDFFF"/>
<path fill-rule="evenodd" clip-rule="evenodd" d="M16.0756 15.3833V15.3878V15.3923V15.3961C16.0756 15.3987 16.0756 15.4012 16.0749 15.4038V15.4048V15.4086V15.4125V15.416V15.4168L16.0714 15.4214V15.4225C16.0708 15.4252 16.0702 15.4278 16.0694 15.4304L16.0683 15.434V15.4359L16.0673 15.4391V15.4399L16.0663 15.4428L16.0654 15.4449V15.4463L16.0643 15.4494L16.0634 15.4513V15.4526L16.0625 15.4546V15.4561L16.0615 15.4579V15.4591L16.0606 15.461V15.4622L16.0596 15.4639L16.0588 15.4655L16.0577 15.4672L16.0567 15.4688L16.0557 15.4706V15.4715L16.0465 15.4794L16.0457 15.4808L16.0445 15.4823L16.0436 15.4837L16.0425 15.4854L16.0413 15.4869L16.04 15.4884L16.0387 15.49L16.0374 15.4918L16.0362 15.4931L16.0348 15.4947L16.0336 15.4961L16.0322 15.4976L16.0313 15.4986L16.0298 15.5002L16.0281 15.5021L16.0267 15.5037L16.0253 15.5049L14.4132 17.117C14.4086 17.1215 14.4038 17.1259 14.3987 17.1299L14.3955 17.1325L14.3928 17.1347L14.3915 17.1357L14.3894 17.137L14.3877 17.1383L14.3861 17.1393L14.384 17.1406L14.3824 17.1417L14.3807 17.1428L14.3784 17.1443H14.3774L14.3747 17.1459H14.3736L14.3711 17.1472H14.3698L14.3671 17.1486L14.3598 17.1521C14.3381 17.1616 14.3147 17.1666 14.2909 17.1666H7.87562C7.82973 17.1666 7.78574 17.1483 7.7533 17.1159C7.72087 17.0834 7.70265 17.0394 7.70265 16.9935V6.99553C7.70265 6.94965 7.72087 6.90563 7.7533 6.87317C7.78574 6.84071 7.82973 6.82245 7.87562 6.82241H9.88263V6.29492H7.91338C7.76308 6.29553 7.61911 6.35551 7.51282 6.46179C7.40654 6.56808 7.34656 6.71205 7.34595 6.86235V17.0869C7.3466 17.2372 7.40661 17.3811 7.51289 17.4873C7.61918 17.5935 7.76313 17.6534 7.91338 17.6539H15.8432C15.9935 17.6534 16.1375 17.5934 16.2438 17.4872C16.3501 17.3809 16.4101 17.2369 16.4107 17.0866V6.86206C16.41 6.71181 16.35 6.56791 16.2437 6.46169C16.1374 6.35547 15.9935 6.29553 15.8432 6.29492H13.8738V6.82241H15.9026C15.9485 6.82245 15.9925 6.84071 16.0249 6.87317C16.0574 6.90563 16.0756 6.94965 16.0756 6.99553V15.3833ZM11.8892 8.29379C11.8991 8.29902 11.9092 8.30439 11.9197 8.30962C12.0715 8.38608 12.2376 8.42968 12.4074 8.43757C12.5287 8.44339 12.6502 8.43215 12.7683 8.40417C12.832 8.3887 12.8948 8.3693 12.9561 8.34608C12.9779 8.33794 12.9993 8.32957 13.0203 8.32095L13.0447 8.34433C13.0098 8.42745 12.9825 8.51359 12.9634 8.60169C12.9396 8.71139 12.9291 8.82354 12.9321 8.93573C12.9475 9.16498 12.9902 9.39157 13.0595 9.61064L13.0787 9.68093C13.1279 9.84001 13.162 10.0034 13.1803 10.1689C13.1842 10.2202 13.1825 10.2718 13.1751 10.3227C13.1689 10.3646 13.1571 10.4054 13.14 10.4441C13.1246 10.478 13.1044 10.5094 13.08 10.5374C13.0517 10.5694 13.0204 10.5986 12.9864 10.6245C12.9275 10.6696 12.8655 10.7105 12.801 10.7471C12.7327 10.7865 12.6618 10.8231 12.5929 10.8572C12.5163 10.8952 12.434 10.9333 12.3518 10.9715C12.2837 11.003 12.2155 11.0345 12.1251 11.079C12.0636 11.109 12.0051 11.1391 11.955 11.1677C11.9331 11.1803 11.9112 11.1935 11.8892 11.2074C11.8672 11.1936 11.8453 11.1804 11.8234 11.1677C11.7733 11.1387 11.7146 11.1096 11.6533 11.079C11.5627 11.0345 11.4946 11.003 11.4265 10.9713C11.3443 10.9333 11.2619 10.8952 11.1854 10.8572C11.1165 10.8231 11.0457 10.7865 10.9774 10.7471C10.9128 10.7106 10.8509 10.6696 10.7919 10.6245C10.758 10.5986 10.7267 10.5694 10.6984 10.5374C10.674 10.5094 10.6538 10.478 10.6384 10.4441C10.6213 10.4054 10.6094 10.3646 10.6031 10.3227C10.5958 10.2718 10.5941 10.2202 10.5979 10.1689C10.6163 10.0034 10.6504 9.84003 10.6996 9.68093L10.7189 9.61064C10.7881 9.39156 10.8308 9.16497 10.8461 8.93573C10.8492 8.82353 10.8388 8.71137 10.8149 8.60169C10.7958 8.51358 10.7687 8.42743 10.7337 8.34433L10.759 8.32008C10.8866 8.37366 11.0207 8.41042 11.1578 8.42944C11.3478 8.45483 11.5412 8.4338 11.7213 8.36815C11.7682 8.35161 11.8141 8.33221 11.8587 8.31006L11.8892 8.29423V8.29379ZM11.704 8.00143C11.7331 7.98691 11.7636 7.96919 11.7945 7.94958C11.8223 7.93116 11.8549 7.92119 11.8882 7.92088C11.9216 7.92057 11.9543 7.92993 11.9824 7.94784C12.0144 7.96803 12.0455 7.98618 12.0758 8.00143C12.1076 8.01761 12.1404 8.03183 12.174 8.04399C12.2546 8.07264 12.339 8.08913 12.4244 8.09293C12.5139 8.09695 12.6035 8.0884 12.6906 8.06751C12.7399 8.05605 12.7884 8.0415 12.8358 8.02394C12.8833 8.00637 12.9327 7.98488 12.983 7.9612C13.0146 7.9463 13.05 7.94136 13.0846 7.94704C13.1191 7.95272 13.1511 7.96875 13.1763 7.99301L13.3691 8.17862C13.3978 8.20431 13.417 8.23882 13.4238 8.27668C13.4306 8.31454 13.4245 8.35358 13.4066 8.38761C13.3976 8.40461 13.3978 8.40388 13.3959 8.4078C13.3896 8.42015 13.3989 8.40214 13.3861 8.42915C13.3484 8.50788 13.32 8.59074 13.3015 8.67605C13.2832 8.75909 13.275 8.84404 13.2771 8.92905C13.2925 9.13029 13.3311 9.32908 13.3921 9.52146L13.4114 9.5919C13.4672 9.77295 13.5053 9.959 13.5251 10.1474C13.5306 10.224 13.5275 10.301 13.516 10.3769C13.5052 10.4495 13.4847 10.5204 13.455 10.5875C13.4258 10.6517 13.3874 10.7114 13.341 10.7645C13.298 10.8134 13.2504 10.858 13.1988 10.8976C13.1274 10.9525 13.0524 11.0024 12.9741 11.047C12.8983 11.0906 12.8207 11.1308 12.7458 11.168C12.6602 11.2104 12.5783 11.2485 12.4966 11.2864C12.4148 11.3243 12.3338 11.3616 12.2765 11.3898C12.2305 11.4123 12.1816 11.4377 12.1268 11.4691C12.0812 11.4948 12.0372 11.5231 11.9949 11.5539C11.9652 11.5769 11.9288 11.5896 11.8912 11.5899C11.8536 11.5903 11.8169 11.5784 11.7867 11.5561C11.7435 11.5244 11.6985 11.4953 11.6519 11.4689C11.5971 11.4376 11.5482 11.4121 11.5021 11.3896C11.4448 11.3614 11.3634 11.3238 11.2821 11.2861C11.2008 11.2483 11.1183 11.2103 11.0329 11.1678C10.9578 11.1307 10.8802 11.0907 10.8046 11.0469C10.7263 11.0023 10.6512 10.9524 10.5799 10.8974C10.5282 10.8579 10.4806 10.8133 10.4377 10.7644C10.3912 10.7113 10.3528 10.6516 10.3237 10.5873C10.294 10.5202 10.2735 10.4494 10.2627 10.3768C10.2512 10.3008 10.2481 10.2239 10.2534 10.1473C10.2732 9.95885 10.3114 9.7728 10.3673 9.59176L10.3864 9.52132C10.4475 9.32894 10.4862 9.13015 10.5016 8.92891C10.5036 8.8439 10.4955 8.75896 10.4772 8.67591C10.4586 8.59061 10.4302 8.50776 10.3925 8.42901C10.3796 8.40199 10.3891 8.42 10.3828 8.40766C10.3812 8.40446 10.3811 8.40446 10.3721 8.38747C10.3546 8.35437 10.3484 8.31648 10.3544 8.27954C10.3604 8.2426 10.3782 8.2086 10.4052 8.18269L10.5976 7.99751C10.6225 7.97149 10.6549 7.95389 10.6902 7.94717C10.7256 7.94045 10.7622 7.94495 10.7948 7.96004C10.9231 8.02324 11.0602 8.06653 11.2015 8.08843C11.3378 8.10683 11.4765 8.09188 11.6057 8.04486C11.6393 8.03267 11.672 8.01846 11.7039 8.0023L11.704 8.00143ZM9.3669 15.3617C9.32187 15.3604 9.27912 15.3415 9.24774 15.3092C9.21635 15.2769 9.19879 15.2337 9.19879 15.1886C9.19879 15.1436 9.21635 15.1003 9.24774 15.068C9.27912 15.0357 9.32187 15.0169 9.3669 15.0156H13.0046C13.0496 15.0169 13.0924 15.0357 13.1238 15.068C13.1551 15.1003 13.1727 15.1436 13.1727 15.1886C13.1727 15.2337 13.1551 15.2769 13.1238 15.3092C13.0924 15.3415 13.0496 15.3604 13.0046 15.3617H9.3669ZM9.3669 14.0137C9.32102 14.0137 9.27702 13.9955 9.24459 13.9631C9.21215 13.9306 9.19392 13.8866 9.19392 13.8408C9.19392 13.7949 9.21215 13.7509 9.24459 13.7184C9.27702 13.686 9.32102 13.6678 9.3669 13.6678H10.1609C10.2068 13.6678 10.2508 13.686 10.2832 13.7184C10.3156 13.7509 10.3339 13.7949 10.3339 13.8408C10.3339 13.8866 10.3156 13.9306 10.2832 13.9631C10.2508 13.9955 10.2068 14.0137 10.1609 14.0137H9.3669ZM10.8338 14.0137C10.7879 14.0137 10.7439 13.9955 10.7115 13.9631C10.679 13.9306 10.6608 13.8866 10.6608 13.8408C10.6608 13.7949 10.679 13.7509 10.7115 13.7184C10.7439 13.686 10.7879 13.6678 10.8338 13.6678H14.4109C14.4568 13.6678 14.5008 13.686 14.5332 13.7184C14.5657 13.7509 14.5839 13.7949 14.5839 13.8408C14.5839 13.8866 14.5657 13.9306 14.5332 13.9631C14.5008 13.9955 14.4568 14.0137 14.4109 14.0137H10.8338ZM9.3669 12.6658C9.32102 12.6658 9.27702 12.6476 9.24459 12.6151C9.21215 12.5827 9.19392 12.5387 9.19392 12.4928C9.19392 12.447 9.21215 12.403 9.24459 12.3705C9.27702 12.3381 9.32102 12.3199 9.3669 12.3199H13.0005C13.0464 12.3199 13.0904 12.3381 13.1228 12.3705C13.1553 12.403 13.1735 12.447 13.1735 12.4928C13.1735 12.5387 13.1553 12.5827 13.1228 12.6151C13.0904 12.6476 13.0464 12.6658 13.0005 12.6658H9.3669ZM13.6741 12.6658C13.6283 12.6658 13.5843 12.6476 13.5518 12.6151C13.5194 12.5827 13.5012 12.5387 13.5012 12.4928C13.5012 12.447 13.5194 12.403 13.5518 12.3705C13.5843 12.3381 13.6283 12.3199 13.6741 12.3199H14.4115C14.4574 12.3199 14.5014 12.3381 14.5338 12.3705C14.5662 12.403 14.5845 12.447 14.5845 12.4928C14.5845 12.5387 14.5662 12.5827 14.5338 12.6151C14.5014 12.6476 14.4574 12.6658 14.4115 12.6658H13.6741ZM11.7053 5.89393C11.7053 5.87121 11.7098 5.84872 11.7185 5.82773C11.7272 5.80675 11.7399 5.78768 11.756 5.77161C11.7721 5.75555 11.7911 5.74281 11.8121 5.73412C11.8331 5.72543 11.8556 5.72095 11.8783 5.72095C11.901 5.72095 11.9235 5.72543 11.9445 5.73412C11.9655 5.74281 11.9846 5.75555 12.0006 5.77161C12.0167 5.78768 12.0294 5.80675 12.0381 5.82773C12.0468 5.84872 12.0513 5.87121 12.0513 5.89393V5.92167C12.0513 5.96754 12.0331 6.01154 12.0006 6.04398C11.9682 6.07642 11.9242 6.09464 11.8783 6.09464C11.8324 6.09464 11.7884 6.07642 11.756 6.04398C11.7236 6.01154 11.7053 5.96754 11.7053 5.92167V5.89393ZM9.90006 7.1688C9.92526 7.23318 9.97014 7.28797 10.0283 7.32536C10.1061 7.37581 10.197 7.40223 10.2897 7.40132H13.4676C13.5603 7.40218 13.6512 7.37577 13.729 7.32536C13.7872 7.28797 13.8321 7.23318 13.8573 7.1688H15.7308V15.2103H14.3013V15.2111C14.2558 15.2112 14.2122 15.2293 14.18 15.2615C14.1478 15.2936 14.1296 15.3372 14.1294 15.3827L14.1183 16.8243H8.04874V7.16851L9.90006 7.1688ZM10.289 5.68813H10.7728C10.8478 5.50685 10.9743 5.35156 11.1367 5.24153C11.3521 5.08457 11.6118 5 11.8783 5C12.1448 5 12.4045 5.08457 12.6199 5.24153C12.7823 5.35156 12.9088 5.50685 12.9838 5.68813H13.4676C13.5603 5.6872 13.6513 5.71362 13.729 5.76409C13.7959 5.8066 13.8445 5.87252 13.8654 5.94897H15.8432C16.0853 5.94939 16.3174 6.04576 16.4886 6.21696C16.6598 6.38816 16.7562 6.62024 16.7566 6.86235V17.0869C16.7561 17.329 16.6597 17.561 16.4885 17.7321C16.3173 17.9033 16.0853 17.9996 15.8432 18H7.91338C7.67127 17.9996 7.43919 17.9032 7.26799 17.732C7.09679 17.5608 7.00042 17.3287 7 17.0866V6.86206C7.0005 6.62 7.0969 6.388 7.26809 6.21686C7.43929 6.04572 7.67132 5.94939 7.91338 5.94897H9.8912C9.91202 5.8725 9.96066 5.80656 10.0276 5.76409C10.0318 5.76118 10.0361 5.75857 10.0405 5.7561C10.1155 5.71107 10.2015 5.68755 10.289 5.68813ZM10.9126 6.03422C10.9585 6.03418 11.0025 6.01593 11.035 5.98347C11.0674 5.951 11.0856 5.90699 11.0856 5.8611C11.1014 5.79026 11.132 5.72353 11.1752 5.66523C11.2185 5.60694 11.2735 5.55838 11.3367 5.52271C11.494 5.40795 11.6836 5.34611 11.8783 5.34611C12.073 5.34611 12.2626 5.40795 12.4199 5.52271C12.4831 5.55838 12.5381 5.60694 12.5814 5.66523C12.6246 5.72353 12.6552 5.79026 12.671 5.8611C12.671 5.90699 12.6892 5.951 12.7217 5.98347C12.7541 6.01593 12.7981 6.03418 12.844 6.03422H13.4676C13.4883 6.03357 13.5089 6.03749 13.5279 6.0457V7.04346C13.5089 7.0516 13.4883 7.05551 13.4676 7.05494H10.289C10.2683 7.05551 10.2477 7.0516 10.2287 7.04346V6.0457C10.2477 6.03749 10.2683 6.03357 10.289 6.03422H10.9126ZM14.4722 15.5564H15.4851L14.4642 16.5771L14.4722 15.5564Z" fill="#000054" stroke="#000054" stroke-width="0.1"/>
</svg>
