<svg width="16" height="18" viewBox="0 0 16 18" fill="none" xmlns="http://www.w3.org/2000/svg">
<path d="M13.5619 4.53079C13.637 3.30964 14.6516 2.85859 14.7457 2.5016C14.8397 2.1446 12.3971 0.0590238 12.1152 0.00264282C11.8333 -0.0537382 10.5558 0.810683 9.9356 0.810683C9.31541 0.810683 8.13894 0.00264282 7.63801 0.00264282C7.13707 0.00264282 5.9606 0.810683 5.34041 0.810683C4.72022 0.810683 3.44269 -0.0534784 3.16104 0.00264282C2.87914 0.0590238 0.436565 2.1446 0.53062 2.5016C0.624675 2.85859 1.63927 3.30964 1.71436 4.53079C1.771 5.44978 -0.822003 9.70875 0.267684 12.9724C1.35737 16.2362 5.49111 16.2549 6.01699 16.4615C6.54312 16.668 7.13603 17.5512 7.63827 17.5512C8.14024 17.5512 8.73341 16.668 9.25955 16.4615C9.78568 16.2549 13.9192 16.236 15.0089 12.9724C16.0985 9.70875 13.5053 5.44978 13.5619 4.53079Z" fill="#FF8000"/>
<path d="M3.60769 1.33733C3.74955 1.39345 3.97767 1.50076 4.15591 1.58468C4.85794 1.91465 5.34615 2.13108 5.72055 2.13108C6.11054 2.13108 6.56236 1.91621 6.99912 1.70836C7.20906 1.60833 7.52422 1.45841 7.63828 1.44282C7.75234 1.45841 8.0675 1.60833 8.27744 1.70836C8.7142 1.91621 9.16576 2.13108 9.55602 2.13108C9.92782 2.13108 10.4217 1.91673 11.1329 1.58988C11.315 1.50596 11.5481 1.39891 11.6936 1.34227C12.0454 1.59378 12.863 2.33556 13.1701 2.71542C13.1449 2.74244 13.1189 2.76998 13.0958 2.79415C12.749 3.15945 12.1685 3.77081 12.134 4.69006C12.1215 5.01925 12.2782 5.43964 12.6053 6.28379C13.1818 7.77256 14.1468 10.264 13.5858 12.2404C12.9423 14.5071 10.5958 14.902 9.4682 15.092C9.18058 15.1403 9.00702 15.1697 8.87165 15.2276C8.57909 15.3531 8.32655 15.6025 8.08232 15.8436C7.95448 15.9699 7.7487 16.1731 7.63854 16.2323C7.52864 16.1731 7.3226 15.9696 7.19477 15.8436C6.95054 15.6025 6.69799 15.3531 6.40544 15.2276C6.27007 15.1694 6.09651 15.1403 5.80889 15.092C4.68127 14.902 2.33483 14.5071 1.69125 12.2404C1.1303 10.2642 2.09527 7.77256 2.67181 6.28379C2.99867 5.43964 3.15534 5.01899 3.14313 4.69006C3.10935 3.7916 2.58633 3.12152 2.27377 2.72114C2.24597 2.68554 2.21427 2.64475 2.18465 2.60604C2.47357 2.25502 3.26291 1.57091 3.60769 1.33733ZM3.55364 0.786255C3.54559 0.786255 3.53857 0.786775 3.53234 0.788074C3.29694 0.835881 1.52653 2.32101 1.5972 2.62994C1.66813 2.93965 2.58374 3.64064 2.62375 4.7098C2.65415 5.52096 0.332133 9.35617 1.19136 12.3826C2.07293 15.4879 5.73562 15.5061 6.2007 15.7054C6.66655 15.9052 7.19139 16.7624 7.63854 16.7624C8.08569 16.7624 8.61053 15.9052 9.07639 15.7054C9.54147 15.5061 13.2042 15.4879 14.0857 12.3826C14.945 9.35617 12.6229 5.52096 12.6533 4.7098C12.6933 3.64064 13.6999 3.07189 13.7708 2.76219C13.8415 2.45352 12.0116 0.839778 11.7764 0.791971C11.7702 0.790672 11.7629 0.790152 11.7549 0.790152C11.4631 0.790152 10.0601 1.61144 9.55653 1.61144C9.03897 1.61144 8.05555 0.92266 7.6388 0.92266C7.22205 0.92266 6.23863 1.61144 5.72107 1.61144C5.21676 1.61144 3.8436 0.786255 3.55364 0.786255Z" fill="#F5F5F5"/>
<path d="M4.16577 4.58906C4.27178 4.57113 4.42066 4.55762 4.63059 4.55762C4.8426 4.55762 4.99356 4.59815 5.09515 4.67947C5.19232 4.75612 5.25754 4.88239 5.25754 5.03127C5.25754 5.18015 5.20791 5.30642 5.11775 5.39216C5.00057 5.50258 4.82675 5.55221 4.62383 5.55221C4.57889 5.55221 4.53809 5.54987 4.50665 5.54545V6.089H4.16603V4.58906H4.16577ZM4.5064 5.2794C4.53576 5.28615 4.57161 5.28849 4.62124 5.28849C4.80415 5.28849 4.91691 5.196 4.91691 5.04036C4.91691 4.90032 4.82 4.81692 4.64852 4.81692C4.57863 4.81692 4.53108 4.82367 4.5064 4.83043V5.2794Z" fill="#F5F5F5"/>
<path d="M6.86739 5.31314C6.86739 5.81173 6.56522 6.11416 6.12067 6.11416C5.66962 6.11416 5.40564 5.77354 5.40564 5.34042C5.40564 4.88469 5.69664 4.54407 6.14561 4.54407C6.61251 4.54407 6.86739 4.89379 6.86739 5.31314ZM5.76887 5.3334C5.76887 5.63116 5.90891 5.84109 6.13885 5.84109C6.37139 5.84109 6.50442 5.61998 6.50442 5.32457C6.50442 5.05176 6.37347 4.81688 6.13677 4.81688C5.90423 4.81688 5.76887 5.03799 5.76887 5.3334Z" fill="#F5F5F5"/>
<path d="M7.0921 4.56873H7.43714V5.80053H8.04175V6.08919H7.0921V4.56873Z" fill="#F5F5F5"/>
<path d="M8.58924 4.56873V6.08919H8.2442V4.56873H8.58924Z" fill="#F5F5F5"/>
<path d="M10.0032 6.04635C9.94005 6.07805 9.79793 6.11182 9.61294 6.11182C9.08732 6.11182 8.81659 5.78471 8.81659 5.35159C8.81659 4.83273 9.18657 4.54407 9.64671 4.54407C9.82495 4.54407 9.96006 4.58018 10.0211 4.61162L9.95096 4.88469C9.88107 4.85533 9.7839 4.82831 9.6623 4.82831C9.38949 4.82831 9.17722 4.99304 9.17722 5.33158C9.17722 5.63609 9.3578 5.82784 9.66438 5.82784C9.76805 5.82784 9.88315 5.80524 9.95096 5.77821L10.0032 6.04635Z" fill="#F5F5F5"/>
<path d="M11.1329 5.4464H10.5735V5.80729H11.1984V6.08919H10.2285V4.56873H11.1669V4.85089H10.5735V5.16657H11.1329V5.4464Z" fill="#F5F5F5"/>
<path d="M7.64998 7.74529C9.17824 7.74529 10.4215 8.98853 10.4215 10.5168C10.4215 12.0451 9.17824 13.2883 7.64998 13.2883C6.12172 13.2883 4.87847 12.0451 4.87847 10.5168C4.87873 8.98853 6.12197 7.74529 7.64998 7.74529ZM7.64998 7.48547C5.97596 7.48547 4.61865 8.84252 4.61865 10.5168C4.61865 12.1908 5.9757 13.5481 7.64998 13.5481C9.324 13.5481 10.6813 12.1911 10.6813 10.5168C10.6813 8.84252 9.32426 7.48547 7.64998 7.48547Z" fill="#F5F5F5"/>
<path d="M9.88653 9.38088C9.6953 9.38088 9.54045 9.53573 9.54045 9.72696C9.54045 9.73969 9.54279 9.7519 9.54435 9.76412L8.26941 9.57887L7.72171 8.46917C7.87838 8.43617 7.99608 8.29717 7.99608 8.13063C7.99608 7.9394 7.84123 7.78455 7.65 7.78455C7.45877 7.78455 7.30392 7.9394 7.30392 8.13063C7.30392 8.2808 7.40031 8.4076 7.53412 8.4554L6.97966 9.57887L5.75643 9.75658C5.75721 9.74671 5.75954 9.7371 5.75954 9.7267C5.75954 9.53548 5.60469 9.38062 5.41346 9.38062C5.22224 9.38062 5.06738 9.53548 5.06738 9.7267C5.06738 9.91793 5.22224 10.0728 5.41346 10.0728C5.52597 10.0728 5.62496 10.0182 5.6881 9.93508L6.5811 10.8055L6.3483 12.1636C6.29919 12.1368 6.24359 12.1202 6.18383 12.1202C5.9926 12.1202 5.83775 12.275 5.83775 12.4662C5.83775 12.6575 5.9926 12.8123 6.18383 12.8123C6.37506 12.8123 6.52991 12.6575 6.52991 12.4662C6.52991 12.3608 6.48159 12.2672 6.40702 12.2038L7.6248 11.5636L8.85556 12.2106C8.78567 12.274 8.74124 12.3644 8.74124 12.466C8.74124 12.6572 8.8961 12.8121 9.08732 12.8121C9.27855 12.8121 9.4334 12.6572 9.4334 12.466C9.4334 12.2748 9.27855 12.1199 9.08732 12.1199C9.01951 12.1199 8.95663 12.1402 8.90311 12.174L8.66849 10.8052L9.5919 9.90494C9.65243 10.005 9.76156 10.0725 9.88705 10.0725C10.0783 10.0725 10.2331 9.91767 10.2331 9.72644C10.2326 9.53574 10.0778 9.38088 9.88653 9.38088Z" fill="#F5F5F5"/>
</svg>
