<svg width="24" height="24" viewBox="0 0 24 24" fill="none" xmlns="http://www.w3.org/2000/svg">
<path d="M9.5 15L9.5 12" stroke="#FF0000" stroke-linecap="round"/>
<path d="M14.5 15L14.5 12" stroke="#FF0000" stroke-linecap="round"/>
<path d="M3 7H21V7C19.5955 7 18.8933 7 18.3889 7.33706C18.1705 7.48298 17.983 7.67048 17.8371 7.88886C17.5 8.39331 17.5 9.09554 17.5 10.5V16C17.5 17.8856 17.5 18.8284 16.9142 19.4142C16.3284 20 15.3856 20 13.5 20H10.5C8.61438 20 7.67157 20 7.08579 19.4142C6.5 18.8284 6.5 17.8856 6.5 16V10.5C6.5 9.09554 6.5 8.39331 6.16294 7.88886C6.01702 7.67048 5.82952 7.48298 5.61114 7.33706C5.10669 7 4.40446 7 3 7V7Z" stroke="#FF0000" stroke-linecap="round"/>
<path d="M9.5 4.00024C9.5 4.00024 10 3 12 3C14 3 14.5 4 14.5 4" stroke="#FF0000" stroke-linecap="round"/>
</svg>
