<svg width="24" height="24" viewBox="0 0 24 24" fill="none" xmlns="http://www.w3.org/2000/svg">
<rect width="24" height="24" rx="12" fill="#BFDFFF"/>
<path d="M12.5668 8.54187C11.2248 8.54187 10.1367 9.62994 10.1367 10.972C10.1367 12.3141 11.2248 13.4022 12.5668 13.4022C13.9089 13.4022 14.9971 12.3141 14.9971 10.972C14.9971 9.62994 13.9089 8.54187 12.5668 8.54187ZM12.5668 12.9655C11.4677 12.9655 10.5735 12.0712 10.5735 10.972C10.5735 9.87278 11.4676 8.97863 12.5668 8.97863C13.6659 8.97863 14.5603 9.87278 14.5603 10.972C14.5603 12.0712 13.6659 12.9655 12.5668 12.9655Z" fill="#000054"/>
<path d="M12.3499 10.7533H11.3945V11.1901H12.7859L12.7867 9.64734H12.3499V10.7533Z" fill="#000054"/>
<path d="M16.8714 11.8361H16.5062V14.4742H16.8714V11.8361ZM10.6331 16.2952H12.342C12.5784 16.2952 12.7899 16.3905 12.9475 16.5441V16.5482C13.101 16.7017 13.1964 16.9132 13.1964 17.1496C13.1964 17.382 13.101 17.5977 12.9475 17.7511C12.7899 17.9046 12.5784 18 12.342 18H10.6331C10.4008 18 10.1852 17.9046 10.0316 17.7511C9.94451 17.664 9.87803 17.5562 9.83246 17.44H8.82445C8.49266 17.44 8.18989 17.3032 7.97 17.0833H7.96579C7.74605 16.8634 7.61325 16.5606 7.61325 16.2287V14.9096C7.2025 14.8433 6.83761 14.6526 6.55967 14.3704C6.21568 14.0262 6 13.5492 6 13.0266C6 12.5039 6.21568 12.027 6.55996 11.6827C6.8379 11.4007 7.20279 11.2099 7.61354 11.1435V10.849C7.61354 9.51765 8.15695 8.30223 9.03621 7.42703C9.91548 6.54747 11.1267 6 12.4623 6C13.7937 6 15.0089 6.54747 15.8883 7.42689C16.7677 8.30209 17.3112 9.5175 17.3112 10.8489V11.272C17.7176 11.3342 18.0824 11.5292 18.3646 11.8071C18.7089 12.1554 18.9246 12.6283 18.9246 13.1552C18.9246 13.6778 18.7089 14.1548 18.3646 14.499C18.0205 14.8433 17.5434 15.059 17.0207 15.059H16.212H15.9216V14.7645V11.5416V11.2514H16.212H16.7262V10.849C16.7262 9.67933 16.2452 8.61327 15.4737 7.83764C14.7021 7.06606 13.636 6.58492 12.4623 6.58492C11.2885 6.58492 10.2225 7.06606 9.45088 7.83764C8.67525 8.61327 8.19831 9.67919 8.19831 10.849V11.1228H8.70848H9.00298V11.4173V14.6359V14.9304H8.70848H8.19831V16.2285C8.19831 16.4029 8.26885 16.5563 8.38075 16.6725C8.49266 16.7844 8.65028 16.855 8.8246 16.855H9.83667C9.87818 16.7389 9.94451 16.6351 10.0316 16.5482V16.5441C10.185 16.3905 10.4008 16.2952 10.6331 16.2952ZM12.342 16.8799H10.6331C10.5625 16.8799 10.4962 16.9132 10.4464 16.9588C10.3966 17.0085 10.3676 17.0749 10.3676 17.1495C10.3676 17.22 10.3966 17.2863 10.4464 17.3361C10.4962 17.3859 10.5625 17.4149 10.6331 17.4149H12.342C12.4166 17.4149 12.4829 17.3859 12.5327 17.3361C12.5825 17.2863 12.6115 17.22 12.6115 17.1495C12.6115 17.0747 12.5825 17.0084 12.5327 16.9588C12.483 16.9132 12.4166 16.8799 12.342 16.8799ZM17.1659 14.466C17.4688 14.4287 17.7425 14.2918 17.9498 14.0844C18.1903 13.8439 18.3398 13.5161 18.3398 13.1553C18.3398 12.7901 18.1904 12.4626 17.9498 12.2219C17.7424 12.0145 17.4688 11.8776 17.1659 11.8444V14.466ZM8.04896 11.7075V14.3456H8.41806V11.7075H8.04896ZM7.75868 14.3374V11.7158C7.4517 11.7491 7.17797 11.89 6.97477 12.0974C6.73427 12.3338 6.58492 12.6656 6.58492 13.0264C6.58492 13.3873 6.73427 13.7192 6.97477 13.9556C7.17797 14.1632 7.4517 14.3041 7.75868 14.3374Z" fill="#000054"/>
</svg>
