<svg width="21" height="21" viewBox="0 0 21 21" fill="none" xmlns="http://www.w3.org/2000/svg">
<path d="M3.84479 20.2H14.4919C16.6213 20.2 18.3367 18.4846 18.3367 16.3552V9.8486C18.3367 9.34582 17.9522 8.96134 17.4494 8.96134C16.9467 8.96134 16.5622 9.34582 16.5622 9.8486V16.3552C16.5622 17.5086 15.6453 18.4254 14.4919 18.4254H3.84479C2.69135 18.4254 1.77452 17.5086 1.77452 16.3552V5.70806C1.77452 4.55462 2.69135 3.63778 3.84479 3.63778H10.3514C10.8541 3.63778 11.2386 3.25331 11.2386 2.75053C11.2386 2.24775 10.8541 1.86327 10.3514 1.86327H3.84479C1.71537 1.86327 0 3.57863 0 5.70806V16.3552C0 18.4846 1.71537 20.2 3.84479 20.2Z" fill="#000054"/>
<path d="M20.2288 6.32912V0.916835C20.2288 0.857684 20.2288 0.798533 20.1993 0.739383C20.1993 0.709807 20.1993 0.680232 20.1697 0.680232C20.1697 0.650657 20.1401 0.621081 20.1401 0.591506C20.1401 0.561931 20.1105 0.532356 20.081 0.50278C20.081 0.473205 20.0514 0.443629 20.0514 0.443629C19.9922 0.354903 19.9035 0.266178 19.8148 0.207027L19.7556 0.177452C19.6965 0.0887258 19.6373 0.0591506 19.5782 0.0591506L19.4895 0.0295751C19.4303 0.0295751 19.3712 0 19.312 0H13.8997C13.397 0 13.0125 0.384479 13.0125 0.887259C13.0125 1.39004 13.397 1.77452 13.8997 1.77452H17.1826L9.04938 9.93731C8.69448 10.2922 8.69448 10.8541 9.04938 11.1795C9.40428 11.5344 9.96621 11.5344 10.2915 11.1795L18.4543 3.04626V6.32912C18.4543 6.8319 18.8388 7.21638 19.3416 7.21638C19.8148 7.21638 20.1993 6.80232 20.2288 6.32912Z" fill="#000054"/>
</svg>
