<svg width="24" height="24" viewBox="0 0 24 24" fill="none" xmlns="http://www.w3.org/2000/svg">
<path d="M24.0005 12.0002C24.0005 5.37274 18.6277 0 12.0002 0C5.37274 0 0 5.37274 0 12.0002C0 17.6279 3.87463 22.3502 9.10146 23.6472V15.6675H6.62701V12.0002H9.10146V10.42C9.10146 6.33564 10.95 4.44249 14.96 4.44249C15.7203 4.44249 17.0322 4.59177 17.5688 4.74057V8.06464C17.2856 8.03487 16.7936 8.01999 16.1826 8.01999C14.215 8.01999 13.4547 8.76545 13.4547 10.7032V12.0002H17.3744L16.701 15.6675H13.4547V23.9126C19.3967 23.195 24.0009 18.1357 24.0009 12.0002H24.0005Z" fill="#0866FF"/>
<path d="M16.699 15.6664L17.3724 11.9992H13.4527V10.7022C13.4527 8.76437 14.213 8.01892 16.1805 8.01892C16.7916 8.01892 17.2836 8.0338 17.5668 8.06356V4.73949C17.0302 4.59021 15.7183 4.44141 14.958 4.44141C10.948 4.44141 9.09945 6.33456 9.09945 10.419V11.9992H6.625V15.6664H9.09945V23.6461C10.0278 23.8765 10.9988 23.9994 11.9982 23.9994C12.4902 23.9994 12.9755 23.9691 13.4522 23.9115V15.6664H16.699Z" fill="white"/>
</svg>
