<svg width="64" height="32" viewBox="0 0 64 32" fill="none" xmlns="http://www.w3.org/2000/svg">
<rect width="64" height="32" rx="16" fill="#BFDFFF"/>
<path d="M24.4507 18.9082L31.4033 25.4395C31.6428 25.6644 31.7625 25.7769 31.9037 25.8046C31.9673 25.8171 32.0327 25.8171 32.0963 25.8046C32.2375 25.7769 32.3572 25.6644 32.5967 25.4395L39.5493 18.9082C41.5055 17.0706 41.743 14.0466 40.0978 11.9261L39.7885 11.5273C37.8203 8.99058 33.8696 9.41601 32.4867 12.3137C32.2913 12.723 31.7087 12.723 31.5133 12.3137C30.1304 9.41601 26.1797 8.99058 24.2115 11.5273L23.9022 11.9261C22.2569 14.0466 22.4945 17.0706 24.4507 18.9082Z" stroke="#000054"/>
</svg>
