<svg width="32" height="32" viewBox="0 0 32 32" fill="none" xmlns="http://www.w3.org/2000/svg">
<path d="M8.45067 18.9082L15.4033 25.4395C15.6428 25.6644 15.7625 25.7769 15.9037 25.8046C15.9673 25.8171 16.0327 25.8171 16.0963 25.8046C16.2375 25.7769 16.3572 25.6644 16.5967 25.4395L23.5493 18.9082C25.5055 17.0706 25.743 14.0466 24.0978 11.9261L23.7885 11.5273C21.8203 8.99058 17.8696 9.41601 16.4867 12.3137C16.2913 12.723 15.7087 12.723 15.5133 12.3137C14.1304 9.41601 10.1797 8.99058 8.21154 11.5273L7.90219 11.9261C6.25695 14.0466 6.4945 17.0706 8.45067 18.9082Z" stroke="#606060"/>
</svg>
