<svg width="20" height="18" viewBox="0 0 20 18" fill="none" xmlns="http://www.w3.org/2000/svg">
<path d="M1 7C1 6.05719 1 5.58579 1.29289 5.29289C1.58579 5 2.05719 5 3 5H17C17.9428 5 18.4142 5 18.7071 5.29289C19 5.58579 19 6.05719 19 7V8.5C19 8.96594 19 9.19891 18.9239 9.38268C18.8224 9.62771 18.6277 9.82239 18.3827 9.92388C18.1989 10 17.9659 10 17.5 10V10C17.0341 10 16.8011 10 16.6173 10.0761C16.3723 10.1776 16.1776 10.3723 16.0761 10.6173C16 10.8011 16 11.0341 16 11.5V15C16 15.9428 16 16.4142 15.7071 16.7071C15.4142 17 14.9428 17 14 17H6C5.05719 17 4.58579 17 4.29289 16.7071C4 16.4142 4 15.9428 4 15V11.5C4 11.0341 4 10.8011 3.92388 10.6173C3.82239 10.3723 3.62771 10.1776 3.38268 10.0761C3.19891 10 2.96594 10 2.5 10V10C2.03406 10 1.80109 10 1.61732 9.92388C1.37229 9.82239 1.17761 9.62771 1.07612 9.38268C1 9.19891 1 8.96594 1 8.5V7Z" stroke="#FF8000"/>
<path d="M3 10H17" stroke="#FF8000" stroke-linecap="round"/>
<path d="M10 4L10 17" stroke="#FF8000" stroke-linecap="round"/>
<path d="M10 4L9.12144 3.12144C8.05514 2.05514 6.75521 1.25174 5.3246 0.774867V0.774867C4.18099 0.393664 3 1.24487 3 2.45035V2.63246C3 3.44914 3.52259 4.1742 4.29737 4.43246L6 5" stroke="#FF8000" stroke-linecap="round"/>
<path d="M10 4L10.8786 3.12144C11.9449 2.05514 13.2448 1.25174 14.6754 0.774867V0.774867C15.819 0.393664 17 1.24487 17 2.45035V2.63246C17 3.44914 16.4774 4.1742 15.7026 4.43246L14 5" stroke="#FF8000" stroke-linecap="round"/>
</svg>
