<svg width="64" height="32" viewBox="0 0 64 32" fill="none" xmlns="http://www.w3.org/2000/svg">
<rect width="64" height="32" rx="16" fill="#BFDFFF"/>
<path d="M23 15.7308C23 14.0388 23 13.1927 23.342 12.4491C23.6841 11.7054 24.3264 11.1549 25.6111 10.0537L26.8573 8.98552C29.1794 6.99517 30.3404 6 31.7234 6C33.1064 6 34.2674 6.99517 36.5895 8.98552L37.8357 10.0537C39.1204 11.1549 39.7627 11.7054 40.1048 12.4491C40.4468 13.1927 40.4468 14.0388 40.4468 15.7308V21.0152C40.4468 23.365 40.4468 24.54 39.7168 25.27C38.9868 26 37.8119 26 35.462 26H27.9848C25.6349 26 24.46 26 23.73 25.27C23 24.54 23 23.365 23 21.0152V15.7308Z" stroke="#000054"/>
<path d="M34.8404 25.9999V19.5227C34.8404 18.9704 34.3927 18.5227 33.8404 18.5227H29.6094C29.0571 18.5227 28.6094 18.9704 28.6094 19.5227V25.9999" stroke="#000054" stroke-linecap="round" stroke-linejoin="round"/>
</svg>
