<svg width="32" height="32" viewBox="0 0 32 32" fill="none" xmlns="http://www.w3.org/2000/svg">
<path d="M7 15.7308C7 14.0388 7 13.1927 7.34203 12.4491C7.68407 11.7054 8.32641 11.1549 9.61111 10.0537L10.8573 8.98552C13.1794 6.99517 14.3404 6 15.7234 6C17.1064 6 18.2674 6.99517 20.5895 8.98552L21.8357 10.0537C23.1204 11.1549 23.7627 11.7054 24.1048 12.4491C24.4468 13.1927 24.4468 14.0388 24.4468 15.7308V21.0152C24.4468 23.365 24.4468 24.54 23.7168 25.27C22.9868 26 21.8119 26 19.462 26H11.9848C9.63495 26 8.46002 26 7.73001 25.27C7 24.54 7 23.365 7 21.0152V15.7308Z" stroke="#606060"/>
<path d="M18.8404 25.9999V19.5227C18.8404 18.9704 18.3927 18.5227 17.8404 18.5227H13.6094C13.0571 18.5227 12.6094 18.9704 12.6094 19.5227V25.9999" stroke="#606060" stroke-linecap="round" stroke-linejoin="round"/>
</svg>
