<svg width="24" height="24" viewBox="0 0 24 24" fill="none" xmlns="http://www.w3.org/2000/svg">
<rect width="24" height="24" rx="12" fill="#BFDFFF"/>
<path d="M16.3409 8.25H13.776V7.84416C13.776 7.37338 13.4026 7 12.9318 7H10.9513C10.4805 7 10.1071 7.37338 10.1071 7.84416V8.25H7.54221C6.71429 8.25 6 8.93182 6 9.48377V9.90584V11.5779V15.1494C6 16.237 6.63312 17 7.54221 17H16.3247C17.2338 17 17.8669 16.237 17.8669 15.1494V11.5779V9.90584V9.48377C17.8831 8.93182 17.1688 8.25 16.3409 8.25ZM10.5779 7.84416C10.5779 7.63312 10.7565 7.45455 10.9675 7.45455H12.9318C13.1429 7.45455 13.3214 7.63312 13.3214 7.84416V8.25H10.5779V7.84416ZM6.47078 9.48377C6.47078 9.22403 6.94156 8.70455 7.55844 8.70455H16.3409C16.9578 8.70455 17.4286 9.22403 17.4286 9.48377V9.90584V11.5779C17.4286 11.8377 17.2175 12.0649 16.9416 12.0649H12.6234V11.8052C12.6234 11.5455 12.4286 11.3344 12.1851 11.2857C12.1688 11.2857 12.1526 11.2857 12.1364 11.2857H12.1039C12.0877 11.2857 12.0714 11.2857 12.0552 11.2857C11.8117 11.3182 11.6169 11.5455 11.6169 11.8052V12.0649C11.6006 12.0649 11.6006 12.0649 11.5844 12.0649H6.94156C6.68182 12.0649 6.45455 11.8539 6.45455 11.5779V9.90584V9.48377H6.47078ZM12.3149 11.8052V12.7143C12.3149 12.8279 12.2338 12.9091 12.1201 12.9253C12.0065 12.9091 11.9253 12.8279 11.9253 12.7143V11.8052C11.9253 11.6916 12.0065 11.6104 12.1201 11.5942C12.2175 11.6104 12.3149 11.7078 12.3149 11.8052ZM16.3409 16.5455H7.54221C6.89286 16.5455 6.45455 15.9935 6.45455 15.1494V12.3896C6.60065 12.4708 6.76299 12.5195 6.94156 12.5195H11.5844C11.6006 12.5195 11.6006 12.5195 11.6169 12.5195V12.7143C11.6169 12.974 11.8117 13.1851 12.0552 13.2338C12.0714 13.2338 12.0877 13.2338 12.1039 13.2338H12.1364C12.1526 13.2338 12.1688 13.2338 12.1851 13.2338C12.4286 13.2013 12.6234 12.974 12.6234 12.7143V12.5357H16.9416C17.1201 12.5357 17.2825 12.487 17.4286 12.4058V15.1656C17.4123 15.9773 16.9903 16.5455 16.3409 16.5455Z" fill="#000054" stroke="#000054" stroke-width="0.2"/>
</svg>
