<svg width="32" height="32" viewBox="0 0 32 32" fill="none" xmlns="http://www.w3.org/2000/svg">
<path d="M23.5795 9.125H19.2192V8.43506C19.2192 7.63474 18.5844 7 17.7841 7H14.4172C13.6169 7 12.9821 7.63474 12.9821 8.43506V9.125H8.62175C7.21429 9.125 6 10.2841 6 11.2224V11.9399V14.7825V20.8539C6 22.7029 7.0763 24 8.62175 24H23.5519C25.0974 24 26.1737 22.7029 26.1737 20.8539V14.7825V11.9399V11.2224C26.2013 10.2841 24.987 9.125 23.5795 9.125ZM13.7825 8.43506C13.7825 8.0763 14.086 7.77273 14.4448 7.77273H17.7841C18.1429 7.77273 18.4464 8.0763 18.4464 8.43506V9.125H13.7825V8.43506ZM6.80032 11.2224C6.80032 10.7808 7.60065 9.89773 8.64935 9.89773H23.5795C24.6282 9.89773 25.4286 10.7808 25.4286 11.2224V11.9399V14.7825C25.4286 15.224 25.0698 15.6104 24.6007 15.6104H17.2597V15.1688C17.2597 14.7273 16.9286 14.3685 16.5146 14.2857C16.487 14.2857 16.4594 14.2857 16.4318 14.2857H16.3766C16.349 14.2857 16.3214 14.2857 16.2938 14.2857C15.8799 14.3409 15.5487 14.7273 15.5487 15.1688V15.6104C15.5211 15.6104 15.5211 15.6104 15.4935 15.6104H7.60065C7.15909 15.6104 6.77273 15.2516 6.77273 14.7825V11.9399V11.2224H6.80032ZM16.7354 15.1688V16.7143C16.7354 16.9075 16.5974 17.0455 16.4042 17.0731C16.211 17.0455 16.0731 16.9075 16.0731 16.7143V15.1688C16.0731 14.9756 16.211 14.8377 16.4042 14.8101C16.5698 14.8377 16.7354 15.0032 16.7354 15.1688ZM23.5795 23.2273H8.62175C7.51786 23.2273 6.77273 22.289 6.77273 20.8539V16.1623C7.0211 16.3003 7.29708 16.3831 7.60065 16.3831H15.4935C15.5211 16.3831 15.5211 16.3831 15.5487 16.3831V16.7143C15.5487 17.1558 15.8799 17.5146 16.2938 17.5974C16.3214 17.5974 16.349 17.5974 16.3766 17.5974H16.4318C16.4594 17.5974 16.487 17.5974 16.5146 17.5974C16.9286 17.5422 17.2597 17.1558 17.2597 16.7143V16.4107H24.6007C24.9042 16.4107 25.1802 16.3279 25.4286 16.1899V20.8815C25.401 22.2614 24.6834 23.2273 23.5795 23.2273Z" fill="#606060"/>
</svg>
