<svg width="20" height="18" viewBox="0 0 20 18" fill="none" xmlns="http://www.w3.org/2000/svg">
<path d="M1 9L0.609566 8.68765L0.359688 9L0.609566 9.31235L1 9ZM9.1 9.5C9.37614 9.5 9.6 9.27614 9.6 9C9.6 8.72386 9.37614 8.5 9.1 8.5V9.5ZM4.20957 4.18765L0.609566 8.68765L1.39043 9.31235L4.99043 4.81235L4.20957 4.18765ZM0.609566 9.31235L4.20957 13.8123L4.99043 13.1877L1.39043 8.68765L0.609566 9.31235ZM1 9.5H9.1V8.5H1V9.5Z" fill="#000054"/>
<path d="M8.19922 5.51874V5.18851C8.19922 3.57017 8.19922 2.761 8.67318 2.2015C9.14714 1.64201 9.9453 1.50899 11.5416 1.24293L12.0128 1.1644C15.2559 0.623883 16.8775 0.353625 17.9383 1.25232C18.9992 2.15102 18.9992 3.79493 18.9992 7.08276V10.9172C18.9992 14.2051 18.9992 15.849 17.9383 16.7477C16.8775 17.6464 15.2559 17.3761 12.0128 16.8356L11.5416 16.7571C9.9453 16.491 9.14714 16.358 8.67318 15.7985C8.19922 15.239 8.19922 14.4298 8.19922 12.8115V12.6594" stroke="#000054"/>
</svg>
