<svg width="32" height="32" viewBox="0 0 32 32" fill="none" xmlns="http://www.w3.org/2000/svg">
<path d="M21.7378 13.5001C21.7479 13.4367 21.7556 13.3802 21.7662 13.3243C21.8359 12.9544 22.0715 12.705 22.4263 12.6784C22.7092 12.6571 22.9963 12.667 23.2795 12.6909C23.4976 12.7094 23.6833 12.8312 23.8379 12.9948C24.139 13.3135 24.4387 13.6337 24.7373 13.9549C24.947 14.1804 25.0431 14.4559 25.0421 14.7681C25.0413 15.0019 25.049 15.2378 25.0224 15.469C24.9815 15.8241 24.7074 16.0831 24.3676 16.1224C24.3316 16.1266 24.296 16.1348 24.277 16.1381C24.418 16.4949 24.5737 16.8419 24.6936 17.202C24.9556 17.9887 25.0858 18.8027 25.0378 19.6364C24.9674 20.8602 24.6232 21.9941 23.9748 23.0214C23.4366 23.8743 22.7498 24.5639 21.9105 25.0786C21.1902 25.5202 20.4117 25.7984 19.5842 25.9254C19.1564 25.9911 18.7288 26.0207 18.2974 25.9842C17.3434 25.9036 16.4435 25.6327 15.6082 25.1379C15.5454 25.1006 15.5007 25.1024 15.4393 25.1385C14.6059 25.6296 13.7095 25.9029 12.7586 25.9816C11.8087 26.0601 10.8969 25.8779 10.0141 25.5195C8.69271 24.9832 7.68349 24.0556 6.938 22.799C6.37409 21.8486 6.08294 20.8054 6.01273 19.6969C5.94864 18.6852 6.12884 17.7082 6.50098 16.7744C7.00414 15.5117 7.81182 14.5119 8.89757 13.7563C9.91182 13.0505 11.0372 12.7129 12.2423 12.6778C13.2058 12.6497 14.1288 12.8717 15.0052 13.2962C15.1567 13.3696 15.3051 13.4507 15.4506 13.5365C15.5077 13.5702 15.5483 13.5667 15.6029 13.5344C16.3763 13.0771 17.206 12.8034 18.0882 12.707C19.2909 12.5755 20.4277 12.8227 21.5101 13.3741C21.5842 13.4119 21.6559 13.4547 21.7378 13.5001ZM13.9243 14.969C13.2029 14.6811 12.4669 14.6117 11.7179 14.7186C10.6966 14.8643 9.82322 15.3366 9.12174 16.127C7.51912 17.9328 7.55082 20.5275 8.88966 22.2685C10.261 24.0517 12.442 24.317 13.9176 23.6982C12.8942 22.4413 12.3545 20.9844 12.3545 19.3383C12.3545 17.6915 12.8885 16.2334 13.9243 14.969ZM17.1331 14.9784C18.1553 16.2304 18.6915 17.6842 18.6923 19.3265C18.693 20.9708 18.1662 22.4309 17.1358 23.6997C17.7579 23.9639 18.3962 24.0369 19.046 23.9848C20.1308 23.8979 21.065 23.4452 21.8377 22.6412C23.4417 20.9725 23.5841 18.2697 22.1718 16.4184C20.7203 14.5156 18.4463 14.4016 17.1331 14.9784ZM15.992 23.0393C16.1536 23.1509 16.3048 23.2522 16.4524 23.3588C16.5166 23.4051 16.5571 23.3964 16.6085 23.3343C17.7365 21.973 18.202 20.3921 18.0149 18.6034C17.8949 17.4561 17.4869 16.4205 16.7761 15.5431C15.306 13.7286 13.4233 13.0194 11.2042 13.4646C9.37642 13.8314 8.04641 14.9601 7.2111 16.7086C6.71945 17.7377 6.55788 18.8358 6.67081 19.9786C6.76211 20.9024 7.03616 21.7625 7.5272 22.537C8.55991 24.1658 9.99239 25.1169 11.8596 25.3019C12.8858 25.4036 13.8707 25.2241 14.8045 24.7575C14.8455 24.7371 14.8838 24.7108 14.929 24.6838C14.7724 24.5457 14.6194 24.4192 14.4768 24.2809C14.4112 24.2174 14.3589 24.2132 14.28 24.2476C13.6407 24.5259 12.9737 24.6766 12.2817 24.665C11.3683 24.6498 10.5181 24.3769 9.73045 23.8977C9.11506 23.5234 8.61318 23.012 8.21313 22.3981C7.45384 21.2329 7.12509 19.955 7.33994 18.5437C7.5575 17.1147 8.22172 15.9617 9.30678 15.0802C10.0762 14.4551 10.9638 14.1305 11.927 14.0349C12.9099 13.9374 13.8378 14.1618 14.7098 14.6287C15.3724 14.9835 15.9288 15.481 16.3727 16.1132C17.1732 17.2533 17.53 18.5234 17.3776 19.9363C17.2617 21.0114 16.8586 21.962 16.2024 22.7948C16.1397 22.8743 16.0706 22.9483 15.992 23.0393ZM22.7415 16.1302C22.76 16.1645 22.7653 16.175 22.7712 16.1852C22.9335 16.4651 23.1215 16.7323 23.2535 17.0272C23.6874 17.996 23.8613 19.0116 23.708 20.0822C23.5952 20.8699 23.338 21.6003 22.9266 22.2636C22.4822 22.9802 21.8993 23.5515 21.1829 23.9684C20.3981 24.4252 19.5581 24.6644 18.662 24.6698C18.0235 24.6736 17.41 24.5265 16.8158 24.284C15.5509 23.768 14.6823 22.8138 14.1015 21.5533C13.8075 20.9153 13.6525 20.2318 13.618 19.5232C13.5826 18.7952 13.7123 18.0928 13.9586 17.4141C14.1924 16.77 14.5596 16.214 15.0013 15.7096C15.0421 15.663 15.054 15.6343 14.9985 15.5963C14.8508 15.4951 14.7055 15.39 14.5549 15.2939C14.5346 15.281 14.4751 15.2994 14.4582 15.3228C14.2376 15.6282 13.9978 15.922 13.8084 16.2479C13.0881 17.4879 12.8552 18.8398 13.0593 20.2681C13.2586 21.6623 13.8704 22.8387 14.8635 23.7857C15.7426 24.624 16.7763 25.1268 17.9582 25.2828C18.5836 25.3653 19.2086 25.3631 19.8247 25.2188C21.9049 24.7317 23.3287 23.4351 24.0827 21.345C24.4369 20.363 24.489 19.3408 24.3308 18.3081C24.2143 17.5476 23.9306 16.8507 23.5618 16.1898C23.5471 16.1634 23.512 16.1333 23.4859 16.1328C23.2448 16.1284 23.0036 16.1302 22.7415 16.1302ZM15.5259 22.5788C17.2662 20.8106 17.1671 17.7193 15.525 16.0905C13.7789 17.8747 13.8813 20.9377 15.5259 22.5788ZM21.7498 15.0748C21.7498 14.8376 21.7422 14.6195 21.753 14.4024C21.7584 14.2941 21.7201 14.2396 21.6364 14.1898C20.8597 13.7277 20.0424 13.4095 19.1393 13.3613C18.5048 13.3274 17.878 13.3523 17.2607 13.5235C16.8629 13.6338 16.4803 13.7843 16.1107 13.9838C16.2627 14.1169 16.4155 14.2386 16.5537 14.3766C16.6312 14.454 16.6918 14.4597 16.7881 14.4184C17.6453 14.0511 18.5319 13.9133 19.4512 14.0711C20.2663 14.2109 21.0201 14.5109 21.6849 15.0364C21.7007 15.0489 21.7197 15.0572 21.7498 15.0748ZM22.3703 15.4566C22.4205 15.4566 22.454 15.4565 22.4875 15.4566C23.0817 15.4572 23.6759 15.4577 24.2701 15.4586C24.3957 15.4587 24.4086 15.4501 24.4104 15.3161C24.4132 15.1049 24.4187 14.8931 24.4062 14.6827C24.4013 14.6012 24.3697 14.5033 24.3173 14.4461C24.0022 14.1018 23.68 13.7644 23.3533 13.4321C23.3056 13.3835 23.2227 13.3539 23.1544 13.3504C22.9507 13.3399 22.7462 13.3454 22.542 13.3473C22.3947 13.3486 22.3835 13.3543 22.3809 13.5126C22.3738 13.948 22.3729 14.3834 22.3705 14.8188C22.3694 15.0265 22.3703 15.2342 22.3703 15.4566Z" fill="#606060"/>
<path d="M15.5658 6.7891C15.7641 6.56321 16.0298 6.34876 16.3467 6.20158C17.1974 5.80646 18.3504 5.98706 18.9418 6.91872C19.4693 7.74993 19.4495 8.59968 18.9727 9.44707C18.7305 9.87734 18.3951 10.2382 18.0391 10.5817C17.3186 11.2771 16.5466 11.9176 15.7709 12.5539C15.5908 12.7016 15.4639 12.7062 15.2856 12.556C14.7016 12.0642 14.1142 11.5756 13.5453 11.0678C13.1873 10.7481 12.8462 10.4082 12.5225 10.056C12.1252 9.62392 11.8608 9.12248 11.7499 8.54569C11.5584 7.55039 12.1701 6.44175 13.1447 6.11871C13.9209 5.86142 14.6312 6.03055 15.2531 6.54665C15.3527 6.62932 15.4579 6.70571 15.5658 6.7891ZM18.6335 8.05504C18.6322 7.87556 18.567 7.61925 18.4374 7.37833C18.1891 6.91649 17.6427 6.59094 17.073 6.68261C16.5292 6.77012 16.1229 7.04674 15.8564 7.51151C15.7832 7.63919 15.6912 7.73568 15.5309 7.73842C15.3689 7.74119 15.2723 7.64491 15.2024 7.51698C15.0079 7.16153 14.7051 6.92429 14.3259 6.77216C13.781 6.55353 13.2404 6.66706 12.8417 7.08424C12.4466 7.49753 12.3553 7.99406 12.4434 8.52835C12.5172 8.97619 12.7668 9.34373 13.0695 9.67837C13.795 10.4806 14.6712 11.128 15.4737 11.8512C15.5235 11.8961 15.5502 11.8751 15.59 11.8404C15.845 11.618 16.1044 11.4002 16.3582 11.1766C16.8283 10.7622 17.3075 10.3565 17.7589 9.9238C17.9811 9.71076 18.1647 9.45516 18.3387 9.20151C18.5552 8.88578 18.654 8.52893 18.6335 8.05504Z" fill="#606060"/>
</svg>
