<svg width="24" height="24" viewBox="0 0 24 24" fill="none" xmlns="http://www.w3.org/2000/svg">
<rect width="24" height="24" rx="12" fill="#BFDFFF"/>
<path d="M15.9196 10.4987C15.926 10.4606 15.9309 10.4267 15.9375 10.3932C15.9815 10.1712 16.1299 10.0215 16.3536 10.0055C16.5319 9.9928 16.7129 9.9987 16.8914 10.0131C17.0289 10.0241 17.1459 10.0972 17.2434 10.1954C17.4331 10.3867 17.622 10.5788 17.8102 10.7716C17.9424 10.907 18.003 11.0723 18.0023 11.2596C18.0018 11.3999 18.0067 11.5415 17.9899 11.6802C17.9642 11.8934 17.7914 12.0488 17.5772 12.0724C17.5545 12.0749 17.5321 12.0798 17.5201 12.0818C17.609 12.2959 17.7071 12.5041 17.7827 12.7202C17.9478 13.1924 18.0299 13.6808 17.9997 14.1811C17.9553 14.9156 17.7383 15.596 17.3296 16.2126C16.9904 16.7244 16.5575 17.1382 16.0285 17.4471C15.5745 17.7121 15.0838 17.879 14.5622 17.9553C14.2925 17.9947 14.0231 18.0125 13.7511 17.9906C13.1498 17.9422 12.5826 17.7796 12.0561 17.4827C12.0165 17.4603 11.9883 17.4614 11.9497 17.4831C11.4244 17.7777 10.8593 17.9418 10.26 17.989C9.66127 18.0361 9.08656 17.9268 8.53009 17.7117C7.69723 17.3898 7.06112 16.8332 6.59122 16.0791C6.23579 15.5087 6.05228 14.8827 6.00802 14.2175C5.96763 13.6103 6.08121 13.024 6.31577 12.4636C6.63292 11.7059 7.142 11.1059 7.82636 10.6524C8.46565 10.2289 9.17499 10.0263 9.93454 10.0052C10.5419 9.98837 11.1236 10.1216 11.676 10.3763C11.7715 10.4204 11.8651 10.469 11.9567 10.5205C11.9928 10.5408 12.0183 10.5386 12.0528 10.5193C12.5403 10.2449 13.0632 10.0806 13.6192 10.0227C14.3773 9.94379 15.0939 10.0922 15.7761 10.4231C15.8228 10.4457 15.868 10.4714 15.9196 10.4987ZM10.9947 11.3802C10.54 11.2074 10.0761 11.1658 9.60401 11.2299C8.96028 11.3173 8.4098 11.6008 7.96765 12.0751C6.95751 13.1588 6.97749 14.7159 7.82137 15.7607C8.68574 16.8308 10.0604 16.99 10.9905 16.6187C10.3455 15.8644 10.0053 14.9901 10.0053 14.0023C10.0053 13.014 10.3419 12.139 10.9947 11.3802ZM13.0172 11.3859C13.6616 12.1372 13.9995 13.0096 14 13.9952C14.0005 14.9819 13.6684 15.8582 13.0189 16.6196C13.4111 16.7781 13.8134 16.822 14.223 16.7907C14.9067 16.7385 15.4956 16.4669 15.9826 15.9844C16.9936 14.983 17.0834 13.361 16.1932 12.25C15.2783 11.1081 13.845 11.0397 13.0172 11.3859ZM12.298 16.2233C12.3999 16.2903 12.4952 16.351 12.5882 16.415C12.6287 16.4428 12.6542 16.4376 12.6866 16.4003C13.3976 15.5834 13.691 14.6347 13.5731 13.5612C13.4975 12.8728 13.2403 12.2513 12.7922 11.7247C11.8656 10.6358 10.6789 10.2102 9.28027 10.4774C8.12818 10.6975 7.28987 11.3749 6.76337 12.4241C6.45347 13.0417 6.35163 13.7007 6.42282 14.3865C6.48036 14.9409 6.6531 15.457 6.96261 15.9218C7.61353 16.8993 8.51643 17.4701 9.69334 17.5811C10.3401 17.6421 10.961 17.5344 11.5495 17.2544C11.5754 17.2421 11.5995 17.2264 11.628 17.2102C11.5293 17.1273 11.4329 17.0514 11.3429 16.9684C11.3016 16.9303 11.2687 16.9278 11.219 16.9484C10.816 17.1154 10.3956 17.2058 9.9594 17.1989C9.38368 17.1898 8.84779 17.026 8.35132 16.7385C7.96344 16.5138 7.64711 16.2069 7.39495 15.8385C6.91637 15.1392 6.70915 14.3724 6.84458 13.5254C6.9817 12.6679 7.40036 11.9759 8.08428 11.4469C8.56926 11.0718 9.12874 10.877 9.7358 10.8196C10.3554 10.7611 10.9402 10.8958 11.4899 11.176C11.9075 11.3889 12.2582 11.6875 12.538 12.0669C13.0425 12.751 13.2674 13.5132 13.1714 14.3611C13.0983 15.0063 12.8442 15.5768 12.4306 16.0765C12.3911 16.1243 12.3476 16.1686 12.298 16.2233ZM16.5523 12.077C16.5639 12.0976 16.5673 12.1039 16.571 12.11C16.6733 12.278 16.7918 12.4384 16.875 12.6153C17.1485 13.1968 17.2581 13.8062 17.1615 14.4487C17.0904 14.9214 16.9283 15.3597 16.669 15.7578C16.3888 16.1878 16.0215 16.5307 15.5699 16.7809C15.0752 17.055 14.5457 17.1985 13.981 17.2018C13.5785 17.2041 13.1918 17.1158 12.8173 16.9703C12.02 16.6606 11.4725 16.088 11.1064 15.3315C10.9211 14.9486 10.8234 14.5385 10.8017 14.1132C10.7794 13.6763 10.8611 13.2548 11.0164 12.8475C11.1637 12.461 11.3951 12.1273 11.6736 11.8246C11.6993 11.7967 11.7068 11.7794 11.6718 11.7566C11.5787 11.6959 11.4871 11.6328 11.3922 11.5751C11.3794 11.5674 11.3419 11.5785 11.3313 11.5925C11.1922 11.7758 11.0411 11.9521 10.9217 12.1477C10.4677 12.8918 10.3209 13.7031 10.4495 14.5602C10.5751 15.3969 10.9607 16.1029 11.5867 16.6712C12.1408 17.1743 12.7924 17.476 13.5374 17.5696C13.9315 17.6192 14.3255 17.6178 14.7138 17.5313C16.0249 17.2389 16.9224 16.4608 17.3976 15.2065C17.6209 14.6172 17.6537 14.0038 17.554 13.384C17.4806 12.9277 17.3018 12.5094 17.0693 12.1128C17.0601 12.097 17.0379 12.0789 17.0215 12.0786C16.8695 12.076 16.7175 12.077 16.5523 12.077ZM12.0042 15.9469C13.1012 14.8858 13.0387 13.0306 12.0037 12.0532C10.9031 13.1239 10.9676 14.9621 12.0042 15.9469ZM15.9272 11.4437C15.9272 11.3013 15.9224 11.1704 15.9292 11.0402C15.9326 10.9752 15.9085 10.9425 15.8557 10.9126C15.3662 10.6352 14.851 10.4443 14.2818 10.4154C13.8819 10.395 13.4868 10.41 13.0977 10.5127C12.847 10.5789 12.6058 10.6692 12.3729 10.789C12.4686 10.8688 12.565 10.9419 12.6521 11.0247C12.7009 11.0711 12.7391 11.0745 12.7998 11.0498C13.3401 10.8293 13.8989 10.7467 14.4784 10.8413C14.9922 10.9252 15.4673 11.1053 15.8863 11.4206C15.8963 11.4282 15.9082 11.4331 15.9272 11.4437ZM16.3183 11.6728C16.35 11.6728 16.3711 11.6728 16.3922 11.6728C16.7667 11.6732 17.1412 11.6735 17.5158 11.674C17.5949 11.6741 17.6031 11.6689 17.6042 11.5885C17.606 11.4618 17.6094 11.3346 17.6015 11.2084C17.5985 11.1595 17.5785 11.1007 17.5455 11.0664C17.3469 10.8598 17.1438 10.6573 16.9379 10.4579C16.9078 10.4287 16.8555 10.4109 16.8125 10.4088C16.6841 10.4025 16.5552 10.4059 16.4266 10.407C16.3337 10.4078 16.3266 10.4112 16.325 10.5062C16.3205 10.7674 16.32 11.0288 16.3185 11.29C16.3177 11.4147 16.3183 11.5394 16.3183 11.6728Z" fill="#000054" stroke="#000054" stroke-width="0.1"/>
<path d="M12.0273 6.47362C12.1421 6.33804 12.296 6.20933 12.4795 6.12099C12.9723 5.88383 13.6401 5.99223 13.9826 6.55142C14.2881 7.05032 14.2767 7.56035 14.0005 8.06896C13.8602 8.32721 13.6659 8.54381 13.4598 8.74999C13.0425 9.16734 12.5953 9.55178 12.1461 9.9337C12.0418 10.0224 11.9683 10.0251 11.865 9.93497C11.5268 9.63978 11.1865 9.3465 10.8571 9.0417C10.6497 8.84986 10.4522 8.64581 10.2646 8.43445C10.0345 8.1751 9.88142 7.87414 9.81716 7.52794C9.70627 6.93055 10.0605 6.26514 10.625 6.07125C11.0746 5.91682 11.486 6.01834 11.8462 6.3281C11.9038 6.37772 11.9648 6.42357 12.0273 6.47362ZM13.804 7.23345C13.8033 7.12572 13.7655 6.97189 13.6905 6.82728C13.5467 6.55008 13.2302 6.35469 12.9002 6.40971C12.5853 6.46223 12.3499 6.62826 12.1956 6.90722C12.1532 6.98386 12.0999 7.04177 12.0071 7.04341C11.9132 7.04508 11.8573 6.98729 11.8168 6.9105C11.7042 6.69716 11.5288 6.55476 11.3092 6.46345C10.9936 6.33224 10.6805 6.40038 10.4495 6.65077C10.2207 6.89883 10.1678 7.19685 10.2188 7.51753C10.2616 7.78633 10.4062 8.00693 10.5814 8.20779C11.0016 8.68929 11.5091 9.07788 11.9739 9.51195C12.0027 9.53886 12.0182 9.52626 12.0413 9.50543C12.189 9.37196 12.3392 9.24127 12.4862 9.10702C12.7585 8.85833 13.036 8.6148 13.2975 8.3551C13.4262 8.22723 13.5325 8.07381 13.6333 7.92157C13.7587 7.73207 13.8159 7.51788 13.804 7.23345Z" fill="#000054" stroke="#000054" stroke-width="0.1"/>
</svg>
