<svg width="18" height="14" viewBox="0 0 18 14" fill="none" xmlns="http://www.w3.org/2000/svg">
<path d="M17.5263 6.31579H0.473684C0.212211 6.31579 0 6.528 0 6.78947C0 7.05095 0.212211 7.26316 0.473684 7.26316H17.5263C17.7878 7.26316 18 7.05095 18 6.78947C18 6.528 17.7878 6.31579 17.5263 6.31579ZM0.473684 0.947368H17.5263C17.7878 0.947368 18 0.735158 18 0.473684C18 0.212211 17.7878 0 17.5263 0H0.473684C0.212211 0 0 0.212211 0 0.473684C0 0.735158 0.212211 0.947368 0.473684 0.947368ZM17.5263 12.6316H0.473684C0.212211 12.6316 0 12.8438 0 13.1053C0 13.3667 0.212211 13.5789 0.473684 13.5789H17.5263C17.7878 13.5789 18 13.3667 18 13.1053C18 12.8438 17.7878 12.6316 17.5263 12.6316Z" fill="#000054"/>
</svg>
