<svg width="24" height="24" viewBox="0 0 24 24" fill="none" xmlns="http://www.w3.org/2000/svg">
<path d="M20.3143 15.5884V13.4671C20.3141 13.128 20.1874 12.8011 19.9591 12.5504C19.7307 12.2997 19.4171 12.1432 19.0794 12.1115C18.7418 12.0797 18.4045 12.175 18.1334 12.3788C17.8623 12.5825 17.677 12.88 17.6136 13.2131L17.1446 12.8008C16.8808 12.5698 16.5421 12.4425 16.1914 12.4425C15.8408 12.4425 15.5021 12.5698 15.2383 12.8008L11.5207 16.0705C11.4384 16.1445 11.3879 16.2474 11.38 16.3578C11.3721 16.4682 11.4073 16.5773 11.4782 16.6623C11.5491 16.7472 11.6503 16.8013 11.7603 16.8132C11.8703 16.8251 11.9806 16.7938 12.0681 16.726V19.7704C12.0684 20.0964 12.198 20.409 12.4286 20.6396C12.6591 20.8701 12.9717 20.9998 13.2977 21.0001H19.0857C19.2473 21.0001 19.4072 20.9684 19.5564 20.9065C19.7057 20.8447 19.8412 20.7541 19.9554 20.6398C20.0696 20.5256 20.1601 20.3899 20.2217 20.2406C20.2834 20.0913 20.3151 19.9313 20.3148 19.7698V16.726C20.4017 16.7987 20.514 16.8339 20.6269 16.8239C20.7398 16.8139 20.8441 16.7594 20.9168 16.6725C20.9895 16.5856 21.0247 16.4733 21.0147 16.3604C21.0047 16.2475 20.9502 16.1433 20.8633 16.0705L20.3143 15.5884ZM18.4457 13.4671C18.4501 13.336 18.5053 13.2118 18.5996 13.1206C18.6939 13.0294 18.8199 12.9785 18.951 12.9785C19.0822 12.9785 19.2082 13.0294 19.3025 13.1206C19.3968 13.2118 19.4519 13.336 19.4563 13.4671V14.834L18.4457 13.9446V13.4671ZM16.9444 20.1421H15.5117V19.1441C15.5118 18.9758 15.5788 18.8144 15.6978 18.6954C15.8168 18.5764 15.9782 18.5094 16.1465 18.5093H16.3095C16.4779 18.5094 16.6393 18.5764 16.7583 18.6954C16.8773 18.8144 16.9442 18.9758 16.9444 19.1441V20.1421ZM19.3465 20.0335C19.3121 20.068 19.2712 20.0955 19.2262 20.1141C19.1811 20.1328 19.1328 20.1423 19.084 20.1421H17.8023V19.1441C17.8018 18.7484 17.6444 18.3689 17.3646 18.0891C17.0847 17.8092 16.7053 17.6518 16.3095 17.6514H16.1465C15.7508 17.6518 15.3714 17.8092 15.0915 18.0891C14.8117 18.3689 14.6542 18.7484 14.6538 19.1441V20.1421H13.2966C13.198 20.142 13.1036 20.1028 13.0339 20.0331C12.9642 19.9634 12.925 19.8689 12.9248 19.7704V15.9773L15.8051 13.4453C15.9119 13.3515 16.0493 13.2998 16.1914 13.2998C16.3336 13.2998 16.4709 13.3515 16.5778 13.4453L19.4563 15.9762V19.7704C19.4566 19.8192 19.4472 19.8676 19.4287 19.9128C19.4101 19.9579 19.3828 19.999 19.3482 20.0335H19.3465Z" fill="#121212"/>
<path d="M16.191 14.3379C15.94 14.3379 15.6946 14.4123 15.4859 14.5518C15.2772 14.6912 15.1145 14.8894 15.0185 15.1213C14.9224 15.3532 14.8973 15.6084 14.9463 15.8546C14.9952 16.1008 15.1161 16.3269 15.2936 16.5044C15.4711 16.6819 15.6972 16.8028 15.9434 16.8518C16.1896 16.9007 16.4448 16.8756 16.6767 16.7795C16.9086 16.6835 17.1068 16.5208 17.2462 16.3121C17.3857 16.1034 17.4601 15.858 17.4601 15.607C17.4598 15.2705 17.326 14.9479 17.0881 14.7099C16.8501 14.472 16.5275 14.3382 16.191 14.3379ZM16.191 16.0177C16.1096 16.0177 16.0301 15.9935 15.9625 15.9483C15.8948 15.9031 15.8421 15.8389 15.811 15.7637C15.7799 15.6885 15.7718 15.6058 15.7877 15.526C15.8036 15.4462 15.8429 15.373 15.9004 15.3155C15.958 15.258 16.0313 15.2189 16.1111 15.2031C16.1909 15.1873 16.2736 15.1955 16.3488 15.2267C16.4239 15.2579 16.4881 15.3107 16.5332 15.3784C16.5783 15.4461 16.6023 15.5257 16.6022 15.607C16.6021 15.716 16.5587 15.8204 16.4816 15.8974C16.4045 15.9744 16.3 16.0177 16.191 16.0177Z" fill="#121212"/>
<path d="M8.31158 20.9869H10.3849C10.4986 20.9869 10.6077 20.9417 10.6882 20.8612C10.7686 20.7808 10.8138 20.6717 10.8138 20.5579C10.8138 20.4441 10.7686 20.335 10.6882 20.2546C10.6077 20.1742 10.4986 20.129 10.3849 20.129H8.31158C7.131 20.127 5.99933 19.6571 5.16453 18.8223C4.32973 17.9875 3.85987 16.8559 3.85791 15.6753V8.31158C3.85987 7.131 4.32973 5.99933 5.16453 5.16453C5.99933 4.32973 7.131 3.85987 8.31158 3.85791H15.6947C16.8754 3.85972 18.0072 4.32951 18.8422 5.16433C19.6771 5.99915 20.147 7.1309 20.149 8.31158V10.6565C20.149 10.7703 20.1942 10.8794 20.2746 10.9598C20.3551 11.0403 20.4642 11.0855 20.5779 11.0855C20.6917 11.0855 20.8008 11.0403 20.8812 10.9598C20.9617 10.8794 21.0069 10.7703 21.0069 10.6565V8.31158C21.0049 6.90337 20.4446 5.5534 19.4488 4.5577C18.453 3.56199 17.1029 3.00182 15.6947 3H8.31158C6.90347 3.00197 5.55359 3.56221 4.5579 4.5579C3.56221 5.55359 3.00197 6.90347 3 8.31158V15.6753C3.00197 17.0834 3.56221 18.4333 4.5579 19.429C5.55359 20.4247 6.90347 20.9849 8.31158 20.9869Z" fill="#121212"/>
<path d="M10.2114 7.42066C10.1716 7.3808 10.1243 7.34917 10.0722 7.3276C10.0201 7.30603 9.96434 7.29492 9.90798 7.29492C9.85163 7.29492 9.79583 7.30603 9.74377 7.3276C9.69171 7.34917 9.64441 7.3808 9.60457 7.42066L8.20046 8.82476L7.60164 8.22537C7.52117 8.1449 7.41203 8.0997 7.29823 8.0997C7.18443 8.0997 7.07529 8.1449 6.99482 8.22537C6.91435 8.30584 6.86914 8.41498 6.86914 8.52879C6.86914 8.64259 6.91435 8.75173 6.99482 8.8322L7.89505 9.73243C7.93488 9.77229 7.98218 9.80391 8.03424 9.82548C8.08631 9.84706 8.14211 9.85816 8.19846 9.85816C8.25482 9.85816 8.31062 9.84706 8.36268 9.82548C8.41474 9.80391 8.46204 9.77229 8.50187 9.73243L10.2097 8.02462C10.2897 7.94459 10.3348 7.83615 10.3351 7.72299C10.3354 7.60983 10.2909 7.50114 10.2114 7.42066Z" fill="#121212"/>
<path d="M9.60343 12.2179L8.20046 13.6226L7.60164 13.0255C7.52117 12.945 7.41203 12.8998 7.29823 12.8998C7.18443 12.8998 7.07529 12.945 6.99482 13.0255C6.91435 13.106 6.86914 13.2151 6.86914 13.3289C6.86914 13.4427 6.91435 13.5519 6.99482 13.6323L7.89505 14.5326C7.97565 14.6128 8.08474 14.6578 8.19846 14.6578C8.31218 14.6578 8.42127 14.6128 8.50187 14.5326L10.2097 12.8248C10.2879 12.7439 10.3311 12.6356 10.3302 12.5231C10.3293 12.4106 10.2842 12.303 10.2047 12.2234C10.1252 12.1439 10.0177 12.0987 9.90521 12.0977C9.79274 12.0966 9.68436 12.1398 9.60343 12.2179Z" fill="#121212"/>
<path d="M16.7068 9.00634C16.8205 9.00634 16.9297 8.96115 17.0101 8.88071C17.0905 8.80026 17.1357 8.69116 17.1357 8.57739C17.1357 8.46363 17.0905 8.35452 17.0101 8.27408C16.9297 8.19363 16.8205 8.14844 16.7068 8.14844H13.4153C13.3015 8.14844 13.1924 8.19363 13.112 8.27408C13.0315 8.35452 12.9863 8.46363 12.9863 8.57739C12.9863 8.69116 13.0315 8.80026 13.112 8.88071C13.1924 8.96115 13.3015 9.00634 13.4153 9.00634H16.7068Z" fill="#121212"/>
</svg>
