<svg width="24" height="24" viewBox="0 0 24 24" fill="none" xmlns="http://www.w3.org/2000/svg">
<rect width="24" height="24" rx="12" fill="#BFDFFF"/>
<path d="M12 6C8.6911 6 6 8.6911 6 12C6 15.3089 8.6911 18 12 18C15.3089 18 18 15.3089 18 12C18 8.6911 15.3089 6 12 6ZM8.26671 16.111C8.53781 14.2666 10.1223 12.8889 12 12.8889C13.8777 12.8889 15.4622 14.2666 15.7333 16.111C14.7466 17.0088 13.4356 17.5554 12 17.5554C10.5644 17.5554 9.25344 17.0088 8.26671 16.111ZM16.1156 15.7288C15.7711 14.2066 14.6156 13.0155 13.1467 12.6022C13.9178 12.1911 14.4467 11.3778 14.4467 10.4445C14.4467 9.09559 13.3512 7.99998 12.0022 7.99998C10.6533 7.99998 9.55773 9.09552 9.55773 10.4445C9.55773 11.3778 10.0844 12.1911 10.8577 12.6022C9.38886 13.0156 8.23104 14.2066 7.88886 15.7288C6.99331 14.7422 6.44888 13.4332 6.44888 11.9999C6.44888 8.9355 8.94001 6.44451 12.0043 6.44451C15.0686 6.44451 17.5597 8.93565 17.5597 11.9999C17.5597 13.4332 17.013 14.7421 16.1197 15.7288H16.1156ZM12 12.4444C10.8978 12.4444 10.0001 11.5466 10.0001 10.4445C10.0001 9.34232 10.8979 8.44456 12 8.44456C13.1021 8.44456 13.9999 9.34232 13.9999 10.4445C13.9999 11.5466 13.1021 12.4444 12 12.4444Z" fill="#000054" stroke="#000054" stroke-width="0.2"/>
</svg>
