<svg width="280" height="200" viewBox="0 0 280 200" fill="none" xmlns="http://www.w3.org/2000/svg">
<path d="M115.608 154.677C167.026 154.677 208.708 124.965 208.708 88.3132C208.708 51.6614 167.026 21.9492 115.608 21.9492C64.1901 21.9492 22.5078 51.6614 22.5078 88.3132C22.5078 124.965 64.1901 154.677 115.608 154.677Z" fill="#F5F5F5"/>
<path d="M216.113 181.78C239.585 181.78 258.613 179.141 258.613 175.884C258.613 172.628 239.585 169.988 216.113 169.988C192.641 169.988 173.613 172.628 173.613 175.884C173.613 179.141 192.641 181.78 216.113 181.78Z" fill="#DCDCDC"/>
<path d="M127.03 185.268C169.434 185.268 203.81 182.339 203.81 178.728C203.81 175.116 169.434 172.188 127.03 172.188C84.6256 172.188 50.25 175.116 50.25 178.728C50.25 182.339 84.6256 185.268 127.03 185.268Z" fill="#DCDCDC"/>
<path d="M141.71 62.8373C141.71 62.8373 140.29 71.0853 129.934 81.6973C129.934 81.6973 128.79 80.2813 130.77 74.4173C132.75 68.5533 141.118 60.8413 141.71 62.8373Z" fill="#7E9E6E"/>
<path d="M141.711 62.8398C141.711 62.8398 132.399 69.5038 129.935 81.6998C129.935 81.6998 129.459 85.8838 130.895 89.5078" stroke="black" stroke-miterlimit="10" stroke-linecap="round"/>
<path d="M116.672 69.4972C116.672 69.4972 119.284 67.5172 114.788 62.5732C110.516 57.8732 105.988 53.6612 97.1562 52.1172C97.1562 52.1172 99.8242 64.0892 105.584 66.9412C109.028 68.6534 112.827 69.5291 116.672 69.4972Z" fill="#7E9E6E"/>
<path d="M95.2205 78.3018C95.2205 78.3018 104.441 80.3018 120.081 75.1018C120.081 75.1018 119.109 73.5018 112.121 72.9418C105.133 72.3818 93.4005 76.9578 95.2205 78.3018Z" fill="#7E9E6E"/>
<path d="M95.2188 78.3012C95.2188 78.3012 106.279 72.4452 120.079 75.1012C120.079 75.1012 121.499 75.4572 122.943 77.3892" stroke="black" stroke-miterlimit="10" stroke-linecap="round"/>
<path d="M102.86 86.6588C102.86 86.6588 112.728 93.1548 128.368 87.9348C127.286 86.2127 125.815 84.7685 124.074 83.7181C122.332 82.6677 120.368 82.0405 118.34 81.8868C111.352 81.3428 101.04 85.3148 102.86 86.6588Z" fill="#7E9E6E"/>
<path d="M102.859 86.6569C102.859 86.6569 113.495 81.6929 128.367 87.9329C129.629 88.5754 130.725 89.5025 131.567 90.6409" stroke="black" stroke-miterlimit="10" stroke-linecap="round"/>
<path d="M136.263 55.0305C136.263 55.0305 139.175 54.6825 132.067 61.2545C125.359 67.4625 126.211 67.5105 126.211 67.5105C126.211 67.5105 128.755 58.2225 136.263 55.0305Z" fill="black"/>
<path d="M121.328 70.6552C121.328 70.6552 123.504 71.4953 127.428 67.8953C131.352 64.2953 132.812 56.2713 136.264 55.0312C136.264 55.0312 127.6 57.8272 121.328 70.6552Z" fill="#7E9E6E"/>
<path d="M135.6 98.2252C130.515 87.8983 124.159 78.2474 116.68 69.4972C116.68 69.4972 114.628 66.8092 107.48 59.8452C100.332 52.8812 97.1484 52.1172 97.1484 52.1172" stroke="black" stroke-miterlimit="10" stroke-linecap="round"/>
<path d="M135.238 55.457C135.238 55.457 127.002 59.057 121.326 70.657C119.954 73.457 121.598 75.693 122.926 77.385" stroke="black" stroke-miterlimit="10" stroke-linecap="round"/>
<path d="M210.342 151.659C210.342 151.659 203.458 156.739 187.598 153.011C187.598 153.011 187.638 150.467 193.33 148.019C199.022 145.571 211.242 149.303 210.342 151.659Z" fill="#7E9E6E"/>
<path d="M209.85 151.197C209.85 151.197 198.986 147.565 187.67 152.733C187.67 152.733 184.002 154.805 181.91 158.093" stroke="black" stroke-miterlimit="10" stroke-linecap="round"/>
<path d="M187.392 140.488C187.392 140.488 190.528 141.44 191.896 134.888C193.192 128.672 193.948 122.54 190.008 114.488C190.008 114.488 181.884 123.688 182.952 130.012C183.59 133.804 185.111 137.393 187.392 140.488Z" fill="#7E9E6E"/>
<path d="M210.722 142.938C210.722 142.938 213.142 144.594 203.466 144.858C194.326 145.11 194.934 145.706 194.934 145.706C194.934 145.706 202.97 140.398 210.722 142.938Z" fill="black"/>
<path d="M189.199 144.859C189.199 144.859 190.283 146.923 195.599 146.795C200.915 146.667 207.311 141.595 210.723 142.939C210.723 142.939 202.367 139.339 189.199 144.859Z" fill="#7E9E6E"/>
<path d="M175.242 172.668C180.618 162.49 184.699 151.68 187.39 140.488C187.39 140.488 188.362 137.248 189.818 127.384C191.274 117.52 190.006 114.484 190.006 114.484" stroke="black" stroke-miterlimit="10" stroke-linecap="round"/>
<path d="M209.67 142.585C209.67 142.585 201.106 139.861 189.19 144.857C186.306 146.057 185.486 147.977 184.266 151.517" stroke="black" stroke-miterlimit="10" stroke-linecap="round"/>
<path d="M100.642 92.9302C98.4146 92.9308 96.2572 92.1494 94.5465 90.7222L89.8025 86.7622C88.1862 85.3715 86.1306 84.5966 83.9985 84.5742H60.4305C59.4046 84.5742 58.4208 84.9817 57.6954 85.7071C56.97 86.4325 56.5625 87.4164 56.5625 88.4422V173.718C56.5625 175.489 57.2657 177.188 58.5176 178.44C59.7695 179.693 61.4675 180.397 63.2385 180.398H180.658C182.038 180.398 183.36 179.85 184.335 178.875C185.311 177.9 185.858 176.577 185.858 175.198V98.1262C185.858 96.7471 185.311 95.4245 184.335 94.4493C183.36 93.4741 182.038 92.9262 180.658 92.9262L100.642 92.9302Z" fill="#022141"/>
<path d="M185.855 175.637C185.855 175.637 177.855 160.645 177.055 158.925L155.215 114.433C154.947 113.853 154.519 113.363 153.981 113.019C153.443 112.675 152.818 112.493 152.179 112.493H71.0314C68.0794 112.493 63.8114 110.945 61.5474 109.057L58.2714 106.325C56.652 104.931 54.5916 104.156 52.4554 104.137H30.0554C29.5051 104.137 28.9634 104.273 28.4781 104.533C27.9929 104.792 27.579 105.168 27.273 105.625C26.967 106.082 26.7783 106.608 26.7236 107.156C26.6689 107.703 26.7499 108.256 26.9594 108.765L54.0674 174.325C54.8099 176.119 56.0669 177.653 57.6799 178.733C59.293 179.814 61.1899 180.393 63.1314 180.397H184.399C184.792 180.392 185.168 180.237 185.451 179.965C185.733 179.692 185.901 179.321 185.919 178.929L185.855 175.637Z" fill="#002A54"/>
<path d="M152.844 116.727L184.892 179.023" stroke="#BFDFFF" stroke-linejoin="round"/>
<path d="M139.639 127.461H112.039C111.67 127.462 111.306 127.371 110.981 127.196C110.656 127.02 110.381 126.766 110.179 126.457C109.969 126.127 109.852 125.747 109.841 125.356C109.829 124.965 109.924 124.578 110.115 124.236C110.305 123.895 110.585 123.611 110.924 123.416C111.262 123.22 111.648 123.12 112.039 123.125H139.639C140.008 123.124 140.371 123.215 140.695 123.39C141.02 123.566 141.295 123.82 141.495 124.129C141.705 124.459 141.822 124.839 141.833 125.23C141.845 125.62 141.75 126.007 141.56 126.348C141.37 126.69 141.091 126.973 140.753 127.169C140.415 127.365 140.03 127.466 139.639 127.461Z" stroke="#BFDFFF" stroke-linejoin="round"/>
<path d="M88 148.871L109.496 161.679" stroke="#BFDFFF" stroke-linecap="round" stroke-linejoin="round"/>
<path d="M105.57 148.254L92.0664 161.754" stroke="#BFDFFF" stroke-linecap="round" stroke-linejoin="round"/>
<path d="M114.053 159.466C115.85 152.968 110.334 145.771 101.732 143.392C93.1302 141.013 84.6999 144.353 82.9027 150.851C81.1054 157.349 86.6217 164.546 95.2237 166.925C103.826 169.304 112.256 165.965 114.053 159.466Z" stroke="#BFDFFF" stroke-linecap="round" stroke-linejoin="round"/>
<path d="M209.752 92.9737C210.268 90.7457 207.896 87.9657 205.652 88.4057C204.613 88.5989 203.597 88.8978 202.62 89.2977C202.048 89.4857 197.764 89.2057 197.272 89.9217C196.92 90.4377 199.152 91.0337 200.58 91.1737C200.645 91.179 200.707 91.2049 200.756 91.2477C200.805 91.2904 200.84 91.3478 200.855 91.4115C200.869 91.4752 200.863 91.5419 200.838 91.602C200.812 91.6621 200.768 91.7124 200.712 91.7457C199.308 92.6177 196.512 94.3857 196.272 94.8217C195.956 95.4097 194.504 97.6897 194.912 97.9417C195.32 98.1937 196.56 97.0577 197.364 96.2457C198.168 95.4337 200.516 94.7537 200.516 94.7537C200.516 94.7537 196.432 98.8537 195.892 99.9977C195.092 101.694 197.416 100.95 197.416 100.95C197.052 101.906 198.96 101.698 199.416 101.35C200.308 100.638 203.064 97.3137 203.072 97.6537C203.08 97.9937 200.224 101.614 200.512 102.454C200.8 103.294 201.956 102.242 202.624 101.346C203.292 100.45 205.252 97.9617 205.252 97.9617C206.844 96.7118 208.226 95.2141 209.344 93.5258C209.352 93.4818 209.744 92.9977 209.752 92.9737Z" fill="#DB9C7F"/>
<path d="M197.52 100.851L201.416 96.2031" stroke="black" stroke-miterlimit="10" stroke-linecap="round"/>
<path d="M180.441 79.7944L194.469 71.0424C194.556 70.9846 194.638 70.9218 194.717 70.8544L199.341 66.0984C199.578 65.8899 199.856 65.7345 200.158 65.6426C200.46 65.5507 200.778 65.5246 201.09 65.5659C201.403 65.6072 201.703 65.715 201.971 65.8821C202.238 66.0492 202.467 66.2716 202.641 66.5344L204.909 69.9344C205.146 70.288 205.277 70.7023 205.284 71.128C205.292 71.5536 205.177 71.9724 204.953 72.3344L201.697 77.5984C201.458 77.9863 201.104 78.2908 200.685 78.4704C198.069 79.5904 188.061 83.8184 182.093 85.5024C181.749 85.5988 181.387 85.6102 181.037 85.5359C180.687 85.4616 180.361 85.3036 180.086 85.0756C179.811 84.8475 179.595 84.5562 179.457 84.2265C179.319 83.8968 179.263 83.5385 179.293 83.1824L179.441 81.4504C179.472 81.1167 179.577 80.7942 179.751 80.5073C179.924 80.2204 180.16 79.9767 180.441 79.7944Z" fill="#BFDFFF"/>
<path d="M212.741 167.223L212.001 172.263C212.001 172.263 198.105 177.599 199.393 177.679C200.681 177.759 220.653 176.591 220.653 176.591L219.477 167.447L212.741 167.223Z" fill="black"/>
<path d="M216.613 85.6911C216.613 85.6911 217.721 96.3471 218.553 96.8911C219.155 97.2604 219.807 97.5394 220.489 97.7191L218.689 85.5391L216.613 85.6911Z" stroke="#424242" stroke-miterlimit="10"/>
<path d="M238.56 78.3633C238.56 78.3633 244.192 89.8353 242.56 96.2233L211.336 91.9313L212 79.9993L238.56 78.3633Z" fill="#121212"/>
<path d="M239.415 80.6875C239.415 80.6875 235.015 88.8595 226.555 89.5155" stroke="#424242" stroke-miterlimit="10" stroke-linecap="round"/>
<path d="M232.352 87.7695C232.352 87.7695 234.06 93.0655 239.028 93.1775" stroke="#424242" stroke-miterlimit="10" stroke-linecap="round"/>
<path d="M211.33 91.9297C211.33 91.9297 202.962 121.71 202.746 131.298L208.858 168.238C208.858 168.238 214.69 171.134 220.762 168.794C221.01 168.698 217.686 149.634 217.45 129.994L234.906 93.4657L211.33 91.9297Z" fill="#121212"/>
<path d="M242.692 94.9743L241.464 130.914L255.2 168.486C255.2 168.486 249.444 173.35 242.176 168.926L227.248 133.146L228.8 107.114L222.292 103.174L221.324 91.9023L242.692 94.9743Z" fill="#121212"/>
<path d="M218.526 88.4051L225.158 93.3971L234.658 82.7891L211.578 86.0851L217.226 93.5771L218.526 88.4051Z" fill="white"/>
<path d="M245.501 166.615L244.301 170.963C244.301 170.963 235.533 180.471 236.825 180.471C238.117 180.471 252.513 174.583 252.513 174.583L250.669 165.527L245.501 166.615Z" fill="black"/>
<path d="M237.434 83.4453C237.434 83.4453 241.226 92.7653 238.494 131.865C238.494 131.865 248.07 152.945 253.038 169.617" stroke="#424242" stroke-miterlimit="10" stroke-linecap="round"/>
<path d="M223.501 104.105L213.945 130.729L218.041 169.617" stroke="#424242" stroke-miterlimit="10" stroke-linecap="round"/>
<path d="M181.816 85.0486C181.816 85.0486 181.999 85.9806 179.936 86.6926C177.871 87.4046 176.656 87.1766 176.656 87.1766C176.656 87.1766 172.023 81.7166 171.819 81.5246C171.615 81.3326 171.963 79.2286 173.335 78.3886C174.167 77.8766 177.392 78.7086 179.8 79.4446C180.61 79.693 181.304 80.2273 181.75 80.9483C182.197 81.6693 182.366 82.528 182.228 83.3646C182.154 83.9396 182.015 84.5045 181.816 85.0486Z" fill="#DB9C7F"/>
<path d="M178 83.599C178 83.599 174.212 83.051 172.612 81.731C172.612 81.731 170.212 81.251 169.716 81.551C169.126 82.0164 168.431 82.3308 167.692 82.467C166.592 82.651 166.924 81.919 168.092 80.867C168.424 80.567 169.292 79.503 170.072 79.359C171.176 79.0869 172.265 78.7585 173.336 78.375L177.812 83.727" fill="#DB9C7F"/>
<path d="M176.657 87.1975C176.657 87.1975 175.121 88.1615 174.581 88.1375C174.041 88.1135 173.533 87.7895 173.401 86.9015C173.401 86.9015 170.541 87.4255 171.445 85.2615C171.445 85.2615 169.721 84.9815 169.673 83.8535C169.673 83.8535 168.141 83.0895 168.473 81.8535C168.805 80.6175 173.621 80.7375 173.621 80.7375L178.725 83.3295L176.657 87.1975Z" fill="#DB9C7F"/>
<path d="M175.57 87.3848C175.57 87.3848 177.03 86.0888 176.946 85.5728C176.862 85.0568 176.594 84.7728 176.262 84.8648C175.818 85.0008 174.126 86.2888 173.398 86.8648" stroke="#1A1C30" stroke-width="0.78" stroke-linecap="round" stroke-linejoin="round"/>
<path d="M171.444 85.2418C171.444 85.2418 175.332 84.6338 175.368 84.0418C175.404 83.4498 175.132 82.7058 174.32 82.8658C173.356 83.0578 170.588 83.7218 169.672 83.7018" stroke="#1A1C30" stroke-width="0.78" stroke-linecap="round" stroke-linejoin="round"/>
<path d="M176.263 84.8678C176.263 84.8678 176.975 84.4278 176.695 83.9318C176.415 83.4358 176.027 83.2638 175.199 83.4758" stroke="#1A1C30" stroke-width="0.78" stroke-linecap="round" stroke-linejoin="round"/>
<path d="M169.598 82.103C169.755 81.9045 169.926 81.7174 170.11 81.543" stroke="#1A1C30" stroke-width="0.78" stroke-linecap="round" stroke-linejoin="round"/>
<path d="M166.375 70.9844L168.338 69.8809L178.434 87.842C178.575 88.0935 178.611 88.3909 178.533 88.6688C178.455 88.9466 178.27 89.1821 178.019 89.3235L177.952 89.3608C177.828 89.4308 177.691 89.4756 177.549 89.4926C177.407 89.5096 177.263 89.4985 177.126 89.4599C176.988 89.4214 176.859 89.3561 176.747 89.2678C176.635 89.1795 176.541 89.07 176.471 88.9454L166.375 70.9844Z" fill="#000054"/>
<path d="M171.363 73.8594L172.211 75.3634C172.269 75.4513 172.308 75.5498 172.328 75.6531C172.347 75.7564 172.346 75.8626 172.325 75.9655C172.303 76.0684 172.262 76.166 172.202 76.2528C172.143 76.3396 172.067 76.4139 171.979 76.4714L170.147 77.4994C169.956 77.5901 169.737 77.6014 169.538 77.5309C169.338 77.4605 169.175 77.314 169.083 77.1234L168.199 75.5514" fill="#333969"/>
<path d="M167.447 59.1051C163.943 52.6091 159.551 48.1331 156.759 47.9051L156.856 47.2891L155.395 48.2371C152.887 49.9451 154.219 57.5691 158.371 65.2691C162.523 72.9691 167.915 77.8211 170.423 76.1171L171.792 75.2011L171.392 74.6731C172.363 71.7131 170.859 65.4371 167.447 59.1051Z" fill="#000054"/>
<path d="M171.691 75.3152C174.363 73.9229 173.251 66.5016 169.207 58.7394C165.163 50.9771 159.718 45.8133 157.046 47.2056C154.373 48.5979 155.486 56.0191 159.53 63.7814C163.574 71.5436 169.019 76.7075 171.691 75.3152Z" fill="#002A54"/>
<path d="M170.373 72.6596C172.226 71.6842 171.04 65.7858 167.724 59.4852C164.407 53.1846 160.217 48.8677 158.363 49.8432C156.51 50.8186 157.696 56.717 161.013 63.0176C164.329 69.3182 168.52 73.635 170.373 72.6596Z" fill="#BFDFFF"/>
<path d="M178 83.599C178 83.599 174.212 83.051 172.612 81.731C172.612 81.731 170.212 81.251 169.716 81.551C169.126 82.0164 168.431 82.3308 167.692 82.467C166.592 82.651 166.924 81.919 168.092 80.867C168.424 80.567 169.292 79.503 170.072 79.359C171.176 79.0869 172.265 78.7585 173.336 78.375L177.812 83.727" fill="#DB9C7F"/>
<path d="M177.999 83.5998C177.999 83.5998 174.211 83.0518 172.611 81.7318C172.611 81.7318 170.211 81.2518 169.715 81.5518C169.125 82.0172 168.431 82.3316 167.691 82.4678" stroke="#1A1C30" stroke-width="0.78" stroke-linecap="round" stroke-linejoin="round"/>
<path d="M167.518 59.1027C164.142 52.8347 159.994 48.7027 158.25 49.9027C158.111 50.0048 157.991 50.1323 157.898 50.2787C159.898 50.3987 163.43 54.2227 166.37 59.6707C169.478 65.4427 170.846 71.0187 169.686 72.7907C169.968 72.8182 170.251 72.7475 170.486 72.5907C172.222 71.4067 170.894 65.3667 167.518 59.1027Z" fill="#333969"/>
<path d="M166.686 63.8621C167.671 63.3435 167.039 60.2053 165.275 56.8526C163.51 53.5 161.281 51.2026 160.296 51.7212C159.31 52.2398 159.942 55.378 161.707 58.7306C163.472 62.0832 165.701 64.3807 166.686 63.8621Z" fill="white"/>
<path d="M232.344 67.3715L229.544 57.4315C228.504 53.7811 226.735 50.3793 224.344 47.4315C220.152 42.1915 209.144 42.6675 209.144 42.6675L200.68 48.7995L200.6 48.8435C195.6 51.5995 194.692 55.8315 194.824 62.3995L195.132 71.2435L200.872 65.7595L202.32 67.7595C202.32 67.7035 202.32 67.6475 202.32 67.5955L203.004 68.6755L202.336 67.7595C202.54 69.5835 203.492 74.2315 207.916 76.4035L210.436 80.3675L209.768 85.8515C233.42 94.4515 239.312 77.5595 239.312 77.5595L232.344 67.3715Z" fill="#BFDFFF"/>
<path d="M199.656 64.832L202.756 68.62C202.756 68.62 202.332 74.46 208.212 76.332" stroke="black" stroke-miterlimit="10" stroke-linecap="round"/>
<path d="M223.164 72.543L205.164 88.227C205.164 88.227 208.728 93.219 210.336 93.395L231.904 79.671" fill="#BFDFFF"/>
<path d="M210.508 83.4138C210.508 83.4138 220.312 72.3618 223.708 70.7578" stroke="black" stroke-miterlimit="10" stroke-linecap="round"/>
<path d="M218.508 60.6211C218.508 60.6211 218.976 63.0931 222.108 71.7811" stroke="black" stroke-miterlimit="10" stroke-linecap="round"/>
<path d="M212.824 91.9695C212.824 91.9695 232.968 79.1375 233.144 75.3935C233.32 71.6495 228.064 54.2695 228.064 54.2695" stroke="black" stroke-miterlimit="10" stroke-linecap="round"/>
<path d="M215.031 73.7917C215.031 73.7917 219.879 74.2477 221.379 69.8477" stroke="black" stroke-miterlimit="10" stroke-linecap="round"/>
<path d="M195.398 70.5126C195.576 70.3302 195.791 70.1885 196.029 70.0973C196.266 70.0061 196.521 69.9675 196.775 69.9843C197.029 70.001 197.276 70.0726 197.5 70.1942C197.724 70.3158 197.918 70.4845 198.07 70.6886" stroke="black" stroke-miterlimit="10" stroke-linecap="round"/>
<path d="M179.535 79.34L182.399 78C182.399 78 185.875 81.788 184.627 85.044L181.151 86.068C181.151 86.068 182.747 82.504 179.535 79.34Z" fill="white"/>
<path d="M206.296 86.2227C206.296 86.2227 210.04 87.8227 212.696 92.4387L209.82 94.6427C209.82 94.6427 206.276 89.5627 203.82 88.7627L206.296 86.2227Z" fill="white"/>
<path d="M203.154 42.1055L214.962 42.9735C214.962 42.9735 215.41 49.4695 208.278 55.1975L205.078 52.0855L203.33 55.8735C203.33 55.8735 200.622 54.3495 200.258 49.9735L200.834 44.6615L203.154 42.1055Z" fill="white"/>
<path d="M209.156 42.6818C209.368 42.8625 209.528 43.0952 209.622 43.3568C209.716 43.6184 209.74 43.9 209.692 44.1738C209.292 46.2858 208.168 51.4018 205.868 52.0458C202.964 52.8458 201.148 47.1178 201.148 47.1178L202.6 37.0898L209.156 42.6818Z" fill="#DB9C7F"/>
<path d="M199.946 45.0604L199.91 46.5204C199.886 46.5204 199.39 50.8484 200.838 51.0124C206.89 49.9204 207.27 44.1804 207.79 38.4844C207.79 38.4844 199.358 43.9244 199.946 45.0604Z" fill="black"/>
<path d="M189.871 34.3097C189.871 34.3097 188.399 48.3697 197.127 50.7977C205.855 53.2257 207.955 38.9737 207.655 34.0497C207.355 29.1257 205.159 27.2897 199.035 27.0697C189.999 26.7297 189.871 34.3097 189.871 34.3097Z" fill="#DB9C7F"/>
<path d="M197.721 41.1033C197.745 41.6113 197.505 42.0313 197.181 42.0473C196.857 42.0633 196.581 41.6473 196.553 41.1633C196.525 40.6793 196.769 40.2313 197.093 40.2153C197.417 40.1993 197.693 40.5953 197.721 41.1033Z" fill="black"/>
<path d="M198.676 38.5099C198.676 38.5099 195.792 39.7659 195.508 37.5859" stroke="black" stroke-miterlimit="10" stroke-linecap="round"/>
<path d="M192.001 38.5195C192.001 38.5195 191.045 40.1755 189.949 39.4395" stroke="black" stroke-miterlimit="10" stroke-linecap="round"/>
<path d="M190.473 41.4573C190.937 41.3658 191.418 41.453 191.821 41.7013" stroke="black" stroke-miterlimit="10" stroke-linecap="round"/>
<path d="M199.023 46.7013C199.438 46.3021 199.928 45.9882 200.463 45.7773" stroke="black" stroke-miterlimit="10" stroke-linecap="round"/>
<path d="M193.125 43.0781C193.056 43.2385 193.021 43.4116 193.024 43.5861C193.026 43.7607 193.064 43.9329 193.137 44.0917C193.21 44.2504 193.315 44.3921 193.446 44.5075C193.577 44.623 193.731 44.7098 193.897 44.7621" stroke="black" stroke-miterlimit="10" stroke-linecap="round"/>
<path d="M189.767 37.3314C189.767 37.3314 189.915 33.2154 191.739 30.8914C191.739 30.8914 194.247 36.5914 205.055 37.7514L208.203 37.0914C208.203 37.0914 209.491 30.4914 204.975 27.8914C200.459 25.2914 193.551 26.7274 191.331 29.0674C190.258 30.1208 189.533 31.4771 189.254 32.9543C188.974 34.4315 189.153 35.9589 189.767 37.3314Z" fill="black"/>
<path d="M202.961 36.999L204.829 40.695L206.153 36.543L202.961 36.999Z" fill="black"/>
<path d="M209.477 40.3455C210.031 38.3855 209.375 36.4843 208.012 36.0992C206.65 35.7142 205.096 36.9909 204.542 38.951C203.988 40.9111 204.644 42.8122 206.006 43.1973C207.369 43.5824 208.923 42.3056 209.477 40.3455Z" fill="#DB9C7F"/>
<path d="M208.118 38.5997C208.118 38.5997 206.578 37.2757 205.738 39.6957C205.738 39.6957 206.638 40.6517 206.07 41.3997C206.324 41.453 206.588 41.4257 206.825 41.3218C207.063 41.2178 207.262 41.0423 207.394 40.8197" stroke="black" stroke-linecap="round" stroke-linejoin="round"/>
<path d="M207.454 39.527C207.34 39.0859 207.102 38.6863 206.77 38.375" stroke="black" stroke-linecap="round" stroke-linejoin="round"/>
<path d="M208.203 43.1446C208.203 43.4088 208.125 43.6671 207.978 43.8868C207.831 44.1065 207.623 44.2778 207.379 44.3789C207.134 44.48 206.866 44.5065 206.607 44.4549C206.347 44.4034 206.109 44.2761 205.923 44.0893C205.736 43.9024 205.608 43.6644 205.557 43.4052C205.505 43.1461 205.532 42.8775 205.633 42.6333C205.734 42.3892 205.905 42.1806 206.125 42.0337C206.345 41.8869 206.603 41.8086 206.867 41.8086C207.222 41.8086 207.561 41.9494 207.812 42.1999C208.062 42.4504 208.203 42.7903 208.203 43.1446Z" fill="white"/>
<path d="M204.465 29.5984C204.465 29.5984 206.105 21.0264 209.937 22.6704C213.769 24.3144 215.501 32.5184 211.853 33.1584C209.632 33.5245 207.353 33.1388 205.377 32.0624L204.465 29.5984Z" fill="black"/>
<path d="M204.508 32.0742C204.508 32.0742 210.848 37.3662 212.908 32.4742" stroke="black" stroke-miterlimit="10" stroke-linecap="round"/>
<path d="M228.465 106.914L221.129 102.77" stroke="#424242" stroke-miterlimit="10" stroke-linecap="round"/>
<path d="M61.9139 52.5292C64.9329 52.6121 67.8608 53.581 70.3331 55.3155C72.8055 57.0499 74.7132 59.4731 75.8187 62.2836C76.9242 65.0941 77.1787 68.1676 76.5506 71.1216C75.9224 74.0756 74.4393 76.7797 72.2859 78.8972C72.0635 79.1133 71.8967 79.3801 71.7999 79.6748C71.7031 79.9695 71.6791 80.2832 71.7299 80.5892L72.8739 87.3372L65.8539 83.2492C65.4555 83.0134 64.9843 82.9323 64.5299 83.0212C62.4038 83.4487 60.2113 83.4224 58.096 82.9439C55.9808 82.4655 53.9904 81.5456 52.2553 80.2446C50.5201 78.9435 49.0793 77.2907 48.0273 75.3943C46.9752 73.4979 46.3355 71.4006 46.1501 69.2398C45.9647 67.079 46.2378 64.9035 46.9515 62.8555C47.6652 60.8076 48.8034 58.9335 50.2916 57.356C51.7797 55.7784 53.5843 54.533 55.5872 53.7012C57.5901 52.8694 59.746 52.47 61.9139 52.5292Z" fill="#BFDFFF"/>
<path d="M60.7983 73.2572L60.7583 69.5732C61.2643 69.4548 61.7564 69.2832 62.2263 69.0612C62.6445 68.8683 63.0369 68.6237 63.3943 68.3332C63.7181 68.0677 63.9999 67.7549 64.2303 67.4052C64.4559 67.0667 64.6285 66.6958 64.7423 66.3052C64.8606 65.9026 64.9199 65.4849 64.9183 65.0652C64.9196 64.4391 64.7575 63.8235 64.4482 63.2791C64.1388 62.7348 63.6928 62.2805 63.1543 61.9612C62.5387 61.6062 61.8366 61.4289 61.1263 61.4492C60.2947 61.4456 59.4807 61.6877 58.7863 62.1452C57.9824 62.7265 57.4011 63.5647 57.1383 64.5212L56.7383 64.2572C57.0158 63.2818 57.6061 62.4245 58.4183 61.8172C59.1345 61.3217 59.9726 61.0314 60.8419 60.9778C61.7112 60.9242 62.5786 61.1094 63.3503 61.5132C63.9852 61.8608 64.5129 62.3755 64.876 63.0017C65.2392 63.6279 65.4239 64.3415 65.4103 65.0652C65.415 65.6226 65.316 66.176 65.1183 66.6972C64.9235 67.2062 64.6435 67.6783 64.2903 68.0932C63.919 68.5275 63.48 68.8989 62.9903 69.1932C62.4567 69.5161 61.8765 69.7549 61.2703 69.9012L61.2263 73.2572H60.7983ZM60.5183 75.9972C60.5128 75.8282 60.5665 75.6627 60.6703 75.5292C60.7261 75.473 60.7924 75.4283 60.8655 75.3979C60.9386 75.3674 61.0171 75.3517 61.0963 75.3517C61.1755 75.3517 61.2539 75.3674 61.327 75.3979C61.4001 75.4283 61.4665 75.473 61.5223 75.5292C61.6148 75.6716 61.6596 75.8397 61.6503 76.0092C61.6519 76.1733 61.603 76.3339 61.5103 76.4692C61.4611 76.5342 61.3967 76.5861 61.3228 76.6202C61.2488 76.6544 61.1676 76.6699 61.0863 76.6652C61.0062 76.6709 60.9259 76.658 60.8516 76.6274C60.7774 76.5969 60.7112 76.5496 60.6583 76.4892C60.5556 76.3466 60.506 76.1725 60.5183 75.9972Z" fill="#121212"/>
</svg>
