<svg width="24" height="24" viewBox="0 0 24 24" fill="none" xmlns="http://www.w3.org/2000/svg">
<rect width="24" height="24" rx="12" fill="#BFDFFF"/>
<path d="M8.66797 9.66666C8.66797 7.64162 10.3096 6 12.3346 6V6C14.3597 6 16.0013 7.64162 16.0013 9.66667V11C16.0013 12.0819 16.3522 13.1345 17.0013 14L17.1442 14.1905C17.4973 14.6614 17.1613 15.3333 16.5727 15.3333H8.09654C7.50794 15.3333 7.17195 14.6614 7.52511 14.1905L7.66797 14C8.31708 13.1345 8.66797 12.0819 8.66797 11V9.66666Z" stroke="#000054" stroke-width="0.7"/>
<path d="M10.7235 16.7647C10.8184 17.1191 11.0277 17.4322 11.3187 17.6556C11.6098 17.8789 11.9664 18 12.3333 18C12.7002 18 13.0569 17.8789 13.3479 17.6556C13.639 17.4322 13.8483 17.1191 13.9432 16.7647" stroke="#000054" stroke-width="0.7" stroke-linecap="round"/>
</svg>
