<svg width="24" height="24" viewBox="0 0 24 24" fill="none" xmlns="http://www.w3.org/2000/svg">
<rect width="24" height="24" rx="12" fill="#BFDFFF"/>
<path d="M16.0408 11.2746L12.3382 9.14261C12.2837 9.11102 12.2162 9.11102 12.1611 9.14261L8.45847 11.2746C8.40394 11.3062 8.37018 11.3642 8.37018 11.4274V15.6914C8.37018 15.7546 8.40394 15.8126 8.45847 15.8442L12.1611 17.9762C12.1886 17.9917 12.2193 18 12.2494 18C12.28 18 12.3107 17.9922 12.3377 17.9762L16.0403 15.8442C16.0949 15.8126 16.1286 15.7546 16.1286 15.6914V11.4274C16.1286 11.3642 16.0949 11.3062 16.0403 11.2746H16.0408ZM12.2494 13.3558L11.2148 12.7601L14.5632 10.8322L15.5973 11.4279L12.2489 13.3558H12.2494ZM10.7002 14.0183L10.1315 13.6909L10.1164 12.5358L10.6851 12.8632L10.7002 14.0183ZM10.2893 12.2271L13.6378 10.2992L14.2091 10.6281L10.8606 12.556L10.2893 12.2271ZM12.2494 9.49946L13.284 10.0951L9.93556 12.0231L8.9015 11.4274L12.2499 9.49946H12.2494ZM8.72388 11.7336L9.75951 12.3298L9.77821 13.7951C9.77925 13.8573 9.81249 13.9148 9.8665 13.9459L10.792 14.4789C10.8195 14.4944 10.8502 14.5027 10.8803 14.5027C10.9115 14.5027 10.9421 14.4949 10.9696 14.4784C11.0247 14.4462 11.0579 14.3872 11.0569 14.324L11.0408 13.0684L12.0712 13.6615V17.5179L8.72279 15.5899V11.7341L8.72388 11.7336ZM12.4265 17.5178V13.6615L15.7749 11.7336V15.5894L12.4265 17.5173V17.5178ZM15.1797 15.0704C15.2285 15.1548 15.1994 15.2631 15.1148 15.3118L14.1893 15.8448C14.1612 15.8608 14.1311 15.8686 14.101 15.8686C14.0397 15.8686 13.9805 15.837 13.9472 15.78C13.8984 15.6956 13.9275 15.5873 14.0122 15.5386L14.9377 15.0056C15.0228 14.9569 15.1309 14.9859 15.1797 15.0704ZM11.516 7.58295L11.3867 8.25787C11.3737 8.32521 11.4012 8.39358 11.4568 8.43398C11.5124 8.47439 11.5861 8.47905 11.6464 8.4459L12.2499 8.11439L12.8534 8.4459C12.8804 8.4604 12.9095 8.46765 12.9391 8.46765C12.976 8.46765 13.0123 8.45626 13.043 8.43398C13.0985 8.39358 13.1256 8.32521 13.1131 8.25787L12.9838 7.58295L13.486 7.11314C13.5358 7.06652 13.5545 6.99504 13.5333 6.92977C13.512 6.86451 13.4548 6.81789 13.3868 6.80908L12.7033 6.7231L12.4104 6.10152C12.3813 6.03937 12.319 6 12.2499 6C12.1813 6 12.1185 6.03937 12.0894 6.10152L11.7965 6.7231L11.113 6.80908C11.045 6.81737 10.9878 6.86451 10.9665 6.92977C10.9452 6.99504 10.9639 7.06651 11.0138 7.11314L11.516 7.58295ZM11.9372 7.06134C11.9975 7.05357 12.0494 7.01576 12.0754 6.96137L12.2494 6.59205L12.4234 6.96137C12.4493 7.01628 12.5013 7.05409 12.5615 7.06134L12.9677 7.11211L12.669 7.3913C12.6249 7.43274 12.6052 7.49386 12.6161 7.55344L12.6929 7.95435L12.334 7.75751C12.3076 7.74301 12.2779 7.73576 12.2483 7.73576C12.2187 7.73576 12.1897 7.74301 12.1627 7.75751L11.8038 7.95435L11.8806 7.55344C11.8921 7.49387 11.8723 7.43275 11.8277 7.3913L11.529 7.11211L11.9352 7.06134H11.9372ZM14.0947 8.77736L14.7834 8.79134L15.1397 9.37925C15.1719 9.4326 15.2296 9.46472 15.2914 9.46472C15.2976 9.46472 15.3038 9.4642 15.3101 9.46368C15.3781 9.45643 15.4363 9.41085 15.4586 9.3461L15.6845 8.69708L16.3556 8.54065C16.4226 8.52511 16.474 8.47227 16.4885 8.40546C16.5025 8.33864 16.4771 8.26923 16.422 8.2278L15.8731 7.81289L15.9312 7.12812C15.937 7.05975 15.9027 6.99448 15.8435 6.9603C15.7837 6.92611 15.71 6.92922 15.6539 6.96807L15.0883 7.36069L14.4536 7.09393C14.3903 7.067 14.3176 7.07943 14.2661 7.12553C14.2152 7.17111 14.195 7.24259 14.2152 7.30786L14.4147 7.96569L13.9644 8.48574C13.9192 8.53754 13.9088 8.61058 13.9363 8.67326C13.9644 8.73593 14.0257 8.77634 14.0947 8.77789L14.0947 8.77736ZM14.7824 7.95636L14.6635 7.56529L15.0405 7.72379C15.0966 7.74762 15.161 7.74088 15.2103 7.70618L15.5464 7.47309L15.5121 7.88022C15.5069 7.94082 15.5334 7.99935 15.5817 8.03562L15.9079 8.28218L15.509 8.37541C15.4498 8.3894 15.402 8.43239 15.3823 8.48937L15.2477 8.87527L15.0358 8.52564C15.0047 8.47384 14.9486 8.44173 14.8878 8.44017L14.4785 8.43188L14.7465 8.12317C14.7865 8.07759 14.7995 8.01437 14.7824 7.95636ZM18.4751 9.58433C18.4408 9.52528 18.3764 9.49109 18.3068 9.49679L17.6207 9.5548L17.2047 9.0073C17.1631 8.95291 17.0941 8.92701 17.0265 8.941C16.9595 8.9555 16.9066 9.00678 16.891 9.0736L16.7341 9.74283L16.0834 9.96815C16.0184 9.99043 15.9727 10.0484 15.9655 10.1163C15.9582 10.1842 15.9914 10.2505 16.0501 10.2857L16.6396 10.641L16.6536 11.3278C16.6552 11.3962 16.6957 11.4579 16.7586 11.4858C16.7819 11.4962 16.8063 11.5009 16.8307 11.5009C16.8723 11.5009 16.9138 11.4864 16.9466 11.4579L17.468 11.0088L18.1276 11.2077C18.193 11.2274 18.2647 11.2077 18.3104 11.1569C18.3567 11.1062 18.3686 11.0331 18.3421 10.9699L18.0746 10.337L18.4683 9.77287C18.5078 9.71693 18.5104 9.64286 18.4761 9.58381L18.4751 9.58433ZM17.7095 10.3851L17.8684 10.7612L17.4763 10.6431C17.4187 10.6255 17.3553 10.6389 17.3091 10.6783L16.9995 10.9456L16.9912 10.5374C16.9902 10.4768 16.958 10.4214 16.9055 10.3898L16.555 10.1784L16.9419 10.0443C16.999 10.0246 17.0421 9.97643 17.0562 9.9179L17.1496 9.52009L17.3969 9.84538C17.4337 9.89355 17.4919 9.91997 17.5527 9.91479L17.9609 9.8806L17.7272 10.2157C17.6924 10.2655 17.6856 10.3292 17.7095 10.3851ZM8.14274 8.54009L8.81377 8.69652L9.03969 9.34555C9.06202 9.4103 9.12019 9.45588 9.18823 9.46313C9.19446 9.46365 9.20069 9.46417 9.20693 9.46417C9.26873 9.46417 9.32638 9.43205 9.35858 9.3787L9.71487 8.79079L10.4036 8.77681C10.4721 8.77525 10.5339 8.73485 10.562 8.67217C10.59 8.6095 10.5791 8.53647 10.5339 8.48466L10.0836 7.96461L10.2831 7.30678C10.3028 7.24151 10.2831 7.17004 10.2322 7.12445C10.1813 7.07835 10.1086 7.06643 10.0447 7.09285L9.41 7.35961L8.84441 6.96698C8.78832 6.92762 8.71405 6.92503 8.65484 6.95921C8.59511 6.9934 8.56135 7.05867 8.56706 7.12704L8.62523 7.81181L8.07626 8.22671C8.02173 8.26815 7.99576 8.33704 8.00978 8.40437C8.02432 8.47119 8.07574 8.52403 8.14274 8.53956L8.14274 8.54009ZM8.9166 8.03506C8.9649 7.99828 8.99138 7.93975 8.98619 7.87966L8.95191 7.47253L9.28794 7.70562C9.3378 7.74033 9.40168 7.74706 9.45777 7.72323L9.83482 7.56473L9.71641 7.95581C9.69875 8.01382 9.71225 8.0765 9.75173 8.12259L10.0197 8.43131L9.61046 8.43959C9.54969 8.44063 9.49412 8.47274 9.46243 8.52506L9.25052 8.8747L9.11601 8.48879C9.09627 8.43182 9.04797 8.38882 8.98928 8.37484L8.59041 8.2816L8.9166 8.03506ZM8.53382 10.1157C8.52655 10.0479 8.48084 9.98986 8.41592 9.96759L7.76516 9.74227L7.60831 9.07304C7.59272 9.00622 7.53975 8.95494 7.47275 8.94043C7.40524 8.92645 7.33617 8.95183 7.29462 9.00674L6.8786 9.55424L6.19199 9.49623C6.12344 9.49105 6.058 9.52471 6.02372 9.58377C5.98944 9.64281 5.99256 9.71689 6.03151 9.77283L6.42519 10.3369L6.15771 10.9699C6.13123 11.0331 6.14317 11.1056 6.1894 11.1569C6.2351 11.2076 6.30677 11.2278 6.37221 11.2076L7.03181 11.0087L7.55326 11.4578C7.58598 11.4863 7.62753 11.5008 7.66908 11.5008C7.69349 11.5008 7.7179 11.4956 7.74127 11.4858C7.80411 11.4578 7.84462 11.3967 7.84618 11.3278L7.8602 10.641L8.44969 10.2856C8.50838 10.2504 8.54162 10.1841 8.53435 10.1163L8.53382 10.1157ZM7.59324 10.3887C7.54131 10.4198 7.50911 10.4757 7.50755 10.5363L7.49924 10.9445L7.1897 10.6772C7.15698 10.6493 7.11595 10.6342 7.07388 10.6342C7.05674 10.6342 7.0396 10.6368 7.02246 10.642L6.63034 10.7601L6.78927 10.3841C6.81264 10.3281 6.8064 10.2644 6.77161 10.2147L6.53789 9.87955L6.94612 9.91374C7.0074 9.91892 7.06557 9.8925 7.10193 9.84433L7.34915 9.51904L7.44264 9.91685C7.45666 9.9759 7.49977 10.0236 7.5569 10.0432L7.94384 10.1774L7.59324 10.3887Z" fill="#000054" stroke="#000054" stroke-width="0.1"/>
</svg>
