<svg width="32" height="32" viewBox="0 0 32 32" fill="none" xmlns="http://www.w3.org/2000/svg">
<path d="M19.1257 18.9531C19.2462 19.0775 19.2433 19.2754 19.1188 19.3969C19.0581 19.4557 18.9797 19.4851 18.9004 19.4851C18.8181 19.4851 18.7367 19.4527 18.675 19.39L18.5594 19.2705V22.1313C18.5594 22.3047 18.4193 22.4448 18.2459 22.4448C18.0725 22.4448 17.9324 22.3047 17.9324 22.1313V19.2715L17.8177 19.3901C17.6972 19.5145 17.4993 19.5184 17.3739 19.3979C17.2495 19.2774 17.2466 19.0795 17.3661 18.9551L18.0196 18.28C18.0784 18.2193 18.1597 18.184 18.2449 18.184C18.3302 18.184 18.4105 18.2183 18.4703 18.279L19.1248 18.9541L19.1257 18.9531ZM20.6326 18.278C20.5738 18.2173 20.4925 18.182 20.4072 18.182C20.322 18.182 20.2407 18.2163 20.1819 18.278L19.5284 18.9531C19.4079 19.0775 19.4108 19.2764 19.5362 19.3959C19.6606 19.5164 19.8595 19.5135 19.98 19.3881L20.0947 19.2695V22.1293C20.0947 22.3027 20.2348 22.4428 20.4082 22.4428C20.5816 22.4428 20.7217 22.3027 20.7217 22.1293V19.2695L20.8363 19.3881C20.898 19.4518 20.9794 19.4841 21.0617 19.4841C21.14 19.4841 21.2184 19.4547 21.2792 19.3959C21.4036 19.2754 21.4065 19.0775 21.287 18.9531L20.6335 18.278H20.6326ZM11.7765 21.8168H8.24755C8.07414 21.8168 7.93404 21.9569 7.93404 22.1303C7.93404 22.3037 8.07414 22.4438 8.24755 22.4438H11.7765C11.9499 22.4438 12.09 22.3037 12.09 22.1303C12.09 21.9569 11.9499 21.8168 11.7765 21.8168ZM8.24755 20.8174H10.4363C10.6097 20.8174 10.7498 20.6773 10.7498 20.5039C10.7498 20.3305 10.6097 20.1904 10.4363 20.1904H8.24755C8.07414 20.1904 7.93404 20.3305 7.93404 20.5039C7.93404 20.6773 8.07414 20.8174 8.24755 20.8174ZM23.1309 7.03138L26.0642 8.45397V25H6.31352C6.1401 25 6 24.8599 6 24.6865V7.31352C6 7.1401 6.1401 7 6.31352 7H22.9937H22.9996C23.0065 7 23.0123 7.00098 23.0192 7.00098C23.0231 7.00098 23.028 7.00196 23.0319 7.00196C23.0378 7.00294 23.0437 7.00392 23.0486 7.0049C23.0535 7.00588 23.0584 7.00686 23.0633 7.00784C23.0682 7.00882 23.0731 7.0098 23.077 7.01176C23.0829 7.01372 23.0888 7.0147 23.0937 7.01666C23.0976 7.01764 23.1015 7.01959 23.1054 7.02057C23.1113 7.02351 23.1182 7.02547 23.124 7.02841C23.126 7.02939 23.128 7.03037 23.1299 7.03037L23.1309 7.03138ZM13.309 12.517L14.4455 11.5019C14.564 11.3951 14.7443 11.3951 14.8629 11.5019L16.0004 12.5179V7.62804H13.3091V12.5179L13.309 12.517ZM6.62704 24.373H22.6802L22.6812 7.62706H16.6273V13.2175C16.6273 13.3409 16.5548 13.4526 16.4421 13.5036C16.3294 13.5535 16.1972 13.5339 16.105 13.4507L14.654 12.1554L13.204 13.4507C13.1452 13.5036 13.0708 13.53 12.9953 13.53C12.9522 13.53 12.9081 13.5212 12.867 13.5026C12.7543 13.4526 12.6818 13.3399 12.6818 13.2165V7.62608L6.62689 7.62706L6.62704 24.373ZM25.4382 8.84703L23.3082 7.81437V24.3732H25.4382V8.84703Z" fill="#606060"/>
</svg>
