<svg width="40" height="40" viewBox="0 0 40 40" fill="none" xmlns="http://www.w3.org/2000/svg">
<g filter="url(#filter0_d_189_1587)">
<rect x="8" y="6" width="24.0004" height="24" rx="12" fill="#000054" shape-rendering="crispEdges"/>
<path fill-rule="evenodd" clip-rule="evenodd" d="M25.9921 21.3538L25.9467 21.6963C24.789 21.5088 23.6589 21.1794 22.5818 20.7154L22.7297 20.4463C22.8217 20.2769 22.9667 20.1424 23.1425 20.0634C23.3183 19.9843 23.5152 19.9651 23.703 20.0087L25.3077 20.371C25.5244 20.4189 25.7152 20.5466 25.842 20.7286C25.9688 20.9107 26.0223 21.1339 25.9921 21.3538ZM24.2067 23.9931C24.5877 24.03 24.9681 23.9174 25.2675 23.679C25.5669 23.4405 25.7619 23.095 25.8112 22.7154L25.9076 21.9891C24.7137 21.7965 23.5485 21.4557 22.439 20.9747L22.2504 21.3175C22.18 21.4462 22.0641 21.5441 21.9254 21.592C21.7867 21.6398 21.6352 21.6342 21.5004 21.5763C20.3686 21.0943 19.3374 20.4041 18.4605 19.5414L18.4583 19.5398C17.5959 18.6628 16.9059 17.6316 16.424 16.4999C16.366 16.3652 16.3603 16.2137 16.4081 16.075C16.456 15.9363 16.5538 15.8205 16.6825 15.7501L17.0254 15.5613C16.5446 14.4517 16.2039 13.2864 16.0112 12.0925L15.2848 12.1892C14.9052 12.2384 14.5597 12.4333 14.3212 12.7327C14.0827 13.0321 13.97 13.4125 14.0069 13.7935C14.2889 16.7949 15.3068 19.2086 17.0334 20.9676C18.7918 22.6932 21.2055 23.7113 24.2067 23.9931ZM16.6465 12.0083C16.8663 11.978 17.0895 12.0316 17.2716 12.1584C17.4537 12.2852 17.5814 12.4758 17.6293 12.6925L17.9917 14.2976C18.0352 14.4854 18.0159 14.6823 17.9368 14.8581C17.8578 15.0339 17.7232 15.1789 17.5538 15.2709L17.285 15.4188C16.8209 14.3417 16.4913 13.2114 16.3039 12.0536L16.6465 12.0083Z" fill="#FCFCFC"/>
</g>
<defs>
<filter id="filter0_d_189_1587" x="0" y="0" width="40" height="40" filterUnits="userSpaceOnUse" color-interpolation-filters="sRGB">
<feFlood flood-opacity="0" result="BackgroundImageFix"/>
<feColorMatrix in="SourceAlpha" type="matrix" values="0 0 0 0 0 0 0 0 0 0 0 0 0 0 0 0 0 0 127 0" result="hardAlpha"/>
<feOffset dy="2"/>
<feGaussianBlur stdDeviation="4"/>
<feComposite in2="hardAlpha" operator="out"/>
<feColorMatrix type="matrix" values="0 0 0 0 0.113725 0 0 0 0 0.113725 0 0 0 0 0.113725 0 0 0 0.08 0"/>
<feBlend mode="normal" in2="BackgroundImageFix" result="effect1_dropShadow_189_1587"/>
<feBlend mode="normal" in="SourceGraphic" in2="effect1_dropShadow_189_1587" result="shape"/>
</filter>
</defs>
</svg>
