<svg width="12" height="12" viewBox="0 0 12 12" fill="none" xmlns="http://www.w3.org/2000/svg">
<path fill-rule="evenodd" clip-rule="evenodd" d="M11.9921 9.35375L11.9467 9.69627C10.789 9.50882 9.65886 9.17937 8.58182 8.71538L8.72968 8.44632C8.8217 8.27694 8.96672 8.14242 9.14253 8.06338C9.31834 7.98434 9.51522 7.96514 9.70299 8.00874L11.3077 8.37099C11.5244 8.41887 11.7152 8.54655 11.842 8.72865C11.9688 8.91074 12.0223 9.13391 11.9921 9.35375ZM10.2067 11.9931C10.5877 12.03 10.9681 11.9174 11.2675 11.679C11.5669 11.4405 11.7619 11.095 11.8112 10.7154L11.9076 9.98906C10.7137 9.79649 9.54853 9.45574 8.43902 8.9747L8.25036 9.31749C8.18001 9.44625 8.06415 9.54413 7.92545 9.59199C7.78674 9.63985 7.63517 9.63425 7.50038 9.57628C6.3686 9.09433 5.33742 8.40407 4.46047 7.54142L4.45834 7.53982C3.59592 6.6628 2.90585 5.63164 2.424 4.49994C2.36598 4.36521 2.36033 4.21368 2.40814 4.07499C2.45596 3.93631 2.5538 3.82046 2.68252 3.75011L3.02545 3.56131C2.54457 2.45167 2.20387 1.28643 2.01121 0.0925149L1.28483 0.189178C0.905237 0.238413 0.559666 0.433333 0.321178 0.732728C0.0826893 1.03212 -0.0300235 1.41253 0.00686838 1.79351C0.28886 4.79486 1.30683 7.20864 3.03345 8.96764C4.7918 10.6932 7.20546 11.7113 10.2067 11.9931ZM2.64653 0.00825157C2.86634 -0.022004 3.08949 0.0315901 3.27159 0.158373C3.45369 0.285157 3.58139 0.475839 3.6293 0.692491L3.99169 2.29763C4.03519 2.48542 4.01593 2.6823 3.93684 2.85809C3.85776 3.03389 3.72322 3.1789 3.55383 3.27092L3.28504 3.41878C2.82088 2.34165 2.49134 1.21139 2.30387 0.0535831L2.64653 0.00825157Z" fill="#FCFCFC"/>
</svg>
