<svg width="24" height="24" viewBox="0 0 24 24" fill="none" xmlns="http://www.w3.org/2000/svg">
<path d="M16.9674 17.6502H7.0202C6.85069 17.6551 6.68329 17.6115 6.53768 17.5246C6.39208 17.4377 6.27431 17.311 6.19822 17.1594C6.12213 17.0079 6.09088 16.8378 6.10815 16.6691C6.12541 16.5004 6.19048 16.3401 6.29569 16.2071L9.23828 12.252C9.32121 12.1385 9.42981 12.0462 9.55522 11.9827C9.68062 11.9193 9.81927 11.8864 9.95983 11.8867C10.1009 11.8859 10.2401 11.9186 10.3661 11.9821C10.492 12.0456 10.6011 12.1381 10.6843 12.252L12.8074 15.1025L14.1911 13.704C14.3695 13.5265 14.6105 13.4262 14.8622 13.4248C14.986 13.4273 15.1079 13.4549 15.2207 13.506C15.3335 13.557 15.4348 13.6304 15.5184 13.7218L17.6355 16.1477C17.7569 16.276 17.8374 16.4375 17.8668 16.6117C17.8962 16.7858 17.8731 16.9648 17.8006 17.1258C17.728 17.2869 17.6092 17.4227 17.4593 17.5161C17.3093 17.6094 17.135 17.6561 16.9585 17.6502H16.9674ZM9.9717 12.7835L7.00239 16.7386V16.7594H16.9496L14.8503 14.3156L13.4785 15.7261C13.3865 15.8186 13.276 15.8905 13.1542 15.9371C13.0323 15.9837 12.902 16.0039 12.7718 15.9963C12.6416 15.988 12.5148 15.9513 12.4004 15.8887C12.286 15.8261 12.1867 15.7392 12.1096 15.634L9.9717 12.7835Z" fill="#121212"/>
<path d="M14.9627 11.2924C14.4744 11.293 13.9969 11.1487 13.5907 10.8778C13.1844 10.6069 12.8677 10.2216 12.6806 9.77057C12.4935 9.31957 12.4443 8.82319 12.5395 8.34427C12.6346 7.86534 12.8696 7.4254 13.2149 7.08014C13.5602 6.73487 14.0001 6.49981 14.479 6.40469C14.958 6.30958 15.4543 6.35869 15.9053 6.54582C16.3563 6.73295 16.7417 7.04967 17.0126 7.45591C17.2835 7.86214 17.4278 8.33961 17.4272 8.82789C17.4264 9.48129 17.1665 10.1077 16.7045 10.5697C16.2425 11.0317 15.6161 11.2916 14.9627 11.2924ZM14.9627 7.25119C14.6507 7.2506 14.3456 7.34257 14.0859 7.51546C13.8262 7.68836 13.6236 7.9344 13.5039 8.22245C13.3841 8.5105 13.3524 8.82762 13.4129 9.13367C13.4734 9.43971 13.6234 9.72093 13.8437 9.94174C14.0641 10.1625 14.3451 10.313 14.651 10.3741C14.9569 10.4352 15.2741 10.4041 15.5624 10.2849C15.8507 10.1656 16.0971 9.96352 16.2705 9.70417C16.4438 9.44482 16.5364 9.13986 16.5364 8.82789C16.5364 8.41024 16.3707 8.00965 16.0756 7.71404C15.7806 7.41844 15.3803 7.25197 14.9627 7.25119Z" fill="#121212"/>
<path d="M3.4454 11.2486C3.32727 11.2486 3.21398 11.2017 3.13045 11.1181C3.04693 11.0346 3 10.9213 3 10.8032V6.59568C3.00392 5.64431 3.38441 4.73319 4.05825 4.06158C4.73209 3.38996 5.64446 3.0125 6.59584 3.01172H10.7885C10.9066 3.01172 11.0199 3.05864 11.1035 3.14217C11.187 3.2257 11.2339 3.33899 11.2339 3.45712C11.2339 3.57524 11.187 3.68853 11.1035 3.77206C11.0199 3.85559 10.9066 3.90251 10.7885 3.90251H6.59584C5.88071 3.90329 5.19492 4.1869 4.68813 4.69146C4.18135 5.19602 3.89472 5.88056 3.89079 6.59568V10.8032C3.89079 10.9213 3.84387 11.0346 3.76034 11.1181C3.67681 11.2017 3.56352 11.2486 3.4454 11.2486Z" fill="#121212"/>
<path d="M17.393 20.9995H13.1974C13.0792 20.9995 12.9659 20.9526 12.8824 20.8691C12.7989 20.7856 12.752 20.6723 12.752 20.5541C12.752 20.436 12.7989 20.3227 12.8824 20.2392C12.9659 20.1557 13.0792 20.1087 13.1974 20.1087H17.393C18.1097 20.1072 18.7965 19.8216 19.303 19.3145C19.8094 18.8075 20.0943 18.1204 20.0951 17.4037V13.211C20.0951 13.0929 20.142 12.9796 20.2255 12.8961C20.3091 12.8126 20.4223 12.7656 20.5405 12.7656C20.6586 12.7656 20.7719 12.8126 20.8554 12.8961C20.9389 12.9796 20.9859 13.0929 20.9859 13.211V17.4037C20.9851 18.3566 20.6064 19.2703 19.9329 19.9444C19.2593 20.6185 18.3459 20.998 17.393 20.9995Z" fill="#121212"/>
<path d="M10.7885 20.9995H6.59584C5.64241 20.9988 4.72825 20.6197 4.05407 19.9455C3.37989 19.2713 3.00079 18.3571 3 17.4037V13.211C3 13.0929 3.04693 12.9796 3.13045 12.8961C3.21398 12.8126 3.32727 12.7656 3.4454 12.7656C3.56352 12.7656 3.67681 12.8126 3.76034 12.8961C3.84387 12.9796 3.89079 13.0929 3.89079 13.211V17.4037C3.89158 18.1209 4.17683 18.8085 4.68395 19.3156C5.19108 19.8227 5.87866 20.108 6.59584 20.1087H10.7885C10.9066 20.1087 11.0199 20.1557 11.1035 20.2392C11.187 20.3227 11.2339 20.436 11.2339 20.5541C11.2339 20.6723 11.187 20.7856 11.1035 20.8691C11.0199 20.9526 10.9066 20.9995 10.7885 20.9995Z" fill="#121212"/>
<path d="M20.5405 11.2488C20.4223 11.2488 20.3091 11.2018 20.2255 11.1183C20.142 11.0348 20.0951 10.9215 20.0951 10.8034V6.59584C20.0943 5.87917 19.8094 5.19204 19.303 4.685C18.7965 4.17796 18.1097 3.89237 17.393 3.89079H13.1974C13.0792 3.89079 12.9659 3.84387 12.8824 3.76034C12.7989 3.67681 12.752 3.56352 12.752 3.4454C12.752 3.32727 12.7989 3.21398 12.8824 3.13045C12.9659 3.04693 13.0792 3 13.1974 3H17.393C18.3459 3.00157 19.2593 3.38102 19.9329 4.05511C20.6064 4.72921 20.9851 5.64292 20.9859 6.59584V10.8034C20.9859 10.9215 20.9389 11.0348 20.8554 11.1183C20.7719 11.2018 20.6586 11.2488 20.5405 11.2488Z" fill="#121212"/>
</svg>
