<svg width="24" height="24" viewBox="0 0 24 24" fill="none" xmlns="http://www.w3.org/2000/svg">
<rect width="24" height="24" rx="12" fill="#BFDFFF"/>
<path fill-rule="evenodd" clip-rule="evenodd" d="M11.4314 6.34237C11.9136 6.34313 12.3401 6.65896 12.4925 7.1327C12.5145 7.20419 12.5815 7.252 12.656 7.252H13.5124C13.6397 7.252 13.7345 7.34627 13.7345 7.46889V8.366C13.7345 8.48863 13.6397 8.5844 13.5124 8.5844H9.35047C9.22317 8.5844 9.12891 8.48863 9.12891 8.366V7.46889C9.12891 7.34642 9.22317 7.252 9.35047 7.252H10.2066C10.2814 7.252 10.348 7.20419 10.3701 7.1327C10.5224 6.65911 10.9498 6.34237 11.4314 6.34237ZM11.4314 6C10.85 6.00075 10.3605 6.37706 10.1287 6.90873H7.89078C7.40994 6.90873 7 7.26769 7 7.72831V17.1806C7 17.6416 7.4101 18 7.89078 18H14.9725C15.4541 18 15.8633 17.6418 15.8633 17.1806V16.4061C15.8741 16.1679 15.5112 16.1679 15.5215 16.4061V17.1806C15.5215 17.4376 15.2891 17.6582 14.9723 17.6582H7.89078C7.57495 17.6582 7.34162 17.4376 7.34162 17.1806V7.72831C7.34162 7.47131 7.57495 7.252 7.89078 7.252H8.83102C8.80267 7.31882 8.78713 7.39197 8.78713 7.46889V8.366C8.78713 8.6749 9.04173 8.92632 9.35032 8.92632H13.5122C13.8209 8.92632 14.0769 8.6749 14.0769 8.366V7.46889C14.0769 7.39212 14.0612 7.31882 14.0321 7.252H14.9723C15.2891 7.252 15.5215 7.47131 15.5215 7.72831V9.14215C15.5112 9.38091 15.8741 9.38091 15.8633 9.14215V7.72831C15.8633 7.26769 15.4541 6.90873 14.9725 6.90873H12.7338C12.502 6.37706 12.0125 6.00075 11.4314 6Z" fill="#000054" stroke="#000054" stroke-width="0.2"/>
<path fill-rule="evenodd" clip-rule="evenodd" d="M11.4318 7.16184C11.6061 7.16184 11.7491 7.30558 11.7491 7.49335C11.7491 7.68098 11.6063 7.82396 11.4318 7.82396C11.2573 7.82396 11.116 7.68098 11.116 7.49335C11.116 7.30558 11.2574 7.16184 11.4318 7.16184ZM11.4318 6.82007C11.0671 6.82007 10.7734 7.12624 10.7734 7.49335C10.7734 7.86092 11.0671 8.16559 11.4318 8.16559C11.7962 8.16559 12.0907 7.86092 12.0907 7.49335C12.0907 7.1264 11.7962 6.82007 11.4318 6.82007Z" fill="#000054" stroke="#000054" stroke-width="0.2"/>
<path fill-rule="evenodd" clip-rule="evenodd" d="M14.1098 11.6683C14.4232 11.6683 14.6809 11.9331 14.6819 12.2732C14.6819 12.476 14.5852 12.6652 14.4279 12.7759C14.3713 12.8159 14.3448 12.8867 14.3595 12.9542L14.5781 13.8844H13.6407L13.8592 12.9542C13.8749 12.8867 13.8475 12.8159 13.7909 12.7759C13.6336 12.6651 13.5378 12.4758 13.5369 12.2732C13.538 11.9331 13.7957 11.6683 14.1098 11.6683ZM14.1098 11.3267C13.6025 11.3267 13.1953 11.7564 13.1953 12.274C13.1953 12.5262 13.3479 12.7312 13.5182 12.9079L13.3013 13.8372C13.255 14.0352 13.3965 14.2269 13.6039 14.2269H14.6149C14.8232 14.2269 14.9637 14.0352 14.918 13.8372L14.7007 12.9079C14.871 12.7312 15.0236 12.5262 15.0236 12.274C15.0236 11.7564 14.6165 11.3267 14.1098 11.3267Z" fill="#000054" stroke="#000054" stroke-width="0.2"/>
<path d="M14.1126 9.80609L16.9579 10.7951V11.8113C16.9579 14.0354 15.8353 15.3455 14.1126 16.2812C12.39 15.3455 11.2676 14.0345 11.2676 11.8113V10.7951L14.1126 9.80609ZM14.0569 9.46342L11.0404 10.5121C10.9721 10.5356 10.9258 10.6009 10.9258 10.6732V11.8113C10.9258 14.1917 12.1942 15.6631 14.0334 16.6362C14.0829 16.6629 14.1427 16.6629 14.1928 16.6362C16.0311 15.6631 17.2998 14.1917 17.2998 11.8113V10.6732C17.2998 10.6009 17.2541 10.5356 17.1852 10.5121L14.1693 9.46342C14.1277 9.44848 14.09 9.45165 14.0569 9.46342Z" fill="#000054" stroke="#000054" stroke-width="0.2"/>
<path d="M8.34992 10.5018C8.11253 10.5018 8.11253 10.8436 8.34992 10.8436H10.1684C10.4055 10.8436 10.4055 10.5018 10.1684 10.5018H8.34992Z" fill="#000054" stroke="#000054" stroke-width="0.2"/>
<path d="M8.33063 11.5319C8.10288 11.5349 8.11947 11.8735 8.34797 11.8735H10.1665C10.4036 11.8735 10.4036 11.5295 10.1665 11.5319C9.55518 11.5381 8.94102 11.524 8.33063 11.5319Z" fill="#000054" stroke="#000054" stroke-width="0.2"/>
<path d="M8.34992 12.5602C8.11253 12.5602 8.11253 12.9027 8.34992 12.9027H10.1684C10.4055 12.9027 10.4055 12.5602 10.1684 12.5602H8.34992Z" fill="#000054" stroke="#000054" stroke-width="0.2"/>
<path d="M8.33063 13.5908C8.10288 13.5934 8.11947 13.9326 8.34797 13.9326C8.95429 13.9326 9.55986 13.9326 10.1665 13.9326C10.4036 13.9326 10.4036 13.5877 10.1665 13.5908C9.55518 13.5972 8.94102 13.5821 8.33063 13.5908Z" fill="#000054" stroke="#000054" stroke-width="0.2"/>
<path d="M8.34727 14.6189C8.11862 14.6189 8.11862 14.9622 8.34727 14.9622C9.20275 14.9622 10.0582 14.9622 10.9143 14.9622C11.143 14.9622 11.143 14.6189 10.9143 14.6189C10.0582 14.6189 9.20275 14.6189 8.34727 14.6189Z" fill="#000054" stroke="#000054" stroke-width="0.2"/>
<path d="M8.34992 15.6488C8.11253 15.6488 8.11253 15.9906 8.34992 15.9906C9.37418 15.9906 10.3984 15.9906 11.4236 15.9906C11.661 15.9906 11.661 15.6488 11.4236 15.6488C10.3984 15.6488 9.37418 15.6488 8.34992 15.6488Z" fill="#000054" stroke="#000054" stroke-width="0.2"/>
</svg>
