<svg width="18" height="18" viewBox="0 0 18 18" fill="none" xmlns="http://www.w3.org/2000/svg">
<path fill-rule="evenodd" clip-rule="evenodd" d="M16.125 0H1.875C1.37775 0 0.900746 0.197249 0.548996 0.548999C0.197246 0.900749 0 1.37775 0 1.875C0 5.1405 0 12.8595 0 16.125C0 16.6222 0.197246 17.0992 0.548996 17.451C0.900746 17.8027 1.37775 18 1.875 18C5.1405 18 12.8595 18 16.125 18C16.6222 18 17.0993 17.8027 17.451 17.451C17.8028 17.0992 18 16.6222 18 16.125V1.875C18 1.37775 17.8028 0.900749 17.451 0.548999C17.0993 0.197249 16.6222 0 16.125 0ZM3 0.75H1.875C1.5765 0.75 1.29075 0.868499 1.07925 1.07925C0.868497 1.29075 0.75 1.5765 0.75 1.875V16.125C0.75 16.4235 0.868497 16.7092 1.07925 16.9207C1.29075 17.1315 1.5765 17.25 1.875 17.25H16.125C16.4235 17.25 16.7093 17.1315 16.9208 16.9207C17.1315 16.7092 17.25 16.4235 17.25 16.125V1.875C17.25 1.5765 17.1315 1.29075 16.9208 1.07925C16.7093 0.868499 16.4235 0.75 16.125 0.75H6.75V4.875C6.75 5.01675 6.66975 5.14725 6.543 5.21025C6.4155 5.274 6.264 5.2605 6.15 5.175L4.875 4.21875L3.6 5.175C3.486 5.2605 3.3345 5.274 3.207 5.21025C3.08025 5.14725 3 5.01675 3 4.875V0.75ZM3.375 15H14.625C14.832 15 15 14.832 15 14.625C15 14.418 14.832 14.25 14.625 14.25H3.375C3.168 14.25 3 14.418 3 14.625C3 14.832 3.168 15 3.375 15ZM3.375 12.75H14.625C14.832 12.75 15 12.582 15 12.375C15 12.168 14.832 12 14.625 12H3.375C3.168 12 3 12.168 3 12.375C3 12.582 3.168 12.75 3.375 12.75ZM3.375 10.5H14.625C14.832 10.5 15 10.332 15 10.125C15 9.918 14.832 9.75 14.625 9.75H3.375C3.168 9.75 3 9.918 3 10.125C3 10.332 3.168 10.5 3.375 10.5ZM3.375 8.25H14.625C14.832 8.25 15 8.082 15 7.875C15 7.668 14.832 7.5 14.625 7.5H3.375C3.168 7.5 3 7.668 3 7.875C3 8.082 3.168 8.25 3.375 8.25ZM6 0.75V4.125L5.1 3.45C4.9665 3.35025 4.7835 3.35025 4.65 3.45L3.75 4.125V0.75H6Z" fill="#121212"/>
</svg>
