<svg width="24" height="24" viewBox="0 0 24 24" fill="none" xmlns="http://www.w3.org/2000/svg">
<path d="M4.40436 20H20.5939C20.8182 20 20.9983 19.8182 20.9983 19.5956V3.40436C20.9983 3.18009 20.8165 3 20.5939 3H4.40436C4.18009 3 4 3.18179 4 3.40436V19.5939C4 19.8182 4.18179 19.9983 4.40436 19.9983V20ZM4.80871 3.81041H20.1896V19.1913H4.80871V3.81041Z" fill="#121212"/>
<path d="M9.66653 5.0235C9.66653 4.79923 9.48474 4.61914 9.26217 4.61914H6.02391C5.97124 4.61914 5.91858 4.62933 5.86931 4.64972C5.82343 4.66841 5.78266 4.69729 5.74698 4.73127C5.74358 4.73467 5.74018 4.73467 5.73848 4.73807C5.73339 4.74317 5.73169 4.74826 5.72829 4.75336C5.69771 4.78734 5.67052 4.82472 5.65184 4.86889C5.63145 4.91816 5.61956 4.97253 5.62125 5.0252V8.26176C5.62125 8.48602 5.80305 8.66611 6.02561 8.66611C6.24818 8.66611 6.42997 8.48432 6.42997 8.26176V6.00041L8.97674 8.54718C9.05659 8.62704 9.15853 8.66611 9.26217 8.66611C9.36581 8.66611 9.46944 8.62704 9.5476 8.54718C9.7056 8.38918 9.7056 8.13263 9.5476 7.97463L7.00083 5.42786H9.26217C9.48643 5.42786 9.66653 5.24606 9.66653 5.0235Z" fill="#121212"/>
<path d="M18.9746 14.334C18.7504 14.334 18.5703 14.5158 18.5703 14.7383V16.9997L16.0235 14.4529C15.8655 14.2949 15.609 14.2949 15.451 14.4529C15.293 14.6109 15.293 14.8675 15.451 15.0255L17.9977 17.5722H15.7364C15.5121 17.5722 15.332 17.754 15.332 17.9766C15.332 18.1992 15.5138 18.381 15.7364 18.381H18.9746C19.0273 18.381 19.08 18.3708 19.1293 18.3504C19.1751 18.3317 19.2159 18.3028 19.2516 18.2688C19.255 18.2654 19.2584 18.2654 19.2601 18.262C19.2652 18.2569 19.2669 18.2518 19.2703 18.2467C19.3009 18.2128 19.328 18.1754 19.3467 18.1312C19.3671 18.0819 19.379 18.0276 19.3773 17.9749V14.7383C19.3773 14.5141 19.1955 14.334 18.9729 14.334H18.9746Z" fill="#121212"/>
</svg>
