<svg width="24" height="24" viewBox="0 0 24 24" fill="none" xmlns="http://www.w3.org/2000/svg">
<path fill-rule="evenodd" clip-rule="evenodd" d="M20.0964 12.6545C20.5611 12.6545 20.9787 12.3723 21.1521 11.9417C21.3258 11.5108 21.22 11.018 20.8854 10.696C18.8958 8.78333 15.2306 5.25888 13.4321 3.52946C12.6977 2.82351 11.5369 2.82351 10.8025 3.52946C9.00408 5.25888 5.33889 8.78333 3.34925 10.696C3.01467 11.018 2.90883 11.5108 3.08257 11.9417C3.25593 12.3723 3.67358 12.6545 4.13827 12.6545H4.53051V19.1033C4.53051 20.1507 5.37986 21 6.42722 21H17.8074C18.8548 21 19.7041 20.1507 19.7041 19.1033V12.6545H20.0964ZM20.0964 11.8958H19.3248C19.1154 11.8958 18.9455 12.0658 18.9455 12.2752V19.1033C18.9455 19.7319 18.436 20.2413 17.8074 20.2413H6.42722C5.79865 20.2413 5.28919 19.7319 5.28919 19.1033V12.2752C5.28919 12.0658 5.11925 11.8958 4.90985 11.8958H4.13827C3.98312 11.8958 3.84391 11.8017 3.78625 11.6584C3.72859 11.5146 3.76349 11.3503 3.87501 11.243L11.3287 4.07647C11.7691 3.65275 12.4656 3.65275 12.906 4.07647C14.7048 5.80589 18.37 9.33034 20.3596 11.243C20.4712 11.3503 20.5061 11.5146 20.4484 11.6584C20.3907 11.8017 20.2515 11.8958 20.0964 11.8958Z" fill="#121212"/>
<path fill-rule="evenodd" clip-rule="evenodd" d="M12.117 8.86133C9.39521 8.86133 7.18555 11.071 7.18555 13.7928C7.18555 16.5145 9.39521 18.7242 12.117 18.7242C14.8387 18.7242 17.0484 16.5145 17.0484 13.7928C17.0484 11.071 14.8387 8.86133 12.117 8.86133ZM12.117 9.62001C14.42 9.62001 16.2897 11.4898 16.2897 13.7928C16.2897 16.0957 14.42 17.9655 12.117 17.9655C9.814 17.9655 7.94423 16.0957 7.94423 13.7928C7.94423 11.4898 9.814 9.62001 12.117 9.62001Z" fill="#121212"/>
<path fill-rule="evenodd" clip-rule="evenodd" d="M11.7383 11.1372V14.9306C11.7383 15.14 11.9082 15.3099 12.1176 15.3099C12.327 15.3099 12.497 15.14 12.497 14.9306V11.1372C12.497 10.9278 12.327 10.7578 12.1176 10.7578C11.9082 10.7578 11.7383 10.9278 11.7383 11.1372Z" fill="#121212"/>
<path d="M12.1176 16.827C12.3271 16.827 12.497 16.6572 12.497 16.4477C12.497 16.2382 12.3271 16.0684 12.1176 16.0684C11.9081 16.0684 11.7383 16.2382 11.7383 16.4477C11.7383 16.6572 11.9081 16.827 12.1176 16.827Z" fill="#121212"/>
</svg>
