<svg width="33" height="32" viewBox="0 0 33 32" fill="none" xmlns="http://www.w3.org/2000/svg">
<path fill-rule="evenodd" clip-rule="evenodd" d="M18.5281 18.9691L19.3946 19.5108L19.8104 18.8466L13.464 14.879L7.11761 18.8466L7.53337 19.5108L13.3237 15.891C13.4052 15.8385 13.5133 15.8342 13.6011 15.8887L18.5281 18.9691ZM23.0171 18.0396H24.3599C24.5035 18.0396 24.6198 18.1558 24.6198 18.2993V19.6413C24.6198 19.7848 24.5035 19.9011 24.3599 19.9011H23.0171C22.8735 19.9011 22.7572 19.7848 22.7572 19.6413V18.2993C22.7572 18.1561 22.8738 18.0396 23.0171 18.0396ZM24.1 18.5591H23.277V19.3816H24.1V18.5591ZM23.0171 21.2009H24.3599C24.5035 21.2009 24.6198 21.3171 24.6198 21.4606V22.8027C24.6198 22.9462 24.5035 23.0624 24.3599 23.0624H23.0171C22.8735 23.0624 22.7572 22.9462 22.7572 22.8027V21.4606C22.7572 21.3171 22.8738 21.2009 23.0171 21.2009ZM24.1 21.7204H23.277V22.5429H24.1V21.7204ZM16.1952 9.21333H19.4006V9.73284H16.1952V9.21333ZM16.1952 7.84255H19.4006V8.36206H16.1952V7.84255ZM14.0296 11.9549H14.9824V12.4744H14.0296V11.9549ZM14.0296 10.5841H14.9824V11.1036H14.0296V10.5841ZM14.0296 9.21333H14.9824V9.73284H14.0296V9.21333ZM14.0296 7.84255H14.9824V8.36206H14.0296V7.84255ZM12.2495 15.0267V6.25976C12.2495 6.11625 12.3658 6 12.5094 6H20.9206C21.0642 6 21.1805 6.11625 21.1805 6.25976V12.8059L26.3567 15.9995C26.4417 16.0423 26.5 16.1303 26.5 16.2318V25.7402H26.499C26.499 25.883 26.3832 25.999 26.2401 25.999L9.31796 26C8.72285 26 8.26431 25.4792 8.26431 24.881V19.6656L7.58765 20.0886C7.46607 20.1641 7.30598 20.1271 7.23018 20.0054L6.53926 18.9016C6.46346 18.7801 6.50073 18.6201 6.62256 18.5443L12.2495 15.0267ZM20.6609 12.4854L17.8865 10.7736C17.7126 10.6664 17.4912 10.7936 17.4915 10.9939H17.4905V16.7848L13.6043 14.3555C13.5228 14.303 13.4147 14.2987 13.3269 14.3532L12.7693 14.7017V6.51951H20.6607V12.4854H20.6609ZM18.5048 25.469C18.6052 25.2977 18.6634 25.096 18.6634 24.8807V19.6656L19.3401 20.0886C19.4617 20.1641 19.6218 20.1271 19.6976 20.0054L20.3885 18.9016C20.464 18.7801 20.427 18.6201 20.3052 18.5443L18.0103 17.1098V11.4584L25.9802 16.3758V25.4812L18.5048 25.469ZM8.78463 19.3406L13.464 16.415L18.1436 19.3406V24.8807C18.1436 25.1942 17.9175 25.4802 17.6098 25.4802H15.2333V21.4426C15.2333 21.2991 15.117 21.1829 14.9734 21.1829H11.9546C11.811 21.1829 11.6947 21.2991 11.6947 21.4426V25.4802H9.31821C9.01077 25.4802 8.78438 25.194 8.78438 24.8807L8.78463 19.3406ZM12.2145 25.4805H14.7135V21.7026H12.2145V25.4805Z" fill="#606060"/>
</svg>
