<svg width="24" height="24" viewBox="0 0 24 24" fill="none" xmlns="http://www.w3.org/2000/svg">
<rect width="24" height="24" rx="12" fill="#BFDFFF"/>
<path d="M13.5513 9.52513H14.2198C14.3605 9.52513 14.4742 9.41141 14.4742 9.27075C14.4742 9.13008 14.3605 9.01636 14.2198 9.01636H13.5513C13.4106 9.01636 13.2969 9.13008 13.2969 9.27075C13.2969 9.41081 13.4106 9.52513 13.5513 9.52513Z" fill="#000054"/>
<path d="M11.7895 9.52513H12.4581C12.5988 9.52513 12.7125 9.41141 12.7125 9.27075C12.7125 9.13008 12.5988 9.01636 12.4581 9.01636H11.7895C11.6489 9.01636 11.5352 9.13008 11.5352 9.27075C11.5352 9.41081 11.6489 9.52513 11.7895 9.52513Z" fill="#000054"/>
<path d="M13.5513 10.6995H14.2198C14.3605 10.6995 14.4742 10.5857 14.4742 10.4451C14.4742 10.3044 14.3605 10.1907 14.2198 10.1907H13.5513C13.4106 10.1907 13.2969 10.3044 13.2969 10.4451C13.2969 10.5851 13.4106 10.6995 13.5513 10.6995Z" fill="#000054"/>
<path d="M13.5513 11.8738H14.2198C14.3605 11.8738 14.4742 11.76 14.4742 11.6194C14.4742 11.4787 14.3605 11.365 14.2198 11.365H13.5513C13.4106 11.365 13.2969 11.4787 13.2969 11.6194C13.2969 11.76 13.4106 11.8738 13.5513 11.8738Z" fill="#000054"/>
<path d="M14.2198 13.7137H13.5513C13.4106 13.7137 13.2969 13.8275 13.2969 13.9681C13.2969 14.1088 13.4106 14.2225 13.5513 14.2225H14.2198C14.3605 14.2225 14.4742 14.1088 14.4742 13.9681C14.4742 13.8281 14.3605 13.7137 14.2198 13.7137Z" fill="#000054"/>
<path d="M14.2198 14.8881H13.5513C13.4106 14.8881 13.2969 15.0018 13.2969 15.1425C13.2969 15.2831 13.4106 15.3968 13.5513 15.3968H14.2198C14.3605 15.3968 14.4742 15.2831 14.4742 15.1425C14.4742 15.0024 14.3605 14.8881 14.2198 14.8881Z" fill="#000054"/>
<path d="M17.7464 11.3649H15.6904V8.0598C15.6904 7.95326 15.6246 7.85809 15.5246 7.82157L10.6627 6.01579C10.5849 5.98706 10.4975 5.99783 10.4287 6.04571C10.3605 6.093 10.3198 6.17081 10.3198 6.25401V10.6749C10.0899 10.7827 9.87446 10.9317 9.68472 11.1209C9.60751 11.1981 9.53748 11.2795 9.47284 11.3651H8.26438C8.12372 11.3651 8.00999 11.4788 8.00999 11.6195V14.7097L6.18735 16.5312C6.06645 16.6515 6 16.8119 6 16.9831C6 17.1536 6.06644 17.3147 6.18735 17.435L6.56624 17.8132C6.69073 17.9377 6.85473 18 7.01814 18C7.18213 18 7.34554 17.9378 7.47003 17.8132L8.26849 17.0154H17.7464C17.887 17.0154 18.0008 16.9017 18.0008 16.761V11.6195C18.0008 11.4788 17.887 11.3651 17.7464 11.3651L17.7464 11.3649ZM10.8285 6.61961L15.1817 8.23631V16.5065H10.8285V14.9328C10.9788 14.9633 11.1314 14.9789 11.284 14.9789C11.396 14.9789 11.5079 14.9705 11.6186 14.9538C11.5671 15.0004 11.5348 15.0675 11.5348 15.1423C11.5348 15.283 11.6485 15.3967 11.7892 15.3967H12.4578C12.5984 15.3967 12.7122 15.283 12.7122 15.1423C12.7122 15.0017 12.5984 14.8879 12.4578 14.8879H11.9203C12.2728 14.785 12.6056 14.5952 12.8834 14.3175C13.2323 13.9686 13.4532 13.5256 13.5226 13.0456C13.5322 13.0468 13.5424 13.0474 13.5525 13.0474H14.2211C14.3618 13.0474 14.4755 12.9337 14.4755 12.793C14.4755 12.6523 14.3618 12.5386 14.2211 12.5386H13.5525C13.5477 12.5386 13.5436 12.5392 13.5388 12.5392C13.4969 12.0029 13.2682 11.5043 12.884 11.1201C12.708 10.9441 12.5099 10.804 12.2986 10.6987H12.4584C12.5991 10.6987 12.7128 10.585 12.7128 10.4443C12.7128 10.3036 12.5991 10.1899 12.4584 10.1899H11.7898C11.6492 10.1899 11.5354 10.3036 11.5354 10.4443C11.5354 10.4545 11.536 10.4641 11.5372 10.4736C11.3014 10.4473 11.062 10.4581 10.8292 10.5054L10.8285 6.61961ZM11.284 10.9681C11.7329 10.9681 12.1818 11.1386 12.5236 11.4804C12.8546 11.8114 13.0372 12.2513 13.0372 12.7194C13.0378 13.1875 12.8552 13.6274 12.5242 13.9584C11.8407 14.6419 10.7279 14.6419 10.0444 13.9584C9.71337 13.6274 9.53081 13.1875 9.53081 12.7194C9.53081 12.2513 9.71337 11.8114 10.0444 11.4804C10.3861 11.1392 10.8351 10.9681 11.284 10.9681ZM9.18557 11.8737C9.07843 12.1388 9.02217 12.4249 9.02217 12.7194C9.02217 13.2377 9.19575 13.7291 9.51477 14.1278L9.00002 14.6419L8.99044 14.6323C8.86055 14.5025 8.68817 14.4408 8.51759 14.4462V11.8731L9.18557 11.8737ZM7.11103 17.4533C7.06015 17.5042 6.97695 17.5042 6.92608 17.4533L6.5472 17.075C6.52266 17.0505 6.50889 17.0175 6.50889 16.9828C6.50889 16.9481 6.52266 16.9152 6.5472 16.8906L8.44645 14.9926C8.47219 14.9669 8.50571 14.9543 8.53923 14.9543C8.57274 14.9543 8.60626 14.9669 8.632 14.9926L9.01089 15.3709C9.03543 15.3954 9.04919 15.4284 9.04919 15.4631C9.04919 15.4978 9.03543 15.5307 9.01089 15.5553L7.11103 17.4533ZM9.36991 15.915C9.49081 15.7941 9.55726 15.6337 9.55726 15.4631C9.55726 15.2925 9.49082 15.1315 9.36991 15.0112L9.36093 15.0023L9.87568 14.4881C10.0151 14.5994 10.1642 14.6916 10.3204 14.7652V16.5076H8.77862L9.36991 15.915ZM17.4922 16.5064H15.6905V11.8737H17.4922V16.5064Z" fill="#000054"/>
<path d="M16.3794 13.0481H16.8038C16.9444 13.0481 17.0581 12.9344 17.0581 12.7937C17.0581 12.653 16.9444 12.5393 16.8038 12.5393H16.3794C16.2387 12.5393 16.125 12.653 16.125 12.7937C16.125 12.9344 16.2387 13.0481 16.3794 13.0481Z" fill="#000054"/>
<path d="M16.3794 14.2224H16.8038C16.9444 14.2224 17.0581 14.1087 17.0581 13.968C17.0581 13.8273 16.9444 13.7136 16.8038 13.7136H16.3794C16.2387 13.7136 16.125 13.8273 16.125 13.968C16.125 14.1087 16.2393 14.2224 16.3794 14.2224Z" fill="#000054"/>
<path d="M16.8038 14.8881H16.3794C16.2387 14.8881 16.125 15.0018 16.125 15.1425C16.125 15.2831 16.2387 15.3968 16.3794 15.3968H16.8038C16.9444 15.3968 17.0581 15.2831 17.0581 15.1425C17.0581 15.0024 16.9444 14.8881 16.8038 14.8881Z" fill="#000054"/>
</svg>
