<svg width="24" height="24" viewBox="0 0 24 24" fill="none" xmlns="http://www.w3.org/2000/svg">
<rect width="24" height="24" rx="12" fill="#BFDFFF"/>
<path d="M12.0118 8.52356C10.0852 8.52366 8.52354 10.0853 8.52344 12.0119C8.52354 13.9386 10.0852 15.5002 12.0118 15.5003C13.9384 15.5002 15.5001 13.9386 15.5002 12.0119C15.5001 10.0853 13.9384 8.52366 12.0118 8.52356ZM14.2463 14.2464C13.6739 14.8185 12.885 15.1719 12.0118 15.172C11.1387 15.1719 10.3497 14.8185 9.77731 14.2464C9.2052 13.674 8.85184 12.8851 8.85175 12.0119C8.85184 11.1388 9.2052 10.3498 9.77731 9.77743C10.3497 9.20532 11.1387 8.85196 12.0118 8.85188C12.885 8.85196 13.6739 9.20532 14.2463 9.77743C14.8184 10.3498 15.1718 11.1388 15.1719 12.0119C15.1718 12.8851 14.8184 13.674 14.2463 14.2464Z" fill="#000054" stroke="#000054" stroke-width="0.2"/>
<path d="M13.2735 10.1749C13.2735 10.0827 13.2001 10.0079 13.1095 10.0079H10.914C10.8234 10.0079 10.75 10.0827 10.75 10.1749C10.75 10.2672 10.8234 10.3419 10.914 10.3419H11.6197C11.7725 10.342 11.9004 10.3722 12.0087 10.4228C12.1706 10.4988 12.2913 10.6216 12.3748 10.7745C12.4325 10.8804 12.4697 11.0011 12.4879 11.126H10.914C10.8234 11.126 10.75 11.2008 10.75 11.293C10.75 11.3852 10.8234 11.46 10.914 11.46H12.4888C12.462 11.6451 12.3907 11.8197 12.2787 11.9539C12.206 12.0412 12.1168 12.1127 12.0087 12.1633C11.9004 12.2139 11.7725 12.2441 11.6197 12.2442L11.1492 12.2443C11.0799 12.2443 11.0181 12.2886 10.9948 12.3551C10.9715 12.4216 10.9917 12.4958 11.0454 12.5405L12.7705 13.9781C12.8406 14.0365 12.9439 14.026 13.0012 13.9546C13.0585 13.8832 13.0482 13.778 12.9781 13.7196L11.6084 12.5782L11.6197 12.5782C11.8154 12.5783 11.9924 12.5386 12.1456 12.4669C12.3758 12.3594 12.5491 12.1809 12.6616 11.9735C12.7478 11.8148 12.7998 11.6392 12.8197 11.46H13.1095C13.2001 11.46 13.2735 11.3852 13.2735 11.293C13.2735 11.2008 13.2001 11.126 13.1095 11.126H12.8188C12.7902 10.8686 12.6962 10.6182 12.529 10.4164C12.5075 10.3905 12.4841 10.366 12.4602 10.3419H13.1095C13.2001 10.3419 13.2735 10.2672 13.2735 10.1749Z" fill="#000054" stroke="#000054" stroke-width="0.2"/>
<path d="M12 18C13.0292 18.0004 14.0413 17.7361 14.9388 17.2324C15.8364 16.7286 16.5893 16.0025 17.1252 15.1238C17.661 14.245 17.9618 13.2432 17.9986 12.2146C18.0354 11.186 17.807 10.1653 17.3354 9.25044C16.8637 8.33563 16.1646 7.55753 15.3054 6.99095C14.4461 6.42436 13.4556 6.08834 12.4289 6.01518C11.4023 5.94202 10.3741 6.13419 9.44317 6.57321C8.51225 7.01223 7.70992 7.68333 7.11331 8.52202L7.06136 7.30183L6.61603 7.32113L6.71103 9.54775L8.84562 8.91094L8.71796 8.48491L7.41168 8.87383C8.16095 7.77611 9.27916 6.98362 10.5631 6.64035C11.8471 6.29708 13.2116 6.4258 14.4087 7.00314C15.6058 7.58047 16.556 8.5681 17.0868 9.78657C17.6176 11.005 17.6936 12.3735 17.3011 13.6433C16.9086 14.913 16.0736 15.9999 14.9478 16.7063C13.822 17.4127 12.4802 17.6918 11.1661 17.4929C9.85204 17.2939 8.65292 16.6302 7.78665 15.6223C6.92038 14.6143 6.44444 13.3291 6.44532 12H6C6.00157 13.5908 6.63422 15.116 7.7591 16.2409C8.88397 17.3658 10.4092 17.9984 12 18Z" fill="#000054"/>
</svg>
