<svg width="64" height="32" viewBox="0 0 64 32" fill="none" xmlns="http://www.w3.org/2000/svg">
<rect width="64" height="32" rx="16" fill="#BFDFFF"/>
<path d="M29.4368 6C25.3357 6 22 9.33566 22 13.4368C22 17.538 25.3357 20.8737 29.4368 20.8737C31.3042 20.8737 33.0104 20.1785 34.3173 19.0385L41.129 25.8503C41.3185 26.0454 41.667 26.0516 41.8583 25.8583C42.0496 25.6649 42.0475 25.3084 41.8503 25.121L35.0465 18.3173C36.1845 17.0109 36.8737 15.3023 36.8737 13.4368C36.8737 9.33566 33.538 6 29.4368 6ZM29.4368 7.02577C32.9837 7.02577 35.8479 9.89003 35.8479 13.4368C35.8479 16.9836 32.9837 19.8479 29.4368 19.8479C25.89 19.8479 23.0258 16.9836 23.0258 13.4368C23.0258 9.89003 25.89 7.02577 29.4368 7.02577Z" fill="#000054"/>
</svg>
