<svg width="32" height="32" viewBox="0 0 32 32" fill="none" xmlns="http://www.w3.org/2000/svg">
<path d="M13.4368 6C9.33566 6 6 9.33566 6 13.4368C6 17.538 9.33566 20.8737 13.4368 20.8737C15.3042 20.8737 17.0104 20.1785 18.3173 19.0385L25.129 25.8503C25.3185 26.0454 25.667 26.0516 25.8583 25.8583C26.0496 25.6649 26.0475 25.3084 25.8503 25.121L19.0465 18.3173C20.1845 17.0109 20.8737 15.3023 20.8737 13.4368C20.8737 9.33566 17.538 6 13.4368 6ZM13.4368 7.02577C16.9837 7.02577 19.8479 9.89003 19.8479 13.4368C19.8479 16.9836 16.9837 19.8479 13.4368 19.8479C9.89003 19.8479 7.02577 16.9836 7.02577 13.4368C7.02577 9.89003 9.89003 7.02577 13.4368 7.02577Z" fill="#606060"/>
</svg>
