<svg width="24" height="24" viewBox="0 0 24 24" fill="none" xmlns="http://www.w3.org/2000/svg">
<path d="M10.1443 6.629C10.931 4.668 11.3243 3.6875 12.0006 3.6875C12.6769 3.6875 13.0702 4.668 13.8568 6.629L13.8934 6.72031C14.3378 7.82818 14.56 8.38212 15.0129 8.7188C15.4657 9.05549 16.0602 9.10873 17.2491 9.21521L17.464 9.23446C19.4099 9.40872 20.3828 9.49585 20.5909 10.1148C20.7991 10.7338 20.0766 11.3912 18.6316 12.7058L18.1493 13.1446C17.4178 13.8101 17.052 14.1429 16.8815 14.579C16.8497 14.6604 16.8233 14.7437 16.8024 14.8285C16.6903 15.2832 16.7975 15.7659 17.0117 16.7314L17.0783 17.0319C17.472 18.8063 17.6688 19.6934 17.3252 20.0761C17.1967 20.2191 17.0298 20.322 16.8444 20.3726C16.3482 20.508 15.6437 19.934 14.2348 18.7859C13.3096 18.032 12.847 17.6551 12.3159 17.5703C12.107 17.5369 11.8941 17.5369 11.6852 17.5703C11.1541 17.6551 10.6915 18.032 9.76638 18.7859C8.35742 19.934 7.65295 20.508 7.15675 20.3726C6.97133 20.322 6.80442 20.2191 6.676 20.0761C6.33232 19.6934 6.52915 18.8063 6.92283 17.0319L6.9895 16.7314C7.20371 15.7659 7.31082 15.2832 7.19876 14.8285C7.17786 14.7437 7.15142 14.6604 7.11962 14.579C6.94915 14.1429 6.5834 13.8101 5.85189 13.1446L5.36961 12.7059C3.92456 11.3912 3.20204 10.7338 3.41022 10.1148C3.6184 9.49585 4.59131 9.40872 6.53712 9.23446L6.75206 9.21521C7.94097 9.10873 8.53543 9.05549 8.98828 8.7188C9.44113 8.38212 9.66333 7.82818 10.1077 6.72031L10.1443 6.629Z" stroke="#121212"/>
</svg>
