<svg width="33" height="32" viewBox="0 0 33 32" fill="none" xmlns="http://www.w3.org/2000/svg">
<path d="M19.2782 26V20.3333C19.2782 19.781 18.8305 19.3333 18.2782 19.3333H14.7227C14.1704 19.3333 13.7227 19.781 13.7227 20.3333V26" stroke="#606060" stroke-linecap="round" stroke-linejoin="round"/>
<path d="M8.72266 14.8889V22C8.72266 23.8856 8.72266 24.8284 9.30844 25.4142C9.89423 26 10.837 26 12.7227 26H20.2782C22.1638 26 23.1066 26 23.6924 25.4142C24.2782 24.8284 24.2782 23.8856 24.2782 22V14.8889" stroke="#606060"/>
<path d="M8.34349 7.51493C8.52538 6.78737 8.61633 6.42359 8.88759 6.21179C9.15885 6 9.53382 6 10.2838 6H22.7162C23.4662 6 23.8412 6 24.1124 6.21179C24.3837 6.42359 24.4746 6.78737 24.6565 7.51493L26.0359 13.0326C26.1751 13.5893 26.2447 13.8676 26.1986 14.0909C26.1356 14.3963 25.9338 14.6548 25.6528 14.79C25.4473 14.8889 25.1552 14.8889 24.5712 14.8889V14.8889C23.7999 14.8889 23.4143 14.8889 23.0972 14.7794C22.6249 14.6164 22.2308 14.2825 21.9923 13.8434C21.8322 13.5486 21.7699 13.1748 21.6453 12.4273V12.4273C21.6104 12.218 21.593 12.1133 21.5675 12.09C21.5293 12.0551 21.4707 12.0551 21.4325 12.09C21.407 12.1133 21.3896 12.218 21.3547 12.4273L21.2641 12.9709C21.2253 13.2037 21.2059 13.3202 21.1783 13.4203C20.9595 14.2142 20.2765 14.7928 19.4574 14.8781C19.3541 14.8889 19.236 14.8889 19 14.8889V14.8889C18.764 14.8889 18.6459 14.8889 18.5426 14.8781C17.7236 14.7928 17.0405 14.2142 16.8217 13.4203C16.7941 13.3202 16.7747 13.2037 16.7359 12.9709L16.6453 12.4273C16.6104 12.218 16.593 12.1133 16.5675 12.09C16.5293 12.0551 16.4707 12.0551 16.4325 12.09C16.407 12.1133 16.3896 12.218 16.3547 12.4273L16.2641 12.9709C16.2253 13.2037 16.2059 13.3202 16.1783 13.4203C15.9595 14.2142 15.2765 14.7928 14.4574 14.8781C14.3541 14.8889 14.236 14.8889 14 14.8889V14.8889C13.764 14.8889 13.6459 14.8889 13.5426 14.8781C12.7236 14.7928 12.0405 14.2142 11.8217 13.4203C11.7941 13.3202 11.7747 13.2037 11.7359 12.9709L11.6453 12.4273C11.6104 12.218 11.593 12.1133 11.5675 12.09C11.5293 12.0551 11.4707 12.0551 11.4325 12.09C11.407 12.1133 11.3896 12.218 11.3547 12.4273V12.4273C11.2301 13.1748 11.1678 13.5486 11.0077 13.8434C10.7692 14.2825 10.3751 14.6164 9.90281 14.7794C9.58568 14.8889 9.20005 14.8889 8.42879 14.8889V14.8889C7.84475 14.8889 7.55273 14.8889 7.34723 14.79C7.06625 14.6548 6.8644 14.3963 6.8014 14.0909C6.75533 13.8676 6.8249 13.5893 6.96406 13.0326L8.34349 7.51493Z" stroke="#606060"/>
</svg>
