<svg width="17" height="13" viewBox="0 0 17 13" fill="none" xmlns="http://www.w3.org/2000/svg">
<path d="M8.49885 0C7.84025 0 7.3024 0.543803 7.3024 1.20333C7.3024 1.86285 7.84025 2.40379 8.49885 2.40379C9.15746 2.40379 9.6976 1.86285 9.6976 1.20333C9.6976 0.543803 9.15746 0 8.49885 0ZM8.49885 0.586207C8.83907 0.586207 9.11139 0.859037 9.11139 1.20333C9.11139 1.54762 8.83907 1.81758 8.49885 1.81758C8.15864 1.81758 7.8886 1.54762 7.8886 1.20333C7.8886 0.859037 8.15864 0.586207 8.49885 0.586207ZM1.19646 1.7569C0.537849 1.7569 0 2.29842 0 2.95794C0 3.61746 0.537849 4.1607 1.19646 4.1607C1.85506 4.1607 2.3952 3.61746 2.3952 2.95794C2.3952 2.29842 1.85506 1.7569 1.19646 1.7569ZM15.8035 1.7569C15.1449 1.7569 14.6048 2.29842 14.6048 2.95794C14.6048 3.61746 15.1449 4.1607 15.8035 4.1607C16.4621 4.1607 17 3.61746 17 2.95794C17 2.29842 16.4621 1.7569 15.8035 1.7569ZM1.19646 2.34139C1.53667 2.34139 1.809 2.61365 1.809 2.95794C1.809 3.30223 1.53667 3.57449 1.19646 3.57449C0.856241 3.57449 0.586779 3.30223 0.586779 2.95794C0.586779 2.61365 0.856241 2.34139 1.19646 2.34139ZM15.8035 2.34139C16.1438 2.34139 16.4138 2.61365 16.4138 2.95794C16.4138 3.30223 16.1438 3.57449 15.8035 3.57449C15.4633 3.57449 15.191 3.30223 15.191 2.95794C15.191 2.61365 15.4633 2.34139 15.8035 2.34139ZM8.49885 2.79536C8.44959 2.79551 8.40116 2.80807 8.35804 2.83188C8.31491 2.8557 8.27849 2.88999 8.25212 2.93161L5.74929 6.87419L2.51199 4.27576C2.46368 4.23646 2.40411 4.21358 2.34191 4.21041C2.27972 4.20725 2.21813 4.22397 2.16608 4.25816C2.11403 4.29235 2.07423 4.34223 2.05243 4.40056C2.03063 4.4589 2.02798 4.52266 2.04485 4.5826L3.60826 10.2037C3.21607 10.4129 2.94706 10.8275 2.94706 11.3011C2.94706 11.983 3.50391 12.5428 4.18474 12.5428H12.8153C13.4961 12.5428 14.0529 11.983 14.0529 11.3011C14.0529 10.8272 13.7843 10.4122 13.3917 10.2031L14.9551 4.5826C14.972 4.52266 14.9694 4.4589 14.9476 4.40056C14.9258 4.34223 14.886 4.29235 14.8339 4.25816C14.7819 4.22397 14.7203 4.20725 14.6581 4.21041C14.5959 4.21358 14.5363 4.23646 14.488 4.27576L11.2513 6.87419L8.74788 2.93161C8.7213 2.88967 8.68451 2.85516 8.64096 2.83133C8.5974 2.8075 8.5485 2.79512 8.49885 2.79536ZM8.50115 3.63517L10.933 7.46498C10.9551 7.49976 10.9844 7.52948 11.0188 7.5522C11.0532 7.57492 11.092 7.59013 11.1327 7.59683C11.1733 7.60353 11.215 7.60157 11.2548 7.59108C11.2947 7.58059 11.3319 7.56181 11.3641 7.53597L14.1462 5.30105L12.8244 10.0588H4.17615L2.85432 5.30105L5.63652 7.53596C5.66862 7.56171 5.7058 7.58041 5.74561 7.59085C5.78543 7.60128 5.82699 7.60321 5.8676 7.59651C5.90821 7.58982 5.94696 7.57464 5.98131 7.55198C6.01567 7.52932 6.04487 7.49967 6.06701 7.46498L8.50115 3.63517ZM4.18474 10.6456H12.8153C13.1799 10.6456 13.4667 10.9323 13.4667 11.3011C13.4667 11.6699 13.1799 11.9566 12.8153 11.9566H4.18474C3.8201 11.9566 3.53327 11.6699 3.53327 11.3011C3.53327 10.9323 3.82011 10.6456 4.18474 10.6456Z" fill="#121212"/>
</svg>
