<svg width="24" height="24" viewBox="0 0 24 24" fill="none" xmlns="http://www.w3.org/2000/svg">
<rect width="24" height="24" rx="12" fill="#BFDFFF"/>
<path d="M9.77822 6.40287H14.6578V12.2349C14.6578 12.3461 14.7481 12.4363 14.8593 12.4363C14.9705 12.4363 15.0607 12.3461 15.0607 12.2349V6.20144C15.0607 6.09011 14.9705 6 14.8593 6H9.77822C9.66689 6 9.57678 6.09011 9.57678 6.20144C9.57678 6.31263 9.66702 6.40287 9.77822 6.40287ZM8.35983 9.75532H12.6236C12.7348 9.75532 12.825 9.66508 12.825 9.55388C12.825 9.44256 12.7348 9.35245 12.6236 9.35245H8.35983C8.24851 9.35245 8.1584 9.44256 8.1584 9.55388C8.1584 9.66508 8.24851 9.75532 8.35983 9.75532ZM8.35983 10.7716H12.6236C12.7348 10.7716 12.825 10.6814 12.825 10.5702C12.825 10.4589 12.7348 10.3688 12.6236 10.3688H8.35983C8.24851 10.3688 8.1584 10.4589 8.1584 10.5702C8.1584 10.6814 8.24851 10.7716 8.35983 10.7716ZM8.35983 11.7878H12.6236C12.7348 11.7878 12.825 11.6976 12.825 11.5864C12.825 11.4751 12.7348 11.3849 12.6236 11.3849H8.35983C8.24851 11.3849 8.1584 11.4751 8.1584 11.5864C8.1584 11.6976 8.24851 11.7878 8.35983 11.7878ZM11.3814 12.4011H8.35983C8.24851 12.4011 8.1584 12.4914 8.1584 12.6026C8.1584 12.7138 8.24851 12.804 8.35983 12.804H11.3814C11.4927 12.804 11.5828 12.7138 11.5828 12.6026C11.5828 12.4914 11.4927 12.4011 11.3814 12.4011ZM10.5477 13.4173H8.35983C8.24851 13.4173 8.1584 13.5076 8.1584 13.6187C8.1584 13.7299 8.24851 13.8202 8.35983 13.8202H10.5477C10.659 13.8202 10.7491 13.7299 10.7491 13.6187C10.7491 13.5076 10.659 13.4173 10.5477 13.4173ZM14.718 14.1613L13.3227 15.8057L12.4311 15.0964C12.3444 15.0271 12.2175 15.0414 12.1482 15.1286C12.0789 15.2155 12.0934 15.3424 12.1804 15.4115L13.2245 16.2425C13.2615 16.2721 13.3058 16.2863 13.3498 16.2863C13.407 16.2863 13.4638 16.262 13.5036 16.2153L15.0251 14.4219C15.0971 14.3371 15.0868 14.21 15.0019 14.1381C14.9167 14.0659 14.7898 14.0765 14.718 14.1613ZM14.0954 12.4246V7.16672C14.0954 7.05553 14.0052 6.96529 13.894 6.96529H8.89149C8.84355 6.96529 8.79709 6.98247 8.76069 7.0135L7.07064 8.45726C7.02578 8.49553 7 8.5514 7 8.61049V16.2658C7 16.377 7.09011 16.4672 7.20144 16.4672H11.0248C11.0453 16.4672 11.0646 16.4633 11.0833 16.4577C11.548 17.3714 12.4953 18 13.5889 18C15.1391 18 16.4004 16.7386 16.4004 15.1882C16.4004 13.8111 15.4045 12.6642 14.0954 12.4246ZM10.7771 15.1882C10.7771 15.4943 10.8278 15.7882 10.9188 16.0642H7.40287V8.70328L8.96576 7.36816H13.6925V12.3818C13.6578 12.3804 13.6238 12.3766 13.5889 12.3766C12.0385 12.3766 10.7771 13.6378 10.7771 15.1882ZM13.5887 17.5971C12.2605 17.5971 11.1798 16.5165 11.1798 15.1882C11.1798 13.8599 12.2605 12.7793 13.5887 12.7793C14.917 12.7793 15.9975 13.8601 15.9975 15.1882C15.9975 16.5163 14.917 17.5971 13.5887 17.5971Z" fill="#000054" stroke="#000054" stroke-width="0.1"/>
</svg>
