<svg width="20" height="20" viewBox="0 0 20 20" fill="none" xmlns="http://www.w3.org/2000/svg">
<path d="M17.5787 16.2264C19.0101 14.485 19.8061 12.3079 19.8357 10.0536C19.8653 7.79922 19.1267 5.60197 17.7416 3.82362C16.3564 2.04528 14.4073 0.791864 12.2151 0.269758C10.0229 -0.252348 7.71842 -0.0120173 5.68099 0.951178C3.64355 1.91437 1.99469 3.54301 1.00588 5.56892C0.017071 7.59484 -0.252725 9.89725 0.240914 12.097C0.734553 14.2968 1.9622 16.2629 3.72171 17.6715C5.48122 19.08 7.66769 19.8471 9.92112 19.8465C11.5208 19.8465 18.4354 20.3056 19.7741 19.6359C21.0139 19.0062 16.7052 17.2899 17.5787 16.2264Z" fill="#FF8000"/>
<path d="M16.1296 6.39993C15.6785 5.90192 14.9086 5.8639 14.4102 6.31463L9.0357 11.1768L6.05515 8.34923C5.56744 7.88677 4.7969 7.90691 4.33429 8.39403C3.87167 8.88115 3.89163 9.65088 4.37913 10.1133L8.12446 13.6656C8.35999 13.8892 8.66113 14 8.96206 14C9.13115 14 9.30002 13.9638 9.45697 13.8939C9.63901 13.8463 9.81262 13.7554 9.96196 13.6202L16.044 8.11779C16.5426 7.66705 16.5807 6.89794 16.1296 6.39993Z" fill="white"/>
</svg>
