<svg width="14" height="14" viewBox="0 0 14 14" fill="none" xmlns="http://www.w3.org/2000/svg">
<path d="M7.00004 0C3.14031 0 4.51724e-05 3.14026 4.51724e-05 7C4.51724e-05 8.20522 0.311393 9.39035 0.901828 10.4361L0.011306 13.6135C-0.0179114 13.7179 0.010393 13.8299 0.0858713 13.9075C0.144002 13.9674 0.223132 14 0.304393 14C0.328741 14 0.353393 13.997 0.377436 13.9912L3.69361 13.1697C4.70618 13.7133 5.84657 14 7.00004 14C10.8598 14 14 10.8597 14 7C14 3.14026 10.8598 0 7.00004 0ZM10.5213 9.47009C10.3716 9.88461 9.65335 10.2629 9.30822 10.3137C8.99839 10.3591 8.60639 10.3786 8.17605 10.2434C7.91522 10.1613 7.58044 10.0523 7.15161 9.86939C5.34896 9.10061 4.17174 7.3083 4.08165 7.18991C3.99187 7.07152 3.34787 6.22787 3.34787 5.3547C3.34787 4.48152 3.812 4.05209 3.97696 3.87435C4.14191 3.69661 4.33639 3.65217 4.45631 3.65217C4.57622 3.65217 4.69583 3.6537 4.80083 3.65857C4.91131 3.66404 5.05952 3.61687 5.20531 3.96322C5.35505 4.3187 5.71448 5.19187 5.75891 5.28104C5.80396 5.36991 5.83378 5.4737 5.77413 5.59209C5.71448 5.71048 5.68465 5.78443 5.59457 5.88822C5.50448 5.992 5.40587 6.11952 5.32491 6.19926C5.23483 6.28783 5.14139 6.3837 5.24609 6.56143C5.35078 6.73917 5.71144 7.32017 6.24587 7.7907C6.93218 8.39513 7.51135 8.58261 7.69091 8.67148C7.87048 8.76035 7.97548 8.74543 8.08018 8.62704C8.18487 8.50835 8.52939 8.10874 8.649 7.9313C8.76861 7.75387 8.88852 7.78309 9.05348 7.84243C9.21844 7.90148 10.102 8.33061 10.2815 8.41948C10.4611 8.50835 10.581 8.55278 10.626 8.62674C10.6711 8.70039 10.6711 9.05587 10.5213 9.47009Z" fill="white"/>
</svg>
