<svg width="12" height="12" viewBox="0 0 12 12" fill="none" xmlns="http://www.w3.org/2000/svg">
<path d="M6.00004 0C2.69169 0 3.87192e-05 2.69165 3.87192e-05 6C3.87192e-05 7.03304 0.266908 8.04887 0.772995 8.94522L0.00969088 11.6687C-0.0153526 11.7582 0.0089083 11.8542 0.073604 11.9207C0.12343 11.9721 0.191256 12 0.260908 12C0.281778 12 0.302908 11.9974 0.323517 11.9924L3.16595 11.2883C4.03386 11.7543 5.01134 12 6.00004 12C9.30839 12 12 9.30835 12 6C12 2.69165 9.30839 0 6.00004 0ZM9.0183 8.11722C8.88995 8.47252 8.2743 8.79678 7.97847 8.84035C7.71291 8.87922 7.37691 8.89591 7.00804 8.78009C6.78447 8.70965 6.49752 8.61626 6.12995 8.45948C4.58482 7.80052 3.57578 6.26426 3.49856 6.16278C3.4216 6.0613 2.8696 5.33817 2.8696 4.58974C2.8696 3.8413 3.26743 3.47322 3.40882 3.32087C3.55021 3.16852 3.71691 3.13043 3.81969 3.13043C3.92247 3.13043 4.025 3.13174 4.115 3.13591C4.20969 3.14061 4.33673 3.10017 4.46169 3.39704C4.59004 3.70174 4.89813 4.45017 4.93621 4.52661C4.97482 4.60278 5.00039 4.69174 4.94926 4.79322C4.89813 4.8947 4.87256 4.95809 4.79534 5.04704C4.71813 5.136 4.6336 5.2453 4.56421 5.31365C4.487 5.38956 4.40691 5.47174 4.49665 5.62409C4.58639 5.77643 4.89552 6.27443 5.3536 6.67774C5.94186 7.19583 6.4383 7.35652 6.59221 7.4327C6.74613 7.50887 6.83613 7.49609 6.92586 7.39461C7.0156 7.29287 7.31091 6.95035 7.41343 6.79826C7.51595 6.64617 7.61873 6.67122 7.76013 6.72209C7.90152 6.7727 8.65882 7.14052 8.81273 7.2167C8.96665 7.29287 9.06943 7.33096 9.10804 7.39435C9.14665 7.45748 9.14665 7.76217 9.0183 8.11722Z" fill="white"/>
</svg>
