<svg width="24" height="24" viewBox="0 0 24 24" fill="none" xmlns="http://www.w3.org/2000/svg">
<circle cx="12" cy="12" r="12" fill="#FF0302"/>
<g clip-path="url(#clip0_706_3910)">
<path d="M18.1592 9.4931C18.0914 9.2378 17.9577 9.00481 17.7715 8.81742C17.5853 8.63004 17.3532 8.49485 17.0983 8.42537C16.1602 8.1731 12.4102 8.1731 12.4102 8.1731C12.4102 8.1731 8.66016 8.1731 7.72197 8.42537C7.46712 8.49485 7.23499 8.63004 7.0488 8.81742C6.86261 9.00481 6.72891 9.2378 6.66107 9.4931C6.41016 10.4354 6.41016 12.4004 6.41016 12.4004C6.41016 12.4004 6.41016 14.3654 6.66107 15.3076C6.72891 15.5629 6.86261 15.7959 7.0488 15.9833C7.23499 16.1707 7.46712 16.3059 7.72197 16.3754C8.66016 16.6276 12.4102 16.6276 12.4102 16.6276C12.4102 16.6276 16.1602 16.6276 17.0983 16.3754C17.3532 16.3059 17.5853 16.1707 17.7715 15.9833C17.9577 15.7959 18.0914 15.5629 18.1592 15.3076C18.4102 14.3654 18.4102 12.4004 18.4102 12.4004C18.4102 12.4004 18.4102 10.4354 18.1592 9.4931Z" fill="white"/>
<path d="M11.1836 14.1847V10.6161L14.32 12.4004L11.1836 14.1847Z" fill="#FF0302"/>
</g>
<defs>
<clipPath id="clip0_706_3910">
<rect width="12" height="12" fill="white" transform="translate(6.39844 6.40039)"/>
</clipPath>
</defs>
</svg>
