<svg width="30" height="30" viewBox="0 0 30 30" fill="none" xmlns="http://www.w3.org/2000/svg">
<circle cx="15" cy="15" r="15" fill="#FF0302"/>
<g clip-path="url(#clip0_189_1008)">
<path d="M22.702 11.8659C22.6172 11.5468 22.4501 11.2555 22.2173 11.0213C21.9846 10.7871 21.6944 10.6181 21.3759 10.5313C20.2031 10.2159 15.5156 10.2159 15.5156 10.2159C15.5156 10.2159 10.8281 10.2159 9.6554 10.5313C9.33683 10.6181 9.04666 10.7871 8.81393 11.0213C8.5812 11.2555 8.41407 11.5468 8.32926 11.8659C8.01563 13.0438 8.01562 15.5 8.01562 15.5C8.01562 15.5 8.01563 17.9563 8.32926 19.1341C8.41407 19.4532 8.5812 19.7445 8.81393 19.9787C9.04666 20.2129 9.33683 20.3819 9.6554 20.4688C10.8281 20.7841 15.5156 20.7841 15.5156 20.7841C15.5156 20.7841 20.2031 20.7841 21.3759 20.4688C21.6944 20.3819 21.9846 20.2129 22.2173 19.9787C22.4501 19.7445 22.6172 19.4532 22.702 19.1341C23.0156 17.9563 23.0156 15.5 23.0156 15.5C23.0156 15.5 23.0156 13.0438 22.702 11.8659Z" fill="white"/>
<path d="M13.9805 17.7304V13.2696L17.9009 15.5L13.9805 17.7304Z" fill="#FF0302"/>
</g>
<defs>
<clipPath id="clip0_189_1008">
<rect width="15" height="15" fill="white" transform="translate(8 8)"/>
</clipPath>
</defs>
</svg>
